<svg width="384" height="62" viewBox="0 0 384 62" fill="none" xmlns="http://www.w3.org/2000/svg">
<path fill-rule="evenodd" clip-rule="evenodd" d="M180.588 0.737003C163.602 3.577 152.038 20.262 155.443 37.02C160.572 62.266 193.264 70.063 209.267 49.857L210.687 48.065L200.759 41.479L198.321 43.914C186.576 55.644 167.176 47.6 167.176 31C167.176 14.526 186.338 6.375 198.073 17.857L200.896 20.62L210.747 14.01L209.281 12.16C202.607 3.734 190.794 -0.969997 180.588 0.737003ZM237.368 1.596C214.839 7.298 206.964 35.714 223.355 52.165C241.092 69.967 270.917 60.04 274.695 35.076C277.818 14.444 257.744 -3.56 237.368 1.596ZM0.353027 61.118H12.118V12.578L18.909 12.73C27.965 12.933 30.238 14.458 30.233 20.329C30.228 25.734 27.71 28.163 21.712 28.548L18.235 28.771V39.941L22.118 39.936C38.024 39.913 47.233 25.853 40.695 11.572C36.817 3.102 32.182 1.367 13.412 1.359L0.353027 1.353V61.118ZM57.412 3.121L52.118 4.8V61.118H63.882V31.235C63.882 7.62 63.759 1.362 63.294 1.397C62.971 1.421 60.324 2.197 57.412 3.121ZM70.941 1.604C70.941 1.742 75.229 8.254 80.471 16.075C85.712 23.895 90.062 30.523 90.137 30.803C90.212 31.082 85.901 37.753 80.557 45.626C75.214 53.499 70.735 60.206 70.606 60.529C70.423 60.985 71.952 61.115 77.361 61.104L84.353 61.091L104.588 31.632C115.718 15.429 124.894 1.988 124.98 1.763C125.067 1.537 122.091 1.353 118.367 1.353H111.597L105.065 11C101.472 16.306 98.379 20.647 98.192 20.647C98.006 20.647 94.922 16.31 91.338 11.008L84.824 1.37L77.882 1.361C74.065 1.357 70.941 1.466 70.941 1.604ZM137.765 3.172L132.353 4.911V60.882L144.353 61.146V31.249C144.353 7.625 144.23 1.361 143.765 1.393C143.441 1.414 140.741 2.215 137.765 3.172ZM284.588 61.118H295.796C301.96 61.118 308.26 60.888 309.796 60.608C333.523 56.276 342.797 26.971 325.803 10.031C318.475 2.726 313.879 1.353 296.748 1.353H284.588V61.118ZM344.824 12.647H383.412V1.353H344.824V12.647ZM251.23 14.031C265.854 19.503 266.986 40.061 253.059 47.239C245.852 50.953 236.65 49.267 231.296 43.251C218.696 29.091 233.496 7.396 251.23 14.031ZM311.94 14.845C326.068 21.468 326.082 40.777 311.965 47.395C309.572 48.517 308.645 48.663 303.059 48.801L296.824 48.955V13.006L302.824 13.195C308.345 13.369 309.072 13.501 311.94 14.845ZM344.824 36.647H383.412V25.353H344.824V36.647ZM102.436 47.353C102.693 47.806 104.895 51.035 107.327 54.529L111.75 60.882L118.918 61.012C123.043 61.087 126.018 60.962 125.926 60.718C125.837 60.485 123.647 57.197 121.059 53.413L116.353 46.532L109.16 46.531C102.444 46.53 101.998 46.584 102.436 47.353ZM344.824 61.118H383.412V49.824H344.824V61.118Z" fill="#1D5D9B"/>
<path d="M52.118 4.8L57.412 3.121C60.324 2.197 62.971 1.421 63.294 1.397C63.759 1.362 63.882 7.62 63.882 31.235V61.118H52.118V4.8Z" fill="#1D5D9B"/>
</svg>
