<svg width="384" height="62" viewBox="0 0 384 62" fill="none" xmlns="http://www.w3.org/2000/svg">
<path fill-rule="evenodd" clip-rule="evenodd" d="M180.235 1.31949C163.249 4.15949 151.685 20.8445 155.09 37.6025C160.219 62.8485 192.911 70.6455 208.914 50.4395L210.334 48.6475L200.406 42.0615L197.968 44.4965C186.223 56.2265 166.823 48.1825 166.823 31.5825C166.823 15.1085 185.985 6.95749 197.72 18.4395L200.543 21.2025L210.394 14.5925L208.928 12.7425C202.254 4.31649 190.441 -0.387508 180.235 1.31949ZM237.015 2.17849C214.486 7.88049 206.611 36.2965 223.002 52.7475C240.739 70.5495 270.564 60.6225 274.342 35.6585C277.465 15.0265 257.391 -2.97751 237.015 2.17849ZM0 61.7005H11.765V13.1605L18.556 13.3125C27.612 13.5155 29.885 15.0405 29.88 20.9115C29.875 26.3165 27.357 28.7455 21.359 29.1305L17.882 29.3535V40.5235L21.765 40.5185C37.671 40.4955 46.88 26.4355 40.342 12.1545C36.464 3.68449 31.829 1.94949 13.059 1.94149L0 1.93549V61.7005ZM70.588 2.18649C70.588 2.32449 74.876 8.83649 80.118 16.6575C85.359 24.4775 89.709 31.1055 89.784 31.3855C89.859 31.6645 85.548 38.3355 80.204 46.2085C74.861 54.0815 70.382 60.7885 70.253 61.1115C70.07 61.5675 71.599 61.6975 77.008 61.6865L84 61.6735L104.235 32.2145C115.365 16.0115 124.541 2.57049 124.627 2.34549C124.714 2.11949 121.738 1.93549 118.014 1.93549H111.244L104.712 11.5825C101.119 16.8885 98.026 21.2295 97.839 21.2295C97.653 21.2295 94.569 16.8925 90.985 11.5905L84.471 1.95249L77.529 1.94349C73.712 1.93949 70.588 2.04849 70.588 2.18649ZM284.235 61.7005H295.443C301.607 61.7005 307.907 61.4705 309.443 61.1905C333.17 56.8585 342.444 27.5535 325.45 10.6135C318.122 3.30849 313.526 1.93549 296.395 1.93549H284.235V61.7005ZM250.877 14.6135C265.501 20.0855 266.633 40.6435 252.706 47.8215C245.499 51.5355 236.297 49.8495 230.943 43.8335C218.343 29.6735 233.143 7.97849 250.877 14.6135ZM311.587 15.4275C325.715 22.0505 325.729 41.3595 311.612 47.9775C309.219 49.0995 308.292 49.2455 302.706 49.3835L296.471 49.5375V13.5885L302.471 13.7775C307.992 13.9515 308.719 14.0835 311.587 15.4275ZM102.083 47.9355C102.34 48.3885 104.542 51.6175 106.974 55.1115L111.397 61.4645L118.565 61.5945C122.69 61.6695 125.665 61.5445 125.573 61.3005C125.484 61.0675 123.294 57.7795 120.706 53.9955L116 47.1145L108.807 47.1135C102.091 47.1125 101.645 47.1665 102.083 47.9355Z" fill="#1D5D9B"/>
<path d="M344.471 13.2295V1.93549H383.059V13.2295H344.471Z" fill="#F4D160"/>
<path d="M344.471 37.2295V25.9355H383.059V37.2295H344.471Z" fill="#F4D160"/>
<path d="M344.471 61.7005V50.4065H383.059V61.7005H344.471Z" fill="#F4D160"/>
<path d="M344.471 13.2295V1.93549H383.059V13.2295H344.471Z" fill="#F4D160"/>
<path d="M344.471 37.2295V25.9355H383.059V37.2295H344.471Z" fill="#F4D160"/>
<path d="M344.471 61.7005V50.4065H383.059V61.7005H344.471Z" fill="#F4D160"/>
<path d="M52 5.40315L57.294 3.72415C60.206 2.80015 62.853 2.02415 63.176 2.00015C63.641 1.96515 63.764 8.22314 63.764 31.8381V61.7211H52V5.40315Z" fill="#F4D160"/>
<path d="M132 5.40315L137.294 3.72415C140.206 2.80015 142.853 2.02415 143.176 2.00015C143.641 1.96515 143.764 8.22314 143.764 31.8381V61.7211H132V5.40315Z" fill="#F4D160"/>
</svg>
