<svg width="426" height="307" viewBox="0 0 426 307" fill="none" xmlns="http://www.w3.org/2000/svg">
<path d="M314.997 196.518H244.666V232.682H314.997V196.518Z" fill="#26264F"/>
<path d="M143.985 0H415.676C421.064 0 425.441 4.37944 425.441 9.76951V190.923C425.441 196.313 421.064 200.692 415.676 200.692H143.985C138.598 200.692 134.22 196.313 134.22 190.923V9.76951C134.22 4.37944 138.598 0 143.985 0Z" fill="#535889"/>
<path d="M423.758 196.401C421.693 199.184 418.224 200.678 415.676 200.678H143.985C138.598 200.678 134.22 196.298 134.22 190.908V9.76933C134.22 6.72276 135.626 4.33531 136.958 2.98779L423.758 196.401Z" fill="#272852"/>
<path d="M407.61 177.799C407.61 182.486 403.774 186.265 399.045 186.265H160.617C155.888 186.265 152.052 182.471 152.052 177.799V20.7546C152.052 16.0675 155.888 12.2886 160.617 12.2886H399.045C403.774 12.2886 407.61 16.0822 407.61 20.7546V177.784V177.799Z" fill="#FBEEAD"/>
<path d="M405.106 183.775C406.658 182.252 407.61 180.128 407.61 177.784V20.7546C407.61 16.0675 403.774 12.2886 399.045 12.2886H160.617C158.186 12.2886 156.005 13.2846 154.438 14.8811L405.106 183.775Z" fill="#F5D360"/>
<path d="M232.031 232.696H324.234L347.966 248.764H214.609L232.031 232.696Z" fill="#2C3039"/>
<path d="M347.951 248.764H214.609V259.28H347.951V248.764Z" fill="#26264F"/>
<path d="M367.115 60.7557H195.46V169.905H367.115V60.7557Z" fill="white"/>
<path d="M246.159 74.5532H207.963V110.453H246.159V74.5532Z" fill="#F2F2F7"/>
<path d="M246.159 117.19H207.963V153.09H246.159V117.19Z" fill="#F2F2F7"/>
<path d="M356.34 74.5532H254.606V76.633H356.34V74.5532Z" fill="#DADADA"/>
<path d="M356.34 82.3161H254.606V84.396H356.34V82.3161Z" fill="#DADADA"/>
<path d="M356.34 90.0936H254.606V92.1735H356.34V90.0936Z" fill="#DADADA"/>
<path d="M356.34 97.8567H254.606V99.9366H356.34V97.8567Z" fill="#DADADA"/>
<path d="M356.34 105.634H254.606V107.714H356.34V105.634Z" fill="#DADADA"/>
<path d="M356.34 113.397H254.606V115.477H356.34V113.397Z" fill="#DADADA"/>
<path d="M356.34 121.175H254.606V123.254H356.34V121.175Z" fill="#DADADA"/>
<path d="M356.34 128.937H254.606V131.017H356.34V128.937Z" fill="#DADADA"/>
<path d="M356.34 136.715H254.606V138.795H356.34V136.715Z" fill="#DADADA"/>
<path d="M356.34 144.478H254.606V146.558H356.34V144.478Z" fill="#DADADA"/>
<path d="M356.34 152.255H254.606V154.335H356.34V152.255Z" fill="#DADADA"/>
<path d="M367.115 26.2767H195.46V54.223H367.115V26.2767Z" fill="#8E8E93"/>
<path d="M234.666 258.694C234.666 262.752 231.387 266.033 227.317 266.033H22.9851C18.9298 266.033 15.6357 262.737 15.6357 258.694V122.463C15.6357 118.406 18.9298 115.125 22.9851 115.125H227.317C231.372 115.125 234.666 118.421 234.666 122.463V258.694Z" fill="#535889"/>
<path d="M233.393 262.825C231.841 264.919 229.235 266.047 227.317 266.047H22.9851C18.9298 266.047 15.6357 262.752 15.6357 258.709V122.478C15.6357 120.193 16.7045 118.391 17.7 117.381L233.378 262.839L233.393 262.825Z" fill="#272852"/>
<path d="M221.241 248.822C221.241 252.338 218.357 255.194 214.8 255.194H35.4878C31.9302 255.194 29.0461 252.338 29.0461 248.822V130.724C29.0461 127.209 31.9302 124.353 35.4878 124.353H214.8C218.357 124.353 221.241 127.209 221.241 130.724V248.822Z" fill="#75C2F6"/>
<g style="mix-blend-mode:multiply">
<path d="M219.367 253.333C220.539 252.191 221.256 250.594 221.256 248.837V130.738C221.256 127.223 218.372 124.367 214.814 124.367H35.4878C33.6578 124.367 32.0181 125.114 30.8469 126.315L219.353 253.333H219.367Z" fill="#F2F2F7"/>
</g>
<path d="M24.5807 266.765H223.584L250.287 291.093H0L24.5807 266.765Z" fill="#2C3039"/>
<path d="M250.287 291.093H0V307H250.287V291.093Z" fill="#26264F"/>
<path d="M27.1282 269.196H221.241L233.393 281.075H15.6357L27.1282 269.196Z" fill="#535889"/>
<path d="M106.814 282.598H142.639L146.84 289.512H102.173L106.814 282.598Z" fill="#535889"/>
<path d="M199.003 142.632H55.0759V239.624H199.003V142.632Z" fill="white"/>
<path d="M199.003 142.515H55.0759V154.847H199.003V142.515Z" fill="#DADADA"/>
<path d="M97.6053 159.681H65.5728V189.78H97.6053V159.681Z" fill="#DADADA"/>
<path d="M97.6053 195.434H65.5728V225.534H97.6053V195.434Z" fill="#DADADA"/>
<path d="M189.97 159.681H104.677V161.424H189.97V159.681Z" fill="#DADADA"/>
<path d="M189.97 166.199H104.677V167.942H189.97V166.199Z" fill="#DADADA"/>
<path d="M189.97 172.702H104.677V174.445H189.97V172.702Z" fill="#DADADA"/>
<path d="M189.97 179.22H104.677V180.963H189.97V179.22Z" fill="#DADADA"/>
<path d="M189.97 185.738H104.677V187.481H189.97V185.738Z" fill="#DADADA"/>
<path d="M189.97 192.256H104.677V193.999H189.97V192.256Z" fill="#DADADA"/>
<path d="M189.97 198.759H104.677V200.502H189.97V198.759Z" fill="#DADADA"/>
<path d="M189.97 205.277H104.677V207.02H189.97V205.277Z" fill="#DADADA"/>
<path d="M189.97 211.795H104.677V213.538H189.97V211.795Z" fill="#DADADA"/>
<path d="M189.97 218.312H104.677V220.055H189.97V218.312Z" fill="#DADADA"/>
<path d="M189.97 224.831H104.677V226.574H189.97V224.831Z" fill="#DADADA"/>
<path d="M178.331 144.668H171.245V151.742H178.331V144.668Z" fill="#1D5D9B"/>
<path d="M187.1 144.668H180.014V151.742H187.1V144.668Z" fill="#1D5D9B"/>
<path d="M195.694 144.668H188.623V151.742H195.694V144.668Z" fill="#1D5D9B"/>
</svg>
