<svg width="116" height="109" viewBox="0 0 116 109" fill="none" xmlns="http://www.w3.org/2000/svg">
<path d="M19.3701 77.141C9.06147 77.141 0.453978 68.9842 0.0177877 58.5884C-0.331165 50.4025 4.48147 42.9291 12.0421 39.8322C14.1794 33.9291 18.5268 28.9565 24.081 26.0631C23.8338 19.4039 26.1892 13.0501 30.6965 8.13567C35.262 3.17764 41.4559 0.29878 48.1732 0.0225265C61.5643 -0.544521 73.1088 9.66234 74.301 22.908C82.5159 23.9694 89.2624 30.3232 90.8326 38.4364C92.1557 38.102 93.4934 37.8984 94.8165 37.8402C105.474 37.3895 114.547 45.7062 114.998 56.3783C115.216 61.5545 113.398 66.4979 109.909 70.3073C106.405 74.1167 101.636 76.3413 96.4595 76.5449C91.6905 76.7484 86.7615 76.8793 81.4109 76.9229C80.8875 76.9229 80.4658 76.5013 80.4658 75.9924C80.4658 75.4689 80.8875 75.0473 81.3964 75.0327C86.7324 74.9891 91.6323 74.8728 96.3868 74.6693C101.054 74.4802 105.358 72.4738 108.527 69.0279C111.683 65.5819 113.326 61.1183 113.122 56.451C112.715 46.8258 104.544 39.3378 94.9183 39.7304C93.4062 39.7886 91.8795 40.0648 90.3819 40.5301C90.1202 40.6028 89.8294 40.5737 89.5968 40.4283C89.3641 40.2829 89.2042 40.0357 89.1606 39.7595C88.0701 31.7336 81.4255 25.4088 73.3559 24.7109C72.8907 24.6673 72.5272 24.2893 72.4981 23.824C71.7711 11.2181 60.91 1.37472 48.275 1.91268C42.0665 2.1744 36.3234 4.83516 32.1214 9.41516C27.9194 13.9952 25.7385 19.9273 26.0002 26.1358V26.5865C26.0438 26.9646 25.8257 27.3135 25.4913 27.4734C19.9808 30.1778 15.6916 35.0486 13.6996 40.8499C13.6124 41.1117 13.4088 41.3298 13.1471 41.4315C6.10991 44.1359 1.60261 50.9986 1.92249 58.5157C2.3296 68.1409 10.5154 75.6434 20.1262 75.2363C22.0745 75.1636 24.0228 75.0909 25.9275 75.0327H26.2764C26.829 75.0327 27.2361 75.4108 27.2506 75.9342C27.2651 76.4576 26.858 76.8938 26.3346 76.9084H25.9857C24.0664 76.9811 22.1326 77.0538 20.1843 77.1265C19.9081 77.1265 19.6318 77.141 19.3701 77.141Z" fill="#1D5D9B"/>
<path d="M82.9668 47.0875C82.4434 47.0875 82.0217 46.6659 82.0217 46.1424C82.0217 45.619 82.4434 45.1974 82.9668 45.1974C86.3691 45.1974 89.1462 42.6965 89.1462 39.6287C89.1462 39.1052 89.5678 38.6836 90.0913 38.6836C90.6147 38.6836 91.0363 39.1052 91.0363 39.6287C91.0363 43.7434 87.416 47.0875 82.9668 47.0875Z" fill="#1D5D9B"/>
<path d="M48.1005 108.895C48.0132 108.895 47.9405 108.895 47.8533 108.866L43.2878 107.645C42.8371 107.528 42.5463 107.092 42.5899 106.627L43.5495 98.1648C42.3718 97.5977 41.2232 96.9435 40.1327 96.2019L33.2845 101.262C32.9065 101.538 32.3831 101.494 32.0487 101.175L28.7045 97.8304C28.3701 97.496 28.341 96.9725 28.6173 96.5945L33.6916 89.7318C32.9501 88.6413 32.2813 87.5072 31.7288 86.3295L23.2522 87.2746C22.7723 87.3327 22.3507 87.0274 22.2344 86.5767L21.013 82.0257C20.8967 81.575 21.1148 81.0952 21.551 80.9207L29.3588 77.5185C29.257 76.2244 29.257 74.9013 29.3588 73.5782L21.551 70.1759C21.1294 69.9869 20.8967 69.5216 21.013 69.0709L22.0744 65.1161C22.1908 64.6654 22.6269 64.36 23.0922 64.4182L31.5543 65.3778C32.1214 64.1856 32.7902 63.0369 33.5317 61.961L28.4574 55.1128C28.1811 54.7348 28.2102 54.2113 28.5446 53.8769L31.8887 50.5328C32.2231 50.1984 32.7466 50.1693 33.1246 50.4456L39.9728 55.5054C41.0487 54.7639 42.1974 54.095 43.3896 53.528L42.43 45.0659C42.3718 44.6006 42.6772 44.1644 43.1279 44.0481L47.6934 42.8122C48.1441 42.6959 48.6239 42.914 48.8129 43.3502L52.2152 51.1726C53.5528 51.0708 54.876 51.0708 56.17 51.1726L59.5723 43.3502C59.7613 42.9286 60.2266 42.6959 60.6918 42.8122L65.2573 44.0481C65.708 44.1644 65.9988 44.6006 65.9552 45.0659L64.9956 53.528C66.1733 54.095 67.3219 54.7493 68.4124 55.4908L75.2606 50.431C75.6386 50.1548 76.1621 50.1984 76.4965 50.5183L79.8406 53.8624C80.175 54.1968 80.2041 54.7202 79.9278 55.0983L74.8535 61.9465C75.595 63.0369 76.2638 64.171 76.8163 65.3487L85.293 64.3891C85.7582 64.331 86.1944 64.6363 86.3107 65.087L87.5321 69.6525C87.6484 70.1032 87.4303 70.583 86.9941 70.7575L79.1863 74.1598C79.2881 75.4829 79.2881 76.806 79.1863 78.1L86.9941 81.5023C87.4303 81.6913 87.6484 82.1566 87.5321 82.6073L86.4707 86.5476C86.3544 86.9983 85.9327 87.3037 85.4529 87.2455L76.9908 86.3004C76.4238 87.4781 75.7695 88.6268 75.0134 89.7027L80.0878 96.5509C80.364 96.9289 80.3204 97.4524 80.0005 97.7868L76.6564 101.131C76.322 101.465 75.7986 101.494 75.4205 101.218L68.5578 96.1438C67.4673 96.8998 66.3332 97.5541 65.141 98.1066L66.1006 106.583C66.1587 107.049 65.8534 107.485 65.4027 107.601L60.8372 108.822C60.3865 108.939 59.9067 108.721 59.7322 108.284L56.3299 100.477C55.0214 100.578 53.7128 100.578 52.3897 100.477L48.9874 108.284C48.842 108.633 48.493 108.851 48.115 108.851L48.1005 108.895ZM56.9115 98.5719C57.2895 98.5719 57.624 98.79 57.7839 99.139L61.1426 106.83L64.1377 106.031L63.1926 97.685C63.149 97.2779 63.3671 96.8853 63.7597 96.7108C65.2573 96.0565 66.6822 95.2278 68.0198 94.2536C68.3542 94.0065 68.805 94.0065 69.1394 94.2536L75.8858 99.2407L78.0813 97.0452L73.0942 90.2988C72.847 89.9644 72.847 89.5137 73.0942 89.1793C74.0683 87.8416 74.8971 86.4167 75.5659 84.9191C75.7259 84.5411 76.133 84.3085 76.5401 84.3666L84.8713 85.2972L85.5111 82.9272L77.8196 79.5685C77.4415 79.4086 77.2089 79.016 77.2525 78.6089C77.427 76.9805 77.427 75.323 77.2525 73.6654C77.2089 73.2583 77.4415 72.8658 77.8196 72.7058L85.5111 69.3617L84.7114 66.3665L76.3656 67.3116C75.9585 67.3552 75.5659 67.1371 75.3914 66.7591C74.7372 65.276 73.9084 63.8366 72.9342 62.499C72.6871 62.1646 72.6871 61.7138 72.9342 61.3794L77.9214 54.633L75.7259 52.4375L68.9794 57.4101C68.645 57.6573 68.1943 57.6573 67.8599 57.4101C66.5222 56.4359 65.0974 55.6072 63.5998 54.9529C63.2217 54.7929 62.9891 54.4004 63.0473 53.9787L63.9923 45.6475L60.9972 44.8333L57.653 52.5393C57.4931 52.9173 57.086 53.1354 56.6789 53.1063C55.0941 52.9319 53.422 52.9319 51.7499 53.1063C51.3283 53.1354 50.9502 52.9173 50.7903 52.5393L47.4462 44.8333L44.451 45.6475L45.3961 53.9787C45.4397 54.3858 45.2216 54.7784 44.8436 54.9529C43.3314 55.6217 41.892 56.465 40.5689 57.4246C40.2345 57.6718 39.7838 57.6718 39.4494 57.4246L32.7029 52.4375L30.5075 54.633L35.4946 61.3649C35.7417 61.6993 35.7417 62.15 35.4946 62.4844C34.5349 63.8075 33.7062 65.2324 33.0228 66.7591C32.8483 67.1371 32.4558 67.3552 32.0487 67.3116L23.7174 66.3665L23.0777 68.751L30.7692 72.1097C31.1472 72.2696 31.3798 72.6622 31.3362 73.0838C31.1617 74.7414 31.1617 76.3844 31.3362 77.9983C31.3798 78.4054 31.1472 78.7979 30.7692 78.9724L23.0777 82.3311L23.8774 85.3117L32.2231 84.3812C32.6157 84.3376 33.0228 84.5557 33.1973 84.9337C33.8516 86.4313 34.6803 87.8562 35.6545 89.1938C35.9017 89.5282 35.9017 89.979 35.6545 90.3134L30.6674 97.0598L32.8629 99.2553L39.6093 94.2827C39.9437 94.0355 40.3944 94.0355 40.7288 94.2827C42.0665 95.2423 43.5059 96.0711 45.0035 96.7399C45.3815 96.9144 45.5996 97.307 45.556 97.7141L44.6109 106.045L47.6061 106.845L50.9502 99.1535C51.1102 98.7755 51.5028 98.5574 51.9099 98.5864C53.5674 98.7609 55.2394 98.7609 56.8534 98.5864C56.8824 98.5864 56.926 98.5864 56.9551 98.5864L56.9115 98.5719Z" fill="#1D5D9B"/>
<path d="M54.2655 93.1636C44.7129 93.1636 36.9342 85.3848 36.9342 75.8323C36.9342 66.2797 44.7129 58.501 54.2655 58.501C63.8181 58.501 71.5968 66.2797 71.5968 75.8323C71.5968 85.3848 63.8181 93.1636 54.2655 93.1636ZM54.2655 60.3911C45.7453 60.3911 38.8244 67.312 38.8244 75.8323C38.8244 84.3525 45.7453 91.2734 54.2655 91.2734C62.7858 91.2734 69.7066 84.3525 69.7066 75.8323C69.7066 67.312 62.7858 60.3911 54.2655 60.3911Z" fill="#1D5D9B"/>
<path d="M54.2655 93.1636C49.0312 93.1636 44.931 85.5448 44.931 75.8323C44.931 66.1198 49.0312 58.501 54.2655 58.501C59.4998 58.501 63.6 66.1198 63.6 75.8323C63.6 85.5448 59.4998 93.1636 54.2655 93.1636ZM54.2655 60.3911C50.238 60.3911 46.8212 67.4574 46.8212 75.8323C46.8212 84.2071 50.2235 91.2734 54.2655 91.2734C58.3075 91.2734 61.7098 84.2071 61.7098 75.8323C61.7098 67.4574 58.3075 60.3911 54.2655 60.3911Z" fill="#1D5D9B"/>
<path d="M70.6517 76.7781H37.8793C37.3559 76.7781 36.9342 76.3564 36.9342 75.833C36.9342 75.3096 37.3559 74.8879 37.8793 74.8879H70.6517C71.1752 74.8879 71.5968 75.3096 71.5968 75.833C71.5968 76.3564 71.1752 76.7781 70.6517 76.7781Z" fill="#1D5D9B"/>
<path d="M54.2651 93.1636C53.7417 93.1636 53.3201 92.7419 53.3201 92.2185V59.4461C53.3201 58.9226 53.7417 58.501 54.2651 58.501C54.7886 58.501 55.2102 58.9226 55.2102 59.4461V92.2185C55.2102 92.7419 54.7886 93.1636 54.2651 93.1636Z" fill="#1D5D9B"/>
<path d="M54.309 69.4205C49.7727 69.4205 45.2217 68.6644 40.6854 67.1377C40.191 66.9778 39.9293 66.4398 40.0892 65.9455C40.2492 65.4511 40.7871 65.1749 41.2815 65.3494C49.9471 68.2573 58.671 68.2573 67.2348 65.3494C67.7292 65.1894 68.2671 65.4511 68.4271 65.9455C68.6016 66.4398 68.3253 66.9778 67.8309 67.1377C63.3527 68.6644 58.8309 69.4205 54.2945 69.4205H54.309Z" fill="#1D5D9B"/>
<path d="M67.5402 86.0387C67.4384 86.0387 67.3366 86.0242 67.2348 85.9806C58.6855 83.0872 49.9471 83.0872 41.2815 85.9806C40.7871 86.155 40.2492 85.8788 40.0892 85.3844C39.9293 84.8901 40.191 84.3521 40.6854 84.1922C49.7581 81.1534 58.889 81.1534 67.8455 84.1922C68.3398 84.3667 68.6016 84.8901 68.4416 85.3844C68.3108 85.777 67.9473 86.0242 67.5402 86.0242V86.0387Z" fill="#1D5D9B"/>
</svg>
