<svg width="71" height="73" viewBox="0 0 71 73" fill="none" xmlns="http://www.w3.org/2000/svg">
<path d="M20.49 4.5L20.74 0.5C23.01 -0.03 21.66 3.21 21.99 4.5H30.73L31.4 3.67C31.82 2.31 30.57 0.00999999 32.72 0.5L32.97 4.5H41.71L42.38 3.67C42.8 2.31 41.55 0.00999999 43.7 0.5L43.95 4.5H52.69L53.44 5.25V27.98C54.6 27.57 55.99 26.12 56.94 25.24C58.54 23.77 62 19.51 63.78 19.1C69.61 17.76 72.39 23.33 68.68 27.99C64.49 33.25 57.87 37.99 53.44 43.22V72.94H0V5.24L0.75 4.49H9.49C9.65 3.02 8.91 1.1 10.24 0L11.74 4.49H20.48L20.49 4.5ZM9.49 6.49H2V71.42H51.46V45.45C45.85 49.51 40.88 57.28 35.44 61.15C34.48 61.83 24.3 66.8 23.64 66.85C22.9 66.91 22.49 66.39 22.48 65.7C22.47 65.06 27.23 55.25 27.97 54.18L51.45 30.7V6.49H43.96C43.63 7.78 44.98 11.02 42.71 10.49L42.46 6.49H32.97C32.64 7.78 33.99 11.02 31.72 10.49L31.47 6.49H21.98C21.65 7.78 23 11.02 20.73 10.49L20.48 6.49H10.99C11.71 11.99 8.8 12.25 9.49 6.49ZM67.82 21.61C66.12 19.82 63.04 20.83 61.99 22.8L66.27 27.44C68.49 27.03 69.15 23.01 67.82 21.61ZM60.21 24.48L29.99 54.69L34.73 59.43L64.95 29.22L60.21 24.48ZM25.49 63.94L32.97 60.19L29.23 56.45C28.15 56.27 28.65 56.67 28.44 57.14C27.44 59.4 26.29 61.61 25.49 63.94Z" fill="#1D5D9B"/>
<path d="M39.97 36.47C40.58 37.36 38.02 38.78 37.43 39.17C29.33 44.59 29.61 40.25 36.97 37.46C36.68 36.22 29.92 34.03 31.48 32.47L39.97 36.47Z" fill="#1D5D9B"/>
<path d="M21.9801 32.47C23.5801 34.08 16.7801 36.3 16.4901 37.46C18.3601 38.56 22.1801 39.29 21.9801 41.96C21.5301 42.42 13.8901 38.22 13.4901 37.21C13.1301 36.31 14.0401 36.48 14.4301 36.18C15.3001 35.51 21.4001 31.89 21.9801 32.48V32.47Z" fill="#1D5D9B"/>
<path d="M30.2401 30.47L31.4401 31.66C29.0101 34.95 27.4301 39.05 25.1901 42.41C24.8001 42.99 24.1001 44.61 23.2401 44.45L22.8701 42.59L30.2401 30.46V30.47Z" fill="#1D5D9B"/>
</svg>
