<svg width="78" height="68" viewBox="0 0 78 68" fill="none" xmlns="http://www.w3.org/2000/svg">
<path d="M46.4285 53.0919V65.0819C48.3785 65.3219 55.2185 64.0419 52.6785 67.0819H24.4485V65.0819H30.9485V53.0919H5.70851C3.18851 53.0919 0.748507 49.8218 0.458507 47.3518C-0.981493 34.6618 1.52851 19.3719 0.458507 6.39185C0.678507 3.18185 3.42851 0.591852 6.68851 0.621852C27.3585 2.16185 50.8485 -1.35815 71.1885 0.621852C75.6685 1.05185 77.0685 3.69185 77.4285 7.87185C78.4985 20.2819 76.6285 34.2318 77.3685 46.8018C77.3085 49.1218 74.5085 53.0919 72.1685 53.0919H46.4385H46.4285ZM75.4085 43.6018V5.89185C75.4085 4.69185 72.8285 2.02185 71.1885 2.62185H5.68851C4.88851 2.21185 2.46851 4.69185 2.46851 4.89185V43.6018H75.4185H75.4085ZM75.4085 45.6018H2.46851C2.26851 47.7118 2.57851 49.6819 4.58851 50.7219H72.7885C74.7285 49.6119 75.7185 47.8618 75.4185 45.6018H75.4085ZM44.9385 53.0919H32.9485V65.0819H44.9385V53.0919Z" fill="#1D5D9B"/>
<path d="M58.3585 23.6818C58.7085 24.2818 58.3785 24.8918 57.9185 25.3718C57.5285 25.7718 49.6585 30.3618 48.7885 30.7318C47.9885 31.0618 47.2985 31.2318 46.4285 31.1218C46.2485 29.8918 46.3685 30.0818 47.0385 29.4718C48.1385 28.4718 55.4285 25.2518 55.4085 24.3818L46.6585 19.1518L47.1785 17.6418L58.3485 23.6918L58.3585 23.6818Z" fill="#1D5D9B"/>
<path d="M30.9386 17.6319L30.8586 19.5419L21.9486 24.1219C24.0486 26.4519 27.7486 27.3619 30.1186 29.1819C30.9586 29.8219 31.0986 29.9519 30.9386 31.1019C30.1986 31.8419 20.4886 25.6719 18.9486 24.8519C18.7686 24.0919 19.7986 23.5619 20.2886 23.2019C21.2086 22.5319 30.5486 17.1619 30.9386 17.6219V17.6319Z" fill="#1D5D9B"/>
<path d="M45.4284 14.6319C45.5884 15.6219 45.0884 16.3219 44.6984 17.1419C41.9884 22.9219 37.4384 28.6719 34.5884 34.4919C32.8984 36.3819 32.6384 34.7319 33.4084 32.8319C34.7084 29.6119 41.3584 18.2419 43.4984 15.4519C44.1384 14.6119 44.2684 14.4719 45.4184 14.6319H45.4284Z" fill="#1D5D9B"/>
</svg>
