<svg width="76" height="69" viewBox="0 0 76 69" fill="none" xmlns="http://www.w3.org/2000/svg">
<path d="M58.21 61.6649C60.79 55.4649 68.48 54.6249 70.53 61.5849L75.12 61.7449C78.39 65.0949 71.64 62.9949 70.52 63.7249C70.09 64.0049 70.04 67.4749 66.47 68.4149C62.13 69.5649 59.86 67.3249 58.21 63.6549H0.75L0 62.9049L0.75 61.6649H58.21ZM67.8 59.8049C64.26 55.6149 57.03 62.0249 61.91 65.9449C66.06 69.2749 70.95 63.5449 67.8 59.8049Z" fill="#1D5D9B"/>
<path d="M75.95 44.6748H33.98C32.87 51.5248 23.17 51.3748 21.99 44.6748H0.75L0 43.9248L0.75 42.6848H21.74C24.26 36.5248 31.54 35.9148 33.96 42.4548L75.73 43.1548L75.95 44.6848V44.6748ZM26.84 39.7848C22.31 40.7748 23.28 48.4348 28.19 48.1748C33.78 47.8648 33.33 38.3748 26.84 39.7848Z" fill="#1D5D9B"/>
<path d="M75.95 24.1948V25.6948H53.72C51.71 32.3848 42.82 32.9248 41.48 25.6948H0V24.1948H41.47C42.85 16.8848 51.65 17.2648 53.71 24.1948H75.94H75.95ZM50.29 21.8748C46.61 18.2048 40.62 23.5248 44.19 27.7248C47.76 31.9248 54.33 25.9148 50.29 21.8748Z" fill="#1D5D9B"/>
<path d="M75.95 5.21485V6.71485H21.73C19.03 14.0248 11.61 13.6648 8.74 6.71485H0C0.23 3.60485 8.39 6.07485 9.44 5.16485C9.75 4.89485 10.06 1.63485 12.62 0.604846C17.11 -1.20515 20.09 1.25485 21.74 5.22485H75.95V5.21485ZM18.31 9.03485C22.08 5.26485 16.22 -1.16515 12.22 3.19485C8.22 7.55485 14.7 12.6348 18.31 9.03485Z" fill="#1D5D9B"/>
</svg>
