<svg width="92" height="64" viewBox="0 0 92 64" fill="none" xmlns="http://www.w3.org/2000/svg">
<path d="M0 0H91.19L91.94 0.75V63.19L91.19 63.94H0.75L0 63.19V0ZM89.94 1.5H2.25C0.76 3.26 1.53 6.4 2 8.49H89.94V1.5ZM89.94 9.99H2C2.27 10.63 1.5 11.47 1.5 11.74V61.19L2.25 61.94H89.94V9.99Z" fill="#1D5D9B"/>
<path d="M62.96 25.47V41.95H60.96V29.46L56.19 35.45L50.46 29.46V41.95H48.96V25.47C51.59 24.74 54.38 32.91 56.19 32.46C58.4 30.42 59.72 25.78 62.95 25.47H62.96Z" fill="#1D5D9B"/>
<path d="M14.99 25.4699V32.9599H25.48V25.4699L27.01 25.69C27.49 26.1 27.44 26.64 27.51 27.19C27.79 29.59 27.88 38.5 27.48 40.7C27.29 41.79 26.82 42.1 25.73 41.95L25.01 34.6699H15.45L14.98 41.9399L13.22 41.45L13.48 25.45H14.98L14.99 25.4699Z" fill="#1D5D9B"/>
<path d="M44.97 25.47V26.97H38.97V41.95C38.39 42.15 36.97 41.73 36.97 41.2V26.96H30.97V25.46H44.96L44.97 25.47Z" fill="#1D5D9B"/>
<path d="M68.95 25.47V39.71L69.7 40.46H78.44V41.96H67.45V25.47H68.95Z" fill="#1D5D9B"/>
<path d="M17.53 5.95004C16.17 4.06004 19.94 2.32004 20.48 4.26004C20.98 6.05004 18.28 6.99004 17.53 5.95004Z" fill="#1D5D9B"/>
<path d="M14.4401 5.94995C13.7001 6.98995 10.9901 6.05995 11.4901 4.25995C12.0301 2.31995 15.8001 4.04995 14.4401 5.94995Z" fill="#1D5D9B"/>
<path d="M8.49 3.5L8.42 5.92C6.33 7.12 4.9 5.54 6.07 3.57L8.49 3.5Z" fill="#1D5D9B"/>
</svg>
