<svg width="142" height="110" viewBox="0 0 142 110" fill="none" xmlns="http://www.w3.org/2000/svg">
<path d="M91.4188 109.16H7.29994C3.28408 109.16 0 105.893 0 101.86V52.8484C0 48.8325 3.26623 45.5663 7.29994 45.5663H78.7822C79.4248 45.5663 79.9424 46.0839 79.9424 46.7264C79.9424 47.369 79.4248 47.8866 78.7822 47.8866H7.29994C4.55131 47.8866 2.32027 50.1176 2.32027 52.8484V101.86C2.32027 104.608 4.55131 106.839 7.29994 106.839H91.4188C92.0614 106.839 92.579 107.357 92.579 108C92.579 108.642 92.0614 109.16 91.4188 109.16Z" fill="#1D5D9B"/>
<path d="M133.915 109.16H84.9042C80.8883 109.16 77.6221 105.894 77.6221 101.86V7.28209C77.6221 3.26623 80.8883 0 84.9042 0H133.915C137.931 0 141.198 3.26623 141.198 7.28209V101.86C141.198 105.876 137.931 109.16 133.915 109.16ZM84.9042 2.32027C82.1555 2.32027 79.9423 4.55131 79.9423 7.28209V101.86C79.9423 104.609 82.1734 106.84 84.9042 106.84H133.915C136.646 106.84 138.877 104.609 138.877 101.86V7.28209C138.877 4.55131 136.646 2.32027 133.915 2.32027H84.9042Z" fill="#1D5D9B"/>
<path d="M109.41 103.235C106.483 103.235 104.109 100.861 104.109 97.9337C104.109 95.0065 106.483 92.6149 109.41 92.6149C112.337 92.6149 114.711 95.0065 114.711 97.9337C114.711 100.861 112.337 103.235 109.41 103.235ZM109.41 94.9351C107.768 94.9351 106.429 96.2738 106.429 97.9337C106.429 99.5935 107.768 100.914 109.41 100.914C111.052 100.914 112.391 99.5757 112.391 97.9337C112.391 96.2916 111.052 94.9351 109.41 94.9351Z" fill="#1D5D9B"/>
<path d="M134.523 88.6879H84.2796C83.6371 88.6879 83.1195 88.1703 83.1195 87.5278V15.742C83.1195 15.0995 83.6371 14.5819 84.2796 14.5819H134.523C135.165 14.5819 135.683 15.0995 135.683 15.742V87.5278C135.683 88.1703 135.165 88.6879 134.523 88.6879ZM85.4398 86.3676H133.362V16.9022H85.4398V86.3676Z" fill="#1D5D9B"/>
<path d="M118.138 10.1733H114.764C114.122 10.1733 113.604 9.6557 113.604 9.01316C113.604 8.37063 114.122 7.85303 114.764 7.85303H118.138C118.78 7.85303 119.298 8.37063 119.298 9.01316C119.298 9.6557 118.78 10.1733 118.138 10.1733ZM112.355 10.1733H100.682C100.04 10.1733 99.522 9.6557 99.522 9.01316C99.522 8.37063 100.04 7.85303 100.682 7.85303H112.355C112.997 7.85303 113.515 8.37063 113.515 9.01316C113.515 9.6557 112.997 10.1733 112.355 10.1733Z" fill="#1D5D9B"/>
<path d="M78.7643 103.645H15.742C15.0995 103.645 14.5819 103.127 14.5819 102.485V52.242C14.5819 51.5995 15.0995 51.0819 15.742 51.0819H78.7643C79.4068 51.0819 79.9244 51.5995 79.9244 52.242V102.485C79.9244 103.127 79.4068 103.645 78.7643 103.645ZM16.9022 101.325H77.6041V53.4022H16.9022V101.325Z" fill="#1D5D9B"/>
<path d="M9.03111 87.2603C8.38857 87.2603 7.87097 86.7427 7.87097 86.1002V74.4096C7.87097 73.767 8.38857 73.2494 9.03111 73.2494C9.67365 73.2494 10.1912 73.767 10.1912 74.4096V86.1002C10.1912 86.7427 9.67365 87.2603 9.03111 87.2603ZM9.03111 73.1423C8.38857 73.1423 7.87097 72.6247 7.87097 71.9822V68.6089C7.87097 67.9663 8.38857 67.4487 9.03111 67.4487C9.67365 67.4487 10.1912 67.9663 10.1912 68.6089V71.9822C10.1912 72.6247 9.67365 73.1423 9.03111 73.1423Z" fill="#1D5D9B"/>
<path d="M128.579 29.6278H101.11C100.468 29.6278 99.9501 29.1102 99.9501 28.4676C99.9501 27.8251 100.468 27.3075 101.11 27.3075H128.579C129.221 27.3075 129.739 27.8251 129.739 28.4676C129.739 29.1102 129.221 29.6278 128.579 29.6278ZM95.0419 29.6278H90.2585C89.616 29.6278 89.0984 29.1102 89.0984 28.4676C89.0984 27.8251 89.616 27.3075 90.2585 27.3075H95.0419C95.6844 27.3075 96.202 27.8251 96.202 28.4676C96.202 29.1102 95.6844 29.6278 95.0419 29.6278Z" fill="#1D5D9B"/>
<path d="M98.0764 32.6799C95.7562 32.6799 93.8821 30.788 93.8821 28.4856C93.8821 26.1832 95.7562 24.2913 98.0764 24.2913C100.397 24.2913 102.271 26.1653 102.271 28.4856C102.271 30.8059 100.397 32.6799 98.0764 32.6799ZM98.0764 26.6115C97.0412 26.6115 96.2024 27.4504 96.2024 28.4856C96.2024 29.5208 97.0412 30.3597 98.0764 30.3597C99.1116 30.3597 99.9505 29.5208 99.9505 28.4856C99.9505 27.4504 99.1116 26.6115 98.0764 26.6115Z" fill="#1D5D9B"/>
<path d="M128.579 41.9438H112.444C111.801 41.9438 111.284 41.4262 111.284 40.7837C111.284 40.1411 111.801 39.6235 112.444 39.6235H128.579C129.221 39.6235 129.739 40.1411 129.739 40.7837C129.739 41.4262 129.221 41.9438 128.579 41.9438ZM106.376 41.9438H90.2585C89.616 41.9438 89.0984 41.4262 89.0984 40.7837C89.0984 40.1411 89.616 39.6235 90.2585 39.6235H106.376C107.018 39.6235 107.536 40.1411 107.536 40.7837C107.536 41.4262 107.018 41.9438 106.376 41.9438Z" fill="#1D5D9B"/>
<path d="M109.41 44.9781C107.107 44.9781 105.215 43.0862 105.215 40.7659C105.215 38.4456 107.09 36.5715 109.41 36.5715C111.73 36.5715 113.604 38.4456 113.604 40.7659C113.604 43.0862 111.73 44.9781 109.41 44.9781ZM109.41 38.9097C108.375 38.9097 107.536 39.7485 107.536 40.7837C107.536 41.8189 108.375 42.6756 109.41 42.6756C110.445 42.6756 111.284 41.8368 111.284 40.7837C111.284 39.7307 110.445 38.9097 109.41 38.9097Z" fill="#1D5D9B"/>
<path d="M109.41 83.1734C99.504 83.1734 91.4545 75.1238 91.4545 65.218C91.4545 55.3122 99.504 47.2805 109.41 47.2805C119.316 47.2805 127.365 55.3301 127.365 65.218C127.365 75.106 119.316 83.1734 109.41 83.1734ZM109.41 49.6008C100.789 49.6008 93.7747 56.6152 93.7747 65.218C93.7747 73.8209 100.789 80.8531 109.41 80.8531C118.031 80.8531 125.045 73.8387 125.045 65.218C125.045 56.5973 118.031 49.6008 109.41 49.6008Z" fill="#1D5D9B"/>
<path d="M109.41 83.1734C103.948 83.1734 99.6649 75.2845 99.6649 65.218C99.6649 55.1516 103.948 47.2805 109.41 47.2805C114.872 47.2805 119.173 55.1695 119.173 65.218C119.173 75.2666 114.889 83.1734 109.41 83.1734ZM109.41 49.6008C105.376 49.6008 101.985 56.7579 101.985 65.218C101.985 73.6781 105.394 80.8531 109.41 80.8531C113.426 80.8531 116.853 73.696 116.853 65.218C116.853 56.7401 113.444 49.6008 109.41 49.6008Z" fill="#1D5D9B"/>
<path d="M126.205 66.3779H92.6146C91.9721 66.3779 91.4545 65.8603 91.4545 65.2178C91.4545 64.5752 91.9721 64.0576 92.6146 64.0576H126.205C126.848 64.0576 127.365 64.5752 127.365 65.2178C127.365 65.8603 126.848 66.3779 126.205 66.3779Z" fill="#1D5D9B"/>
<path d="M109.41 83.1733C108.767 83.1733 108.25 82.6557 108.25 82.0132V48.4049C108.25 47.7624 108.767 47.2448 109.41 47.2448C110.052 47.2448 110.57 47.7624 110.57 48.4049V82.0132C110.57 82.6557 110.052 83.1733 109.41 83.1733Z" fill="#1D5D9B"/>
<path d="M109.463 58.8281C104.787 58.8281 100.093 58.0428 95.4169 56.4722C94.81 56.2758 94.4888 55.6154 94.6851 55.0086C94.8814 54.4018 95.5418 54.0805 96.1487 54.2768C105.019 57.2396 113.926 57.2396 122.635 54.2768C123.242 54.0626 123.903 54.4018 124.117 55.0086C124.331 55.6154 123.992 56.2758 123.385 56.4722C118.78 58.0428 114.122 58.8281 109.446 58.8281H109.463Z" fill="#1D5D9B"/>
<path d="M95.7917 75.873C95.3098 75.873 94.8457 75.5695 94.6851 75.0876C94.4888 74.4808 94.81 73.8204 95.4169 73.6241C104.769 70.5006 114.175 70.5006 123.385 73.6241C123.992 73.8383 124.313 74.4808 124.117 75.0876C123.903 75.6945 123.26 76.0157 122.653 75.8194C113.943 72.8566 105.019 72.8745 96.1665 75.8194C96.0416 75.8551 95.9166 75.873 95.7917 75.873Z" fill="#1D5D9B"/>
</svg>
