<svg width="110" height="110" viewBox="0 0 110 110" fill="none" xmlns="http://www.w3.org/2000/svg">
<path d="M54.5502 11.5858C51.3503 11.5858 48.7573 8.97903 48.7573 5.79292C48.7573 2.60681 51.3503 0 54.5502 0C57.7501 0 60.357 2.60681 60.357 5.79292C60.357 8.97903 57.7501 11.5858 54.5502 11.5858ZM54.5502 1.77925C52.3434 1.77925 50.5504 3.5723 50.5504 5.77913C50.5504 7.98595 52.3434 9.779 54.5502 9.779C56.7571 9.779 58.5639 7.98595 58.5639 5.77913C58.5639 3.5723 56.7709 1.77925 54.5502 1.77925Z" fill="#1D5D9B"/>
<path d="M54.55 28.9232C54.0534 28.9232 53.6534 28.5232 53.6534 28.0267V5.77909C53.6534 5.28256 54.0534 4.88257 54.55 4.88257C55.0465 4.88257 55.4465 5.28256 55.4465 5.77909V28.0267C55.4465 28.5232 55.0465 28.9232 54.55 28.9232Z" fill="#1D5D9B"/>
<path d="M89.0318 25.8607C87.487 25.8607 86.025 25.2539 84.9354 24.1642C82.6734 21.916 82.6734 18.2334 84.9354 15.9714C86.0388 14.8818 87.487 14.2749 89.0456 14.2749C90.6042 14.2749 92.0524 14.8818 93.142 15.9714C94.2454 17.0748 94.8385 18.523 94.8385 20.0816C94.8385 21.6264 94.2316 23.0746 93.142 24.1642C92.0524 25.2539 90.6042 25.8607 89.0456 25.8607H89.0318ZM89.0318 16.0542C87.956 16.0542 86.9491 16.4679 86.2043 17.2265C84.6457 18.7851 84.6457 21.323 86.2043 22.8815C87.7215 24.3987 90.3559 24.3987 91.8731 22.8815C92.6317 22.1229 93.0455 21.1299 93.0455 20.0678C93.0455 18.992 92.6317 17.9851 91.8731 17.2265C91.1145 16.4679 90.1076 16.0542 89.0456 16.0542H89.0318Z" fill="#1D5D9B"/>
<path d="M68.5497 42.4264C68.329 42.4264 68.1084 42.3437 67.9291 42.1782C67.7497 41.9989 67.6532 41.7644 67.6532 41.5299C67.6532 41.3092 67.736 41.0885 67.9015 40.9092L88.3836 19.4341C88.7284 19.0754 89.2939 19.0617 89.6525 19.4065C89.8318 19.5858 89.9284 19.8203 89.9284 20.0547C89.9284 20.2754 89.8456 20.4961 89.6801 20.6754L69.198 42.1506C69.0187 42.3299 68.7842 42.4264 68.5497 42.4264Z" fill="#1D5D9B"/>
<path d="M103.321 60.329C100.121 60.329 97.528 57.7222 97.528 54.5361C97.528 51.35 100.135 48.7432 103.321 48.7432C106.507 48.7432 109.114 51.3362 109.114 54.5361C109.114 57.736 106.521 60.329 103.321 60.329ZM103.321 50.5362C101.114 50.5362 99.321 52.3293 99.321 54.5361C99.321 56.7429 101.114 58.536 103.321 58.536C105.528 58.536 107.321 56.7429 107.321 54.5361C107.321 52.3293 105.528 50.5362 103.321 50.5362Z" fill="#1D5D9B"/>
<path d="M103.321 55.4322H87.3351C86.8386 55.4322 86.4386 55.0322 86.4386 54.5357C86.4386 54.0391 86.8386 53.6392 87.3351 53.6392H103.321C103.817 53.6392 104.217 54.0391 104.217 54.5357C104.217 55.0322 103.817 55.4322 103.321 55.4322Z" fill="#1D5D9B"/>
<path d="M89.0316 94.8245C87.4868 94.8245 86.0248 94.2176 84.9352 93.128C82.687 90.866 82.687 87.1834 84.9352 84.9214C86.0386 83.8317 87.4868 83.2249 89.0316 83.2249C90.5764 83.2249 92.0246 83.8179 93.128 84.9076C94.2314 85.9972 94.8383 87.4592 94.8383 89.004C94.8383 90.5488 94.2314 92.0108 93.128 93.1142C92.0384 94.2038 90.5902 94.8107 89.0316 94.8107V94.8245ZM89.0316 85.0179C87.9558 85.0179 86.9627 85.4317 86.2041 86.1903C84.6455 87.7489 84.6455 90.3005 86.2041 91.8591C87.7213 93.3625 90.3557 93.3763 91.8591 91.8591C92.6177 91.1005 93.0453 90.0936 93.0453 89.0178C93.0453 87.942 92.6315 86.9351 91.8729 86.1903C91.1143 85.4455 90.1212 85.0317 89.0454 85.0317L89.0316 85.0179Z" fill="#1D5D9B"/>
<path d="M89.0453 89.9149C88.8109 89.9149 88.5902 89.8321 88.4109 89.6528L70.1218 71.3637C69.9425 71.1844 69.8597 70.9637 69.8597 70.7293C69.8597 70.4948 69.9425 70.2741 70.1218 70.0948C70.4666 69.75 71.0459 69.75 71.3907 70.0948L89.6798 88.3839C89.8591 88.5632 89.9419 88.7839 89.9419 89.0183C89.9419 89.2528 89.8591 89.4735 89.6798 89.6528C89.5005 89.8321 89.2798 89.9149 89.0453 89.9149Z" fill="#1D5D9B"/>
<path d="M54.5502 109.1C53.0055 109.1 51.5434 108.493 50.4538 107.404C49.3642 106.314 48.7573 104.852 48.7573 103.307C48.7573 100.107 51.3641 97.5144 54.5502 97.5144C57.7364 97.5144 60.3432 100.121 60.3432 103.307C60.3432 106.493 57.7364 109.1 54.5502 109.1ZM54.5502 99.3075C52.3434 99.3075 50.5504 101.101 50.5504 103.307C50.5504 104.369 50.9642 105.376 51.7227 106.135C52.4813 106.893 53.4882 107.307 54.5502 107.307C56.7571 107.307 58.5501 105.514 58.5501 103.307C58.5501 101.101 56.7571 99.3075 54.5502 99.3075Z" fill="#1D5D9B"/>
<path d="M54.55 104.203C54.0534 104.203 53.6534 103.803 53.6534 103.306V70.6868C53.6534 70.1903 54.0534 69.7903 54.55 69.7903C55.0465 69.7903 55.4465 70.1903 55.4465 70.6868V103.306C55.4465 103.803 55.0465 104.203 54.55 104.203Z" fill="#1D5D9B"/>
<path d="M20.0686 94.8241C18.5238 94.8241 17.0618 94.2172 15.9721 93.1276C14.8687 92.0242 14.2756 90.5622 14.2756 89.0174C14.2756 87.4726 14.8825 86.0244 15.9721 84.9348C17.0618 83.8452 18.5238 83.2383 20.0686 83.2383C21.6133 83.2383 23.0754 83.8452 24.165 84.9348C26.427 87.183 26.427 90.8656 24.165 93.1276C23.0616 94.231 21.6133 94.8241 20.0686 94.8241ZM20.0686 85.0175C19.0065 85.0175 17.9997 85.4313 17.2411 86.1899C16.4825 86.9347 16.0687 87.9416 16.0687 89.0036C16.0687 90.0794 16.4825 91.0863 17.2411 91.8449C18.7583 93.3621 21.3927 93.3621 22.8961 91.8449C24.4546 90.2863 24.4546 87.7485 22.8961 86.1899C22.1375 85.4313 21.1306 85.0175 20.0686 85.0175Z" fill="#1D5D9B"/>
<path d="M20.0683 89.9145C19.8338 89.9145 19.6131 89.8317 19.4338 89.6524C19.2545 89.4731 19.1718 89.2524 19.1718 89.018C19.1718 88.7835 19.2545 88.5628 19.4338 88.3835L37.7091 70.1082C38.0539 69.7634 38.6332 69.7634 38.978 70.1082C39.1573 70.2875 39.2401 70.5082 39.2401 70.7427C39.2401 70.9772 39.1573 71.1978 38.978 71.3771L20.7027 89.6524C20.5234 89.8317 20.3028 89.9145 20.0683 89.9145Z" fill="#1D5D9B"/>
<path d="M5.79292 60.3286C2.59302 60.3286 0 57.7356 0 54.5495C0 51.3634 2.59302 48.7566 5.76533 48.7566C8.93765 48.7566 11.5858 51.3634 11.5858 54.5495C11.5858 57.7356 8.97903 60.3286 5.79292 60.3286ZM5.79292 50.5496C3.5723 50.5496 1.79305 52.3427 1.79305 54.5495C1.79305 56.7563 3.58609 58.5356 5.79292 58.5356C7.99975 58.5356 9.79279 56.7425 9.79279 54.5495C9.79279 52.3565 7.99975 50.5496 5.79292 50.5496Z" fill="#1D5D9B"/>
<path d="M25.7096 55.4471H5.79301C5.29647 55.4471 4.89648 55.0471 4.89648 54.5506C4.89648 54.054 5.29647 53.6541 5.79301 53.6541H25.7096C26.2062 53.6541 26.6061 54.054 26.6061 54.5506C26.6061 55.0471 26.2062 55.4471 25.7096 55.4471Z" fill="#1D5D9B"/>
<path d="M20.0686 25.8607C18.5238 25.8607 17.0618 25.2539 15.9721 24.1642C14.8825 23.0746 14.2756 21.6264 14.2756 20.0816C14.2756 18.5368 14.8825 17.0748 15.9721 15.9714C17.0618 14.8818 18.5238 14.2749 20.0686 14.2749C21.6133 14.2749 23.0754 14.8818 24.165 15.9714C25.2546 17.061 25.8615 18.523 25.8615 20.0678C25.8615 21.6126 25.2546 23.0746 24.165 24.1642C23.0754 25.2539 21.6133 25.8607 20.0686 25.8607ZM20.0686 16.0542C19.0065 16.0542 17.9997 16.4679 17.2411 17.2265C16.4825 17.9851 16.0687 18.992 16.0687 20.0678C16.0687 21.1299 16.4825 22.1367 17.2411 22.8815C18.7583 24.3987 21.3927 24.3987 22.8961 22.8815C23.6546 22.1229 24.0684 21.1299 24.0684 20.054C24.0684 18.9782 23.6546 17.9851 22.8961 17.2265C22.1375 16.4679 21.1306 16.0542 20.0686 16.0542Z" fill="#1D5D9B"/>
<path d="M38.2194 39.1024C37.985 39.1024 37.7643 39.0196 37.585 38.8403L19.4476 20.6892C19.2683 20.5099 19.1855 20.2892 19.1855 20.0547C19.1855 19.8202 19.2683 19.5995 19.4476 19.4202C19.7924 19.0754 20.3717 19.0754 20.7165 19.4202L38.8539 37.5714C39.0332 37.7507 39.116 37.9714 39.116 38.2058C39.116 38.4403 39.0332 38.661 38.8539 38.8403C38.6746 39.0196 38.4539 39.1024 38.2194 39.1024Z" fill="#1D5D9B"/>
<path d="M34.5645 71.7776C28.413 71.7776 23.3787 66.9501 23.1166 60.7986C22.9097 56.0125 25.6958 51.6265 30.0957 49.7645C31.337 46.4404 33.7921 43.6267 36.9093 41.944C36.8265 38.1097 38.2058 34.4546 40.7988 31.6271C43.4746 28.7169 47.1159 27.0342 51.0606 26.8686C58.95 26.5376 65.5429 32.3719 66.3704 40.0268C70.9772 40.7303 74.7564 44.2612 75.8046 48.799C76.4391 48.6611 77.1011 48.5645 77.7908 48.5369C77.9563 48.5369 78.1218 48.5369 78.2873 48.5369C84.4388 48.5369 89.4731 53.3506 89.7352 59.5159C89.9973 65.8329 85.0871 71.1845 78.77 71.4465C75.0598 71.5983 71.0461 71.681 66.1497 71.681C63.0326 71.681 59.9155 71.6534 56.8121 71.6258C53.7088 71.5983 50.6054 71.5707 47.5158 71.5707C42.6746 71.5707 38.7161 71.6396 35.0611 71.7914C34.8956 71.7914 34.73 71.7914 34.5783 71.7914L34.5645 71.7776ZM51.6812 28.6341C51.5019 28.6341 51.3088 28.6341 51.1295 28.6341C47.6676 28.772 44.4677 30.2616 42.1229 32.8133C39.7782 35.3649 38.5644 38.6752 38.7023 42.1509V42.4268C38.7299 42.7854 38.5368 43.1164 38.2058 43.2681C35.13 44.7715 32.7439 47.4887 31.6405 50.7162C31.5577 50.9644 31.3646 51.1713 31.1164 51.2679C27.2268 52.7575 24.7304 56.5505 24.9097 60.7021C25.1441 66.0398 29.613 70.1776 34.9783 69.9569C38.661 69.8052 42.6332 69.7225 47.5021 69.7225C50.6054 69.7225 53.7088 69.75 56.8121 69.7776C59.9155 69.8052 63.0326 69.8328 66.1359 69.8328C71.0048 69.8328 74.9908 69.7638 78.6873 69.5983C84.0112 69.3776 88.1628 64.8536 87.9284 59.5297C87.6939 54.2057 83.2526 50.0955 77.8597 50.2886C76.977 50.33 76.1356 50.4817 75.3632 50.73C75.115 50.8127 74.8391 50.7851 74.6046 50.6334C74.384 50.4955 74.2322 50.261 74.1909 49.9989C73.584 45.5577 69.9013 42.0544 65.4463 41.6682C65.005 41.6268 64.6463 41.2682 64.6325 40.8268C64.2326 33.9719 58.55 28.5927 51.6812 28.5927V28.6341Z" fill="#1D5D9B"/>
<path d="M71.0048 54.5365C70.5083 54.5365 70.1083 54.1365 70.1083 53.64C70.1083 53.1434 70.5083 52.7434 71.0048 52.7434C72.7565 52.7434 74.1909 51.4745 74.1909 49.9021C74.1909 49.4056 74.5909 49.0056 75.0874 49.0056C75.584 49.0056 75.984 49.4056 75.984 49.9021C75.984 52.4538 73.7495 54.5365 71.0048 54.5365Z" fill="#1D5D9B"/>
</svg>
