<svg width="93" height="96" viewBox="0 0 93 96" fill="none" xmlns="http://www.w3.org/2000/svg">
<path d="M26.9679 5.92268L27.297 0.658075C30.2846 -0.0394845 28.5078 4.22484 28.9421 5.92268H40.4453L41.3271 4.83027C41.8799 3.04031 40.2347 0.0131615 43.0644 0.658075L43.3935 5.92268H54.8966L55.7784 4.83027C56.3312 3.04031 54.686 0.0131615 57.5158 0.658075L57.8448 5.92268H69.348L70.3351 6.90979V36.8259C71.8618 36.2863 73.6912 34.3778 74.9416 33.2196C77.0474 31.2849 81.6013 25.6781 83.9441 25.1385C91.6172 23.3748 95.2761 30.7058 90.3932 36.839C84.8785 43.762 76.1656 50.0005 70.3351 56.884V96H0V6.89663L0.987113 5.90951H12.4903C12.7008 3.97477 11.7269 1.44777 13.4774 0L15.4516 5.90951H26.9548L26.9679 5.92268ZM12.4903 8.54181H2.6323V93.9995H67.7291V59.819C60.3455 65.1626 53.8042 75.3891 46.6444 80.4826C45.3809 81.3776 31.9824 87.9188 31.1138 87.9846C30.1398 88.0636 29.6002 87.3792 29.5871 86.4711C29.5739 85.6287 35.8388 72.7173 36.8127 71.309L67.7159 40.4058V8.54181H57.858C57.4236 10.2396 59.2004 14.504 56.2128 13.8064L55.8837 8.54181H43.3935C42.9591 10.2396 44.7359 14.504 41.7483 13.8064L41.4192 8.54181H28.929C28.4947 10.2396 30.2715 14.504 27.2838 13.8064L26.9548 8.54181H14.4645C15.4121 15.7806 11.5821 16.1228 12.4903 8.54181ZM89.2613 28.442C87.0238 26.0861 82.9701 27.4154 81.5882 30.0082L87.2213 36.1152C90.1431 35.5755 91.0118 30.2846 89.2613 28.442ZM79.2454 32.2194L39.4713 71.9803L45.7099 78.2188L85.4839 38.4579L79.2454 32.2194ZM33.5487 84.1546L43.3935 79.2191L38.4711 74.2967C37.0496 74.0598 37.7077 74.5862 37.4313 75.2048C36.1152 78.1793 34.6016 81.088 33.5487 84.1546Z" fill="#1D5D9B"/>
<path d="M52.6063 48.0003C53.4092 49.1717 50.0398 51.0406 49.2633 51.5539C38.6025 58.6875 38.971 52.9754 48.6579 49.3033C48.2762 47.6713 39.379 44.7889 41.4322 42.7357L52.6063 48.0003Z" fill="#1D5D9B"/>
<path d="M28.9293 42.7351C31.0351 44.8541 22.0853 47.776 21.7036 49.3027C24.1648 50.7505 29.1925 51.7113 28.9293 55.2254C28.337 55.8308 18.2817 50.303 17.7552 48.9737C17.2814 47.7891 18.4791 48.0129 18.9924 47.618C20.1374 46.7362 28.1659 41.9717 28.9293 42.7483V42.7351Z" fill="#1D5D9B"/>
<path d="M39.8006 40.103L41.38 41.6692C38.1817 45.9994 36.1022 51.3956 33.1541 55.8178C32.6408 56.5812 31.7194 58.7134 30.5876 58.5028L30.1006 56.0547L39.8006 40.0898V40.103Z" fill="#1D5D9B"/>
</svg>
