<svg width="51" height="39" viewBox="0 0 51 39" fill="none" xmlns="http://www.w3.org/2000/svg">
<path opacity="0.6" d="M15.9971 18.2096L20.9863 0H9.6933L3.07271 16.5208C2.23326 18.6556 1.58387 20.3762 1.14039 21.6826C0.681066 22.989 0.38013 24.1042 0.221742 25.06C0.0633549 26.0159 0 26.9877 0 27.9914C0 31.2733 1.04536 33.9338 3.13607 35.9571C5.22678 37.9804 7.87185 39 11.0554 39C14.239 39 16.7732 37.9804 18.8639 35.9571C20.9546 33.9338 22 31.2733 22 27.9914C22 24.7096 20.9705 21.9853 18.9273 20.0735C18.072 19.277 17.0742 18.6716 15.9971 18.2096Z" fill="#F4D160"/>
<path opacity="0.6" d="M47.9273 20.0735C47.072 19.277 46.0742 18.6716 44.9971 18.2096L49.9863 0H38.6933L32.0727 16.5208C31.2333 18.6556 30.5839 20.3762 30.1404 21.6826C29.6811 22.989 29.3801 24.1042 29.2217 25.06C29.0634 26.0159 29 26.9877 29 27.9914C29 31.2733 30.0454 33.9338 32.1361 35.9571C34.2268 37.9804 36.8719 39 40.0554 39C43.239 39 45.7732 37.9804 47.8639 35.9571C49.9546 33.9338 51 31.2733 51 27.9914C51 24.7096 49.9705 21.9853 47.9273 20.0735Z" fill="#F4D160"/>
</svg>
