<svg width="131" height="109" viewBox="0 0 131 109" fill="none" xmlns="http://www.w3.org/2000/svg">
<path d="M129.245 109H1.07073C0.477709 109 0 108.522 0 107.929V1.07073C0 0.477709 0.477709 0 1.07073 0H129.245C129.838 0 130.316 0.477709 130.316 1.07073V107.929C130.316 108.522 129.838 109 129.245 109ZM2.14145 106.859H128.174V2.14145H2.14145V106.859Z" fill="#1D5D9B"/>
<path d="M129.245 108.999H72.4468C72.068 108.999 71.7056 108.785 71.5079 108.456L71.0796 107.698C70.816 107.237 70.9314 106.66 71.3432 106.331L79.5795 99.7583C79.0195 98.1604 78.5912 96.5461 78.2947 94.9482L67.8674 93.3833C67.3403 93.301 66.9614 92.8562 66.9614 92.3291V87.2884C66.9614 86.7613 67.3568 86.3001 67.8674 86.2342L78.2947 84.6693C78.5912 83.0714 79.0195 81.4571 79.5795 79.8592L71.3432 73.2866C70.9314 72.9572 70.816 72.3806 71.0796 71.9194L73.9953 66.8787C74.2588 66.4175 74.8189 66.2198 75.3131 66.4175L85.1308 70.2721C86.1851 69.0367 87.3711 67.8506 88.6395 66.7634L84.7684 56.9457C84.5708 56.4515 84.7684 55.8914 85.2297 55.6279L90.2703 52.7287C90.7316 52.4651 91.3081 52.5804 91.6376 52.9922L98.2102 61.2451C99.7257 60.7015 101.34 60.2567 103.004 59.9602L104.585 49.533C104.667 49.0058 105.112 48.627 105.639 48.627H111.454C111.981 48.627 112.426 49.0223 112.509 49.533L114.073 59.9602C115.737 60.2732 117.351 60.7015 118.867 61.2451L125.423 52.9922C125.753 52.5804 126.346 52.4651 126.79 52.7287L129.755 54.4418C130.085 54.6395 130.299 54.9854 130.299 55.3643V61.8545C130.299 61.9863 130.266 62.1181 130.217 62.2499L128.421 66.7799C128.998 67.2741 129.492 67.7353 129.97 68.1801C130.184 68.3777 130.299 68.6578 130.299 68.9543V107.929C130.299 108.522 129.821 108.999 129.228 108.999H129.245ZM74.1271 106.858H128.174V69.4155C127.68 68.9543 127.12 68.4601 126.494 67.933C126.131 67.6365 126.016 67.1423 126.181 66.714L128.174 61.6569V55.9903L126.543 55.0513L120.069 63.1888C119.773 63.5512 119.279 63.683 118.834 63.5183C116.989 62.7935 115.012 62.2664 112.953 61.9369C112.492 61.871 112.13 61.4922 112.064 61.0474L110.515 50.7684H106.545L104.997 61.0474C104.931 61.5086 104.569 61.871 104.107 61.9369C102.048 62.2664 100.072 62.7935 98.2431 63.5183C97.8148 63.683 97.3042 63.5512 97.0077 63.1888L90.5339 55.0513L87.0911 57.028L90.8963 66.6975C91.061 67.1258 90.9457 67.62 90.5833 67.9165C88.969 69.2179 87.5194 70.6675 86.2839 72.2159C85.9874 72.5783 85.4932 72.7101 85.0649 72.5453L75.3955 68.7401L73.4023 72.1829L81.5233 78.6567C81.8857 78.9532 82.0175 79.4309 81.8528 79.8757C81.1115 81.8195 80.5844 83.7962 80.2879 85.7565C80.222 86.2177 79.8596 86.5801 79.3819 86.646L69.1029 88.178V91.3737L79.3819 92.9056C79.8431 92.9715 80.2055 93.3339 80.2879 93.7952C80.5844 95.7554 81.1115 97.7321 81.8528 99.6759C82.0175 100.104 81.8857 100.598 81.5233 100.895L74.1271 106.792V106.858Z" fill="#1D5D9B"/>
<path d="M129.245 23.8036H1.07073C0.477709 23.8036 0 23.3259 0 22.7328C0 22.1398 0.477709 21.6621 1.07073 21.6621H129.245C129.838 21.6621 130.316 22.1398 130.316 22.7328C130.316 23.3259 129.838 23.8036 129.245 23.8036Z" fill="#1D5D9B"/>
<path d="M14.018 16.3734C11.4153 16.3734 9.30676 14.2649 9.30676 11.6622C9.30676 9.05949 11.4153 6.93451 14.018 6.93451C16.6207 6.93451 18.7456 9.05949 18.7456 11.6622C18.7456 14.2649 16.6207 16.3734 14.018 16.3734ZM14.018 9.09244C12.6013 9.09244 11.4482 10.2455 11.4482 11.6787C11.4482 13.1118 12.6013 14.2484 14.018 14.2484C15.4346 14.2484 16.6042 13.0953 16.6042 11.6787C16.6042 10.262 15.4511 9.09244 14.018 9.09244Z" fill="#1D5D9B"/>
<path d="M29.8319 16.3734C27.2292 16.3734 25.1207 14.2649 25.1207 11.6622C25.1207 9.05949 27.2292 6.93451 29.8319 6.93451C32.4346 6.93451 34.5431 9.05949 34.5431 11.6622C34.5431 14.2649 32.4181 16.3734 29.8319 16.3734ZM29.8319 9.09244C28.3823 9.09244 27.2622 10.2291 27.2622 11.6787C27.2622 13.1283 28.4153 14.2484 29.8319 14.2484C31.2486 14.2484 32.4017 13.0953 32.4017 11.6787C32.4017 10.262 31.2486 9.09244 29.8319 9.09244Z" fill="#1D5D9B"/>
<path d="M129.245 12.7508H58.0334C57.4404 12.7508 56.9626 12.2731 56.9626 11.6801C56.9626 11.0871 57.4404 10.6094 58.0334 10.6094H129.245C129.838 10.6094 130.316 11.0871 130.316 11.6801C130.316 12.2731 129.838 12.7508 129.245 12.7508Z" fill="#1D5D9B"/>
<path d="M113.827 40.6557H16.4894C15.8964 40.6557 15.4187 40.178 15.4187 39.585V32.9135C15.4187 32.3205 15.8964 31.8428 16.4894 31.8428H113.827C114.42 31.8428 114.897 32.3205 114.897 32.9135V39.585C114.897 40.178 114.42 40.6557 113.827 40.6557ZM17.5602 38.5142H112.756V33.9842H17.5602V38.5142Z" fill="#1D5D9B"/>
<path d="M72.3484 54.6402H16.0776C15.4845 54.6402 15.0068 54.1625 15.0068 53.5695C15.0068 52.9765 15.4845 52.4988 16.0776 52.4988H72.3484C72.9414 52.4988 73.4191 52.9765 73.4191 53.5695C73.4191 54.1625 72.9414 54.6402 72.3484 54.6402Z" fill="#1D5D9B"/>
<path d="M36.5532 61.3614H16.0776C15.4845 61.3614 15.0068 60.8837 15.0068 60.2906C15.0068 59.6976 15.4845 59.2199 16.0776 59.2199H36.5532C37.1462 59.2199 37.6239 59.6976 37.6239 60.2906C37.6239 60.8837 37.1462 61.3614 36.5532 61.3614Z" fill="#1D5D9B"/>
<path d="M61.1799 68.1139H16.0776C15.4845 68.1139 15.0068 67.6362 15.0068 67.0432C15.0068 66.4502 15.4845 65.9725 16.0776 65.9725H61.1799C61.7729 65.9725 62.2506 66.4502 62.2506 67.0432C62.2506 67.6362 61.7729 68.1139 61.1799 68.1139Z" fill="#1D5D9B"/>
<path d="M49.0889 74.8514H16.0776C15.4845 74.8514 15.0068 74.3737 15.0068 73.7807C15.0068 73.1877 15.4845 72.71 16.0776 72.71H49.1054C49.6984 72.71 50.1761 73.1877 50.1761 73.7807C50.1761 74.3737 49.6984 74.8514 49.1054 74.8514H49.0889Z" fill="#1D5D9B"/>
<path d="M60.9328 81.573H16.0776C15.4845 81.573 15.0068 81.0953 15.0068 80.5022C15.0068 79.9092 15.4845 79.4315 16.0776 79.4315H60.9493C61.5423 79.4315 62.02 79.9092 62.02 80.5022C62.02 81.0953 61.5423 81.573 60.9493 81.573H60.9328Z" fill="#1D5D9B"/>
<path d="M48.0511 88.3278H16.0776C15.4845 88.3278 15.0068 87.8501 15.0068 87.2571C15.0068 86.6641 15.4845 86.1863 16.0776 86.1863H48.0511C48.6441 86.1863 49.1218 86.6641 49.1218 87.2571C49.1218 87.8501 48.6441 88.3278 48.0511 88.3278Z" fill="#1D5D9B"/>
</svg>
