<svg xmlns="http://www.w3.org/2000/svg" width="1920" height="1080" version="1.0" viewBox="0 0 1440 810"><defs><clipPath id="a"><path d="M1075.652 255.133H1359V555h-283.348Zm0 0"/></clipPath><clipPath id="b"><path d="M81 255.07h256V483H81Zm0 0"/></clipPath><clipPath id="c"><path d="M294 440h105.75v74H294Zm0 0"/></clipPath></defs><path fill="#fff" d="M-144-81h1728v972H-144z"/><path fill="#fff" d="M-144-81h1728v972H-144z"/><path fill="#fbeeac" d="M0 0h720v810H0Zm0 0"/><path fill="#75c2f6" d="M720 0h720v810H720Zm0 0"/><g clip-path="url(#a)"><path d="M1235.668 427.57c-1.215-1.726-2.23-3.437-3.512-4.918-1.355-1.57-2.449-3.472-4.582-4.242-.594-.21-1.195-.523-1.656-.941-.691-.63-1.492-.864-2.355-1.031-.262-.051-.56-.063-.774-.2-1.336-.851-2.914-.93-4.367-1.398-.395-.13-.832-.324-1.078-.63-.45-.554-.989-.776-1.657-.796-1.285-.035-2.496-.277-3.683-.828-.824-.379-1.785-.453-2.684-.676-1.164-.285-2.32-.594-3.484-.879-.422-.101-.852-.199-1.281-.226-1.168-.078-2.32-.16-3.489-.375-1.363-.246-2.8-.063-4.207-.078-.597-.008-1.21.023-1.789-.09-.984-.192-1.914-.106-2.882.125-.59.14-1.247.02-1.872-.024-.226-.015-.445-.203-.668-.203-1.898-.035-3.793-.043-5.691-.058-.805-.004-1.61.023-2.41-.024-.969-.058-1.938-.281-2.875.18a.43.43 0 0 1-.297.02c-1.21-.38-2.43.16-3.652-.048-.48-.078-.996.079-1.496.122-.23.015-.489.086-.688.011-1.437-.527-2.91-.199-4.367-.215-.137-.003-.274.04-.402.024-1.313-.156-2.645-.223-3.93-.504a10 10 0 0 0-3.574-.129c-1.512.207-3.008.184-4.493-.164-.285-.066-.554-.223-.812-.371a6.2 6.2 0 0 0-2.555-.817c-1.261-.125-2.5-.43-3.746-.664-.2-.035-.39-.136-.586-.14-2.27-.051-4.41-.778-6.597-1.242-1.403-.301-2.801-.625-4.204-.922-.257-.055-.543-.086-.8-.043-1.11.183-2.114-.164-3.125-.54-2.375-.874-4.825-1.593-7.121-2.644-1.372-.629-2.727-.898-4.176-1.129-1.012-.16-1.965-.797-2.899-1.308-1.523-.836-3-1.754-4.507-2.614a142 142 0 0 0-3.774-2.07c-.996-.535-2.027-1.008-3.012-1.558-1.023-.567-2.011-1.2-3.015-1.797-1.75-1.047-3.516-2.067-5.254-3.137-1.438-.887-2.934-1.676-4.102-2.969-.472-.523-1.27-.746-1.828-1.21-1.363-1.137-2.738-2.274-3.996-3.52-1.285-1.27-2.453-2.66-3.648-4.024-.727-.828-1.532-1.625-2.075-2.566-.777-1.356-2.058-2.277-2.847-3.602-.188-.312-.399-.636-.489-.984-.347-1.375-1-2.606-1.582-3.887-.632-1.406-1.39-2.8-1.546-4.422-.098-1.015-.473-2.015-.813-2.988-.34-.969-.46-1.926-.476-2.953-.024-1.371-.282-2.734-.41-4.106-.051-.53-.102-1.074-.032-1.597.27-1.953.219-3.957.95-5.848.21-.543.034-1.242.257-1.777.754-1.805.965-3.766 1.645-5.57.636-1.688 1.578-3.258 2.414-4.868 1.05-2.011 2.086-4.039 3.226-6.004.637-1.097 1.375-2.164 2.239-3.086.953-1.02 2.05-1.921 3.175-2.75.883-.648 1.891-1.125 2.864-1.632 1.543-.809 3.074-1.649 4.664-2.344 1.156-.508 2.386-.875 3.617-1.18 2.043-.504 4.11-.91 6.168-1.344a2 2 0 0 1 .695-.015c2.184.328 4.395.433 6.535 1.097 1.59.497 3.278.66 4.91 1.024.778.176 1.528.476 2.29.723l4.675 1.503c.352.11.727.168 1.055.329 2.164 1.058 4.332 2.109 6.465 3.226.52.274.902.793 1.351 1.2.668.6 1.348 1.187 2 1.804.633.598 1.262 1.2 1.848 1.84a140 140 0 0 1 3.211 3.61 228 228 0 0 1 4.066 4.847c.676.832 1.254 1.746 1.914 2.59 1.278 1.629 2.598 3.226 3.872 4.86 1.289 1.66 2.52 3.366 3.82 5.019.41.52.984.902 1.43 1.398.675.746 1.27 1.567 1.964 2.293.707.742 1.485 1.422 2.25 2.11 1.098.984 2.164 2.011 3.329 2.906 1.222.941 2.543 1.754 3.824 2.617.414.281.883.504 1.254.836.96.867 2.25.824 3.363 1.265.86.34 1.8.461 2.703.688.356.09.7.23 1.059.309.453.105.957.328 1.367.218 1.012-.265 1.918.078 2.867.262.406.078.852.043 1.266-.023.562-.086 1.113-.247 1.668-.387 1.757-.453 3.484-.98 5.007-2.016.27-.183.563-.41.723-.683.598-1.036 1.297-2 1.676-3.172.723-2.258 1.164-4.574 1.68-6.875.027-.13.023-.266.027-.403.125-2.703.254-5.41.36-8.117.034-.836-.016-1.672.003-2.508.024-1.203.102-2.406.11-3.609.011-1.262-.043-2.523-.051-3.785-.004-1.274.097-2.555 0-3.82-.106-1.375.129-2.622.683-3.891.48-1.086.551-2.356 1.047-3.434 1.348-2.937 2.95-5.722 5.383-7.941.914-.832 1.711-1.8 2.629-2.629a29 29 0 0 1 2.82-2.242c1.371-.953 2.793-1.84 4.207-2.73 1.07-.672 2.055-1.477 3.371-1.723.633-.117 1.18-.684 1.817-.828a39 39 0 0 1 4.437-.754 22.5 22.5 0 0 1 3.91-.075c.993.075 1.957.446 2.946.625.847.16 1.71.235 2.57.352.164.024.336.04.484.106 1.387.593 2.766 1.21 4.153 1.804 2.183.938 4.367 1.863 6.55 2.793.184.078.399.125.547.246 2.145 1.723 4.688 2.715 7.141 3.864 1.27.597 2.559 1.152 3.8 1.796.743.387 1.352 1.043 2.114 1.348 1.852.746 3.485 1.934 5.45 2.488 1.992.567 3.867 1.547 5.855 2.141 1.726.52 3.539 1.04 5.312 1.035 2.086-.004 4.137.23 6.207.3.29.009.586-.108.875-.187 1.223-.34 2.446-.687 3.672-1.03.192-.055.418-.044.582-.138 1.852-1.058 3.793-1.996 5.504-3.246 1.125-.824 2.11-1.898 2.934-3.12.773-1.153 1.898-2.067 2.86-3.094.245-.27.46-.57.671-.868.957-1.332 1.906-2.664 2.855-3.996.696-.972 1.403-1.937 2.075-2.926a153 153 0 0 0 2.324-3.53c1.066-1.66 2.156-3.31 3.16-5.005.574-.972.996-2.035 1.504-3.05.27-.54.602-1.047.855-1.594.614-1.332 1.188-2.684 1.79-4.02.343-.761.73-1.504 1.066-2.265a207 207 0 0 0 2.02-4.696c.226-.554.394-1.14.503-1.73.332-1.785.95-3.457 1.813-5.063.437-.82.656-1.757.976-2.64.5-1.383 1.012-2.762 1.493-4.153.468-1.355.918-2.718 1.359-4.086.379-1.175.887-2.277 1.887-3.39.12.949.324 1.738.304 2.52-.066 2.433-.136 4.874-.37 7.296-.122 1.207-.551 2.399-.93 3.57-.739 2.282-1.536 4.543-2.317 6.81-.578 1.675-1.129 3.362-1.754 5.023-.507 1.34-1.11 2.648-1.66 3.972-.129.309-.21.64-.348.946-.386.886-.789 1.765-1.19 2.644-.372.824-.685 1.68-1.138 2.457-.671 1.152-1.441 2.246-2.171 3.363-.184.278-.442.528-.56.829-.964 2.496-2.78 4.507-3.91 6.89-1.066 2.25-2.984 3.871-4.128 6.04a.5.5 0 0 1-.125.155c-1.363 1.13-2.262 2.645-3.367 3.989-.723.875-1.559 1.656-2.344 2.48q-1.52 1.601-3.04 3.195c-1.51 1.586-3.37 2.625-5.362 3.461-.184.079-.395.11-.57.204-2.41 1.289-4.993 1.804-7.716 1.8-1.921 0-3.843.13-5.765.2-.098.003-.23.078-.293.035-.95-.63-2.07-.41-3.098-.649-.808-.183-1.64-.258-2.45-.449-1.167-.281-2.37-.508-3.464-.976a7.3 7.3 0 0 0-2.398-.579c-.88-.07-1.614-.441-2.27-.984-.562-.469-1.176-.695-1.926-.734a3.55 3.55 0 0 1-1.601-.504c-1.828-1.117-3.598-2.328-5.43-3.438-.734-.445-1.61-.656-2.371-1.07-2.086-1.14-4.14-2.344-6.223-3.5-.402-.223-.879-.309-1.289-.524-.676-.347-1.37-.695-1.976-1.152-.446-.336-.817-.629-1.426-.578-1.117.098-2.063-.34-3.004-.945-1.441-.922-2.95-1.774-4.766-1.707a.8.8 0 0 1-.472-.13c-.914-.632-1.871-.695-2.961-.519-1.11.18-2.266.106-3.399.078-1.488-.039-2.902.11-4.28.77-1.231.594-2.583.93-3.81 1.531-2.078 1.012-4.07 2.195-5.832 3.723-.398.347-.71.797-1.101 1.16-.969.91-1.93 1.844-2.957 2.687-1.086.891-1.656 2.079-2.188 3.317-.3.707-.668 1.39-.953 2.101-.27.672-.531 1.36-.699 2.063-.336 1.43-.621 2.875-.894 4.316-.055.285.003.602.046.899.145 1.011.118 1.992-.136 2.996-.34 1.328-.25 2.695-.137 4.062.09 1.125.055 2.258.07 3.387.004.066-.039.133-.043.2-.058 1.331-.132 2.663-.175 3.995-.09 2.797-.055 5.602-.29 8.387-.132 1.578-.68 3.125-1.07 4.676-.187.746-.473 1.473-.652 2.219-.301 1.254-.899 2.296-1.918 3.109-.809.64-1.555 1.355-2.36 2-.574.457-1.18.871-1.796 1.266-.536.34-1.09.671-1.676.914-.508.21-1.067.297-1.606.43-.652.156-1.297.335-1.953.452-.687.122-1.383.2-2.078.25-.797.055-1.598.055-2.394.086-.168.004-.34.07-.5.043-1.938-.34-3.875-.687-5.809-1.054-.219-.04-.41-.223-.621-.317-.586-.257-1.156-.644-1.762-.726-1.824-.239-3.156-1.418-4.656-2.266-.988-.558-1.93-1.203-2.856-1.855-.52-.364-.98-.817-1.445-1.246-1.258-1.16-2.441-2.395-3.762-3.473-2.148-1.754-3.828-3.942-5.691-5.953-1.18-1.278-2.168-2.73-3.238-4.106-1.301-1.664-2.602-3.328-3.89-5.004-1.106-1.433-2.306-2.816-3.263-4.343-.879-1.41-1.914-2.672-3.011-3.891-1.817-2.02-3.762-3.906-5.883-5.602-.965-.77-2.07-1.37-3.012-2.164-1.152-.976-2.441-1.574-3.871-2.015-1.14-.356-2.18-1.024-3.3-1.457-.903-.344-1.848-.594-2.79-.809-.808-.183-1.672-.152-2.453-.402-1.629-.528-3.258-.926-4.973-1.07-1.101-.094-2.168-.567-3.27-.657-1.284-.11-2.589-.031-3.882.051a14.4 14.4 0 0 0-2.574.418c-.899.227-1.777.54-2.645.875-1.12.434-2.218.938-3.336 1.387-.433.175-.941.21-1.328.453-2.097 1.324-4.218 2.629-6.226 4.078-.762.55-1.325 1.426-1.852 2.234-.914 1.395-1.816 2.813-2.562 4.301-.871 1.735-1.61 3.535-2.332 5.336-.79 1.961-1.528 3.941-2.223 5.938-.227.652-.25 1.378-.371 2.07-.402 2.344-.856 4.687-.652 7.078.14 1.688.374 3.367.597 5.047.23 1.695.988 3.265 1.3 4.926.368 1.925 1.34 3.562 2.118 5.289.45.988 1.293 1.789 1.844 2.742 1.328 2.297 3.16 4.172 4.992 6.039 1.848 1.883 3.7 3.781 5.711 5.488 1.61 1.367 3.195 2.88 5.418 3.317.336.066.668.324.937.566 2.442 2.227 5.348 3.684 8.293 5.09.954.457 1.805 1.129 2.711 1.687.832.508 1.621 1.145 2.524 1.461 1.613.567 3.039 1.418 4.367 2.45.797.617 1.758.757 2.645 1.113 1.082.437 2.171.867 3.289 1.203 1.53.46 3.086.84 4.636 1.227 1.297.32 2.606.609 3.914.898.72.156 1.45.254 2.16.426 1.817.437 3.618.937 5.442 1.34 1.398.308 2.82.507 4.234.753.328.06.684.051.989.165 2.082.78 4.28.761 6.445.96.969.094 1.988.09 2.875.415 1.777.652 3.633.554 5.441.851 2.09.344 4.188.527 6.309.379.465-.035.934.078 1.406.082.863.008 1.73-.016 2.594-.023.605-.004 1.207.023 1.809.007 2.132-.062 4.265-.191 6.398-.187 1.836 0 3.668.16 5.504.21.558.017 1.12-.155 1.68-.144.964.024 1.93.141 2.898.184.59.027 1.18-.02 1.773-.02.938 0 1.875.055 2.813.004 1.371-.07 2.723-.101 4.055.34.398.133.886.152 1.296.063 2.016-.438 3.926.136 5.856.53 2.094.43 4.168.954 6.273 1.321 2.22.387 4.305 1.176 6.43 1.867.95.309 1.98.387 2.906.747 1.25.484 2.461 1.085 3.63 1.738 1.253.695 2.503 1.418 3.636 2.285 1.996 1.527 3.926 3.144 5.187 5.394.23.403.606.723.856 1.118.664 1.043 1.293 2.105 1.941 3.156.172.277.368.535.61.887 1.043-.856 1.992-1.637 2.953-2.414.207-.168.418-.344.652-.461 1.055-.536 2.016-1.168 2.805-2.07.863-.985 2.176-1.16 3.305-1.645 1.543-.66 3.125-1.219 4.683-1.836 1.399-.55 2.785-1.121 4.184-1.676 1.582-.629 3.14-1.328 4.758-1.851 1.984-.641 4.03-.989 6.136-.817 1.602.129 3.211.145 4.801.352 1.008.129 1.957.593 3.035.472.375-.039.79.317 1.2.457.91.32 1.84.586 2.734.938.43.168.785.504 1.195.723.586.312 1.2.566 1.781.882 1.024.559 2.075 1.082 3.032 1.739.644.445 1.261.816 2.039 1.015.613.156 1.172.57 1.726.914.477.301.863.774 1.367.989 1.91.808 3.399 2.191 4.961 3.48.18.145.38.273.59.363a12.5 12.5 0 0 1 4.012 2.61c.312.297.668.566 1.043.777 1.012.566 1.797 1.387 2.555 2.23.394.442.73.938 1.101 1.403.504.625.98 1.281 1.531 1.863.965 1.027 1.946 2.047 2.985 2.996.96.88 1.918 1.73 2.718 2.781.489.641 1.336.997 1.965 1.543q1.689 1.47 3.309 3.024c.96.922 1.851 1.914 2.809 2.844.355.343.804.59 1.21.879.188.132.438.218.56.398.933 1.348 2.366 2.148 3.5 3.27.726.722 1.25 1.648 1.92 2.43a37 37 0 0 0 2.227 2.327c.329.32.786.504 1.137.805.504.43 1 .883 1.446 1.375 1.168 1.285 2.3 2.602 3.453 3.898.906 1.02 1.824 2.028 2.734 3.047.133.149.23.332.355.485 1.09 1.308 2.168 2.62 3.27 3.918 1.04 1.218 2.215 2.34 3.117 3.648 1.363 1.98 3.2 3.633 4.09 5.938.121.308.336.582.504.87 1.227 2.094 2.344 4.208 2.95 6.614.495 1.953 1.413 3.797 2.148 5.687.261.68.53 1.352.78 2.036.528 1.402 1.099 2.796 1.54 4.226.27.88.324 1.82.484 2.735.063.359.133.722.23 1.074.755 2.68 1.18 5.449 1.009 8.191-.141 2.211-.2 4.41-.22 6.621 0 .262-.089.528-.148.79-.261 1.179-.52 2.355-.793 3.53-.093.395-.187.794-.347 1.16a335 335 0 0 1-2.156 4.864c-.454 1.012-1.06 1.887-1.832 2.719-1.07 1.14-1.86 2.539-2.836 3.773-1.118 1.414-2.305 2.77-3.465 4.153-.063.074-.168.12-.223.203-1.043 1.672-2.613 2.785-4.27 3.722-1.53.868-2.71 2.172-4.19 3.07-.849.512-1.782.876-2.677 1.301-.539.258-1.078.524-1.625.758-1.078.461-2.187.848-3.234 1.364-2.117 1.046-4.348 1.73-6.625 2.3-.41.102-.754.453-1.16.57-.867.255-1.754.43-2.63.637-.26.063-.562.067-.769.207-1.39.942-3.007 1.27-4.582 1.633-1.308.305-2.68.348-4.023.504-.234.027-.512-.05-.7.05-1.542.833-3.195.122-4.792.345-.88.12-1.824-.293-2.746-.434-1.02-.156-2.079-.16-3.059-.437-1.508-.43-2.973-1.012-4.437-1.57a132 132 0 0 1-5.11-2.055c-1.285-.555-2.523-1.22-3.793-1.805-.91-.422-1.867-.742-2.754-1.203-2.593-1.344-5.047-2.89-7.09-5.028-.71-.746-1.558-1.359-2.324-2.054-.566-.512-1.105-1.059-1.648-1.594-.145-.14-.23-.367-.395-.45-1.445-.722-2.332-2.027-3.367-3.183-.242-.273-.535-.508-.793-.773-1.137-1.18-2.266-2.371-3.406-3.547-.836-.867-1.692-1.719-2.531-2.586-.227-.235-.418-.508-.637-.758a104 104 0 0 0-1.387-1.555c-.2-.222-.433-.414-.629-.64-.265-.305-.472-.664-.758-.942-2.171-2.12-3.882-4.609-5.691-7.023-.117-.156-.254-.32-.414-.422-1.332-.848-2.082-2.14-2.809-3.484-.41-.758-1.011-1.41-1.496-2.133-1.078-1.617-2.11-3.262-3.21-4.86-.512-.742-1.196-1.367-1.708-2.113-.699-1.012-1.273-2.11-1.96-3.133-.692-1.027-1.462-2-2.188-3.004-.902-1.246-1.777-2.515-2.7-3.746-1.042-1.39-2.152-2.734-3.175-4.136-.746-1.028-1.41-2.11-2.086-3.184a103 103 0 0 1-2.285-3.762c-.297-.515-.442-1.117-.696-1.66a38 38 0 0 0-1.085-2.105c-.29-.524-.684-.996-.93-1.535-.82-1.797-1.383-3.75-2.45-5.38-.859-1.316-1.269-2.808-2.105-4.09a8.2 8.2 0 0 1-1.363-4.124.9.9 0 0 0-.09-.39c-.7-1.34-.7-2.837-.937-4.278-.079-.488-.082-.992-.106-1.488-.027-.63-.074-1.258-.047-1.887.024-.559.125-1.113.215-1.668.04-.266.176-.52.188-.781.074-1.786.863-3.348 1.414-5 .586-1.746 1.597-3.157 2.668-4.579a150 150 0 0 0 3.464-4.82c1.121-1.617 2.184-3.273 3.27-4.91.094-.14.223-.27.266-.422.523-1.765 1.918-2.973 2.878-4.453.387-.59 1.075-.984 1.622-1.469.171-.152.332-.312.441-.418m55.3 57.387c-1.316-.367-2.175-1.14-3.062-1.812-1.8-1.372-3.27-3.086-4.703-4.825-1.129-1.367-2.242-2.746-3.867-3.61-.512-.272-.934-.78-1.29-1.26-1.288-1.75-2.839-3.286-4-5.16-.96-1.56-2.28-2.892-3.413-4.349-.485-.625-1.024-.937-1.805-.613-.187.074-.383.121-.578.184-2.61.824-5.59-.082-7.395-2.149-1.964-2.242-3.996-4.425-5.996-6.64-.695-.774-1.398-1.543-2.062-2.344a69 69 0 0 1-1.977-2.524 14 14 0 0 1-.937-1.367c-.172-.285-.2-.656-.38-.93-.726-1.093-.573-2.148.056-3.206.488-.825.98-1.653 1.484-2.5-1.285-1.485-2.543-2.993-3.867-4.438-.785-.86-1.723-1.57-2.508-2.43-1.711-1.87-3.367-3.796-5.082-5.746-.09.07-.254.176-.402.305-.887.762-1.786 1.508-2.649 2.293-.687.629-1.422 1.238-1.973 1.973-1.101 1.472-2.093 3.023-3.124 4.543-.208.304-.399.62-.598.93-1.633 2.538-3.27 5.073-4.895 7.616-.27.422-.547.852-.707 1.317-.98 2.855-1.758 5.754-1.629 8.812.063 1.461.047 2.93.246 4.371.13.91.618 1.762.899 2.657.246.793.426 1.605.656 2.402.125.43.254.867.457 1.266.367.734.887 1.406 1.16 2.168.375 1.039.489 2.191 1.664 2.726.082.035.145.145.188.23.469.954.953 1.9 1.39 2.868.524 1.152.899 2.383 1.524 3.473.684 1.187 1.437 2.312 2.016 3.57.636 1.394 1.543 2.668 2.382 3.96.762 1.177 1.598 2.305 2.383 3.466.852 1.27 1.684 2.554 2.524 3.832.789 1.203 1.53 2.441 2.382 3.601 1.223 1.672 2.926 2.969 3.848 4.89.172.36.367.716.606 1.036 1.062 1.426 2.152 2.828 3.218 4.25.575.766 1.125 1.547 1.68 2.324.352.488.676.992 1.047 1.469.652.84 1.332 1.664 2 2.496 1.184 1.484 2.36 2.977 3.555 4.453.609.758 1.226 1.508 1.879 2.227.804.894 1.546 1.902 2.511 2.586.84.593 1.27 1.414 1.899 2.129 1.347 1.527 2.77 3.015 4.324 4.32.668.558 1.23 1.074 1.578 1.86.129.288.332.644.594.757 1.43.625 2.246 1.875 3.172 3.008 1.207 1.48 2.414 2.937 4.086 3.953.675.41 1.238 1.012 1.851 1.531.375.32.719.688 1.121.973 2.028 1.437 4.422 2.176 6.567 3.426 1.78 1.035 3.8 1.672 5.742 2.418 1.836.699 3.726 1.257 5.547 1.988.77.305 1.504.504 2.32.516.7.007 1.414.046 2.086.21 1.332.329 2.633.31 3.976.04.876-.176 1.79-.16 2.692-.22.23-.019.476.044.7-.007 1.694-.379 3.382-.77 5.07-1.184.808-.195 1.648-.355 2.402-.687 1.293-.57 2.55-1.211 3.98-1.371.23-.028.461-.106.68-.196 1.422-.593 2.8-1.32 4.266-1.777 3.23-1.004 5.984-2.96 9.03-4.328.09-.039.18-.094.259-.156.925-.719 1.796-1.52 2.78-2.145 2.407-1.52 3.747-4.086 5.872-5.875.121-.101.164-.289.266-.422.789-1.035 1.62-2.035 2.363-3.097.898-1.285 1.937-2.48 2.45-4.02.421-1.27.983-2.488 1.51-3.719.2-.46.598-.855.696-1.324a27 27 0 0 0 .442-3.187c.175-2.102.394-4.203.41-6.309.011-1.242-.336-2.484-.512-3.73-.074-.547-.156-1.098-.172-1.649-.016-.46.176-.953.07-1.379-.21-.836-.578-1.629-.847-2.449-.09-.273-.086-.578-.121-.871-.078-.621-.032-1.293-.25-1.86-.703-1.804-1.504-3.566-2.258-5.347-.055-.125-.067-.262-.102-.39-.343-1.391-.668-2.79-1.05-4.169-.133-.476-.465-.898-.606-1.37-.453-1.56-1.578-2.762-2.176-4.235-.023-.059-.09-.102-.129-.156-.547-.754-1.21-1.45-1.617-2.274-.992-2.004-2.496-3.629-3.785-5.414-.137-.187-.34-.324-.504-.492-.371-.387-.73-.777-1.101-1.168-.575-.605-1.141-1.219-1.73-1.812-.31-.31-.708-.532-.981-.864-1.418-1.73-2.809-3.488-4.211-5.234-.145-.18-.34-.317-.5-.485-.371-.386-.739-.78-1.102-1.171-.453-.493-.84-1.079-1.375-1.454-.832-.582-1.363-1.355-1.867-2.199-.27-.449-.66-.84-1.04-1.207-.476-.457-1.058-.808-1.484-1.3-.824-.946-1.484-2.044-2.609-2.704-.14-.086-.312-.207-.355-.347-.282-.942-1.207-1.22-1.825-1.809-.53-.504-1.109-.965-1.601-1.5-1.399-1.531-2.656-3.21-4.184-4.594-.918-.832-1.578-1.996-2.879-2.433-.425-.145-.718-.68-1.086-1.024a1578 1578 0 0 0-4.597-4.3c-.07-.067-.176-.094-.262-.149-1.32-.848-2.656-1.644-3.805-2.762-2.086-2.03-4.355-3.875-6.465-5.882-2.136-2.036-4.234-4.09-6.714-5.723-2.344-1.547-4.606-3.211-6.918-4.8-.938-.65-1.852-1.403-2.895-1.817-2.07-.82-4.191-1.559-6.351-2.098-1.97-.492-4.004-.785-6.028-.953-1.133-.094-2.316.008-3.441.5-1.742.766-3.54 1.402-5.317 2.082-1.558.601-3.144 1.129-4.668 1.797-1.464.64-2.867 1.418-4.293 2.14-2.253 1.145-4.425 2.395-6.136 4.313-.496.555-.559.996-.09 1.605.266.344.598.637.871.973 1.281 1.586 2.574 3.164 3.816 4.777.711.93 1.32 1.938 2.008 2.887.551.762 1.086 1.547 1.742 2.207.696.7 1.524 1.258 2.352 1.926.098-.074.281-.219.46-.36 2.216-1.73 4.97-1.703 6.938.262 1.82 1.817 3.497 3.774 5.235 5.672 1.176 1.285 2.336 2.586 3.52 3.867 1.16 1.25 2.378 2.453 3.495 3.743.47.546.989 1.226 1.07 1.894.231 1.926-.003 3.824-1.152 5.496-.148.219-.277.45-.418.672l-.14.203c.629.55 1.207 1.168 1.89 1.64 1.426.981 2.395 2.321 3.258 3.778.563.95 1.14 1.902 1.832 2.758 1.348 1.668 2.887 3.187 3.754 5.203.063.145.192.277.317.383.957.812 1.91 1.625 2.879 2.418 1.44 1.168 2.707 2.512 3.683 4.082.55.887 1.027 1.86.973 3.16m-21.6-31.695c-2.415 1.726-4.169 4.172-6.74 5.633.63.863.829.918 1.52.328 1.555-1.317 3.09-2.66 4.633-3.985.422-.363.856-.707 1.309-1.086-.27-.332-.477-.59-.723-.89m-11.493-11.614c-.883-.117-1.617-.226-2.254.372l-2.32 2.187c-.66.621-.906 1.434-1.14 2.266 2.187-1.215 3.913-2.91 5.714-4.825m5.555 5.332-6.176 5.766c.148.133.406.356.629.55l6.289-5.683q-.383-.322-.742-.633m4.668 4.711c-.567-.597-.668-.625-1.114-.156-.55.586-1.097 1.176-1.597 1.805-1.086 1.363-2.203 2.683-3.7 3.633-.472.297-.285.578.137.925 2.23-1.906 4.492-3.757 6.274-6.207m-12.817-1.027c.508.445.918.356 1.352-.062.648-.622 1.367-1.172 1.992-1.813 1.121-1.14 2.195-2.324 3.36-3.562-.204-.313-.454-.497-.91-.016a80 80 0 0 1-2.778 2.754c-.969.91-1.977 1.773-3.016 2.7m4.883 4.867c.547-.449 1.074-.808 1.512-1.258 1.023-1.05 1.996-2.148 3-3.218.32-.34.695-.625 1.023-.961.297-.305.5-.637-.101-1.016-1.563 2.465-4.055 3.91-6.239 5.762.286.242.485.414.805.691m4.887 5.172.07.235c1.14 0 2.16-.536 3.223-.856.851-.258 1.539-.785 2.082-1.504.414-.547.62-1.164.722-1.84-.953.63-1.82 1.305-2.675 1.989-.891.707-1.715 1.515-2.918 1.691-.176.027-.336.187-.504.285m-5.457-17.496c-2.106 1.918-4.137 3.766-6.172 5.625.406.559.465.566 1.039.047q2.56-2.315 5.125-4.629c.547-.496.547-.57.008-1.043m0 0"/></g><g clip-path="url(#b)"><path d="M81.09 299.836c.101-.895.394-1.754.629-2.621.07-.27.32-.567.57-.703 1.234-.672 2.45-1.434 3.766-1.899 2.277-.808 4.68-1.285 6.925-2.16 1.672-.648 3.438-.707 5.11-1.258a8.3 8.3 0 0 1 2.351-.402c1.727-.043 3.32-.574 4.934-1.098.54-.175 1.16-.09 1.746-.113.207-.008.43.07.625.023 1.227-.296 2.438-.68 3.676-.921 1.691-.332 3.363-.82 5.133-.512.68.117 1.418.035 2.105-.082 1.488-.25 2.953-.598 4.438-.863.48-.086.984-.079 1.472-.028.86.086 1.672.063 2.457-.394.676-.395 1.41-.614 2.235-.493.355.055.77-.066 1.113-.21 1.188-.493 2.367-.793 3.7-.688.878.07 1.792-.25 2.687-.426 1.074-.215 2.144-.664 3.207-.64 1.02.023 1.972-.09 2.906-.395 1.195-.387 2.375-.598 3.64-.441.579.074 1.192-.094 1.782-.184 1.914-.293 3.82-.613 5.734-.906 1.848-.281 3.703-.527 5.555-.813.41-.062.816-.207 1.215-.336 1.574-.507 3.14-1.03 4.715-1.535.703-.222 1.41-.445 2.129-.605 1.957-.434 3.914-.875 5.89-1.235 1.524-.277 3.074-.421 4.61-.656.695-.105 1.39-.449 2.066-.402 1.656.11 3.14-.574 4.71-.824.419-.067.845-.094 1.255-.192.43-.105.844-.27 1.27-.406.324-.106.644-.258.98-.309 1.281-.187 2.57-.328 3.855-.515 1.43-.207 2.864-.406 4.281-.684 1.68-.332 3.34-.762 5.02-1.11.613-.124 1.258-.109 1.883-.202 1.59-.243 3.21-.157 4.777-.68 1.707-.57 3.5-.707 5.309-.684.554.008 1.11-.16 1.668-.254.652-.109 1.308-.226 1.96-.343 1.071-.196 2.141-.399 3.216-.586.648-.113 1.324-.352 1.957-.274.984.125 1.875-.14 2.808-.297a72 72 0 0 1 3.55-.472c.77-.09 1.52-.156 2.204-.63.414-.284.969-.401 1.48-.503 1.305-.262 2.618-.453 3.86-1.004.457-.2 1.098-.285 1.55-.129.805.281 1.442-.02 2.15-.238a76 76 0 0 1 3.343-.953c2.101-.559 4.191-1.168 6.316-1.613 1.11-.231 2.29-.13 3.434-.215.476-.04.95-.164 1.418-.278.84-.21 1.676-.445 2.515-.66.41-.105.864-.113 1.227-.3.738-.376 1.445-.465 2.238-.196.309.106.7.074 1.028-.004 1.125-.265 2.226-.644 3.355-.863 1.313-.254 2.656-.363 3.977-.582.441-.07.87-.258 1.289-.43 1.047-.426 2.082-.816 3.254-.832.824-.008 1.648-.277 2.468-.453.274-.062.54-.3.793-.277 1.954.16 3.72-.75 5.61-.93.445-.043.933-.148 1.304-.383 1.024-.637 2.141-.644 3.274-.672.488-.011.988 0 1.46-.105 1.141-.266 2.274-.39 3.462-.317.715.047 1.449-.3 2.18-.336 1.902-.093 3.808-.058 5.706-.164 2.043-.113 4.11-.183 6.118-.539 1.879-.336 3.418.207 4.855 1.246 1.18.856 1.356 2.133 1.32 3.504-.046 1.895.512 3.664 1.329 5.36.316.66.64 1.324.91 2.004.695 1.757 1.195 3.617 2.086 5.261 1.12 2.067 1.882 4.211 2.398 6.48.215.95.598 1.86.895 2.794q.644 2.016 1.265 4.031c.051.164.078.36.035.516-.515 1.902-.09 3.77.184 5.64.074.489.11.98.148 1.473.016.176-.039.36 0 .527.368 1.52.778 3.028 1.106 4.555.137.64.043 1.332.152 1.98.258 1.516.57 3.024.871 4.532.032.172.16.332.164.5.055 1.96.813 3.773 1.168 5.668.532 2.804 1.082 5.601 1.63 8.402.027.137.062.277.136.395.773 1.218.734 2.53.508 3.882-.18 1.07-.082 2.094.656 2.989.57.695.356 1.546.324 2.332-.054 1.351.07 2.64.77 3.84.144.25.203.597.18.894-.125 1.566.125 3.031.726 4.512.41 1.011.637 2.148.379 3.316-.098.438.059.977.219 1.426.386 1.059.793 2.086.465 3.258-.067.242.128.574.234.851.11.293.414.606.36.848-.255 1.176.12 2.258.359 3.363.039.172.043.383.148.492.48.508.399 1.114.324 1.704-.203 1.625.235 3.144.676 4.68.211.738.168 1.546.379 2.28.5 1.739.715 3.493.59 5.293-.02.258.113.528.183.79.188.687.418 1.367.56 2.066.147.742.374 1.523.276 2.25-.171 1.324-.015 2.508.75 3.61.114.163.145.398.168.605.223 1.914.403 3.836.653 5.746.144 1.113.414 2.21.574 3.324.055.367-.066.758-.102 1.137-.05.472-.187.96-.12 1.418.085.62-.06 1.12-.477 1.539-1.055 1.047-2.325 1.648-3.809 1.906-1.734.297-3.441.746-5.164 1.098-.547.113-1.117.097-1.668.172-.875.117-1.766.175-2.605.41-1.282.351-2.68.289-3.848 1.05-.113.075-.266.098-.398.133-2.149.563-4.293 1.133-6.442 1.684-1.824.469-3.695.797-5.469 1.406-1.28.438-2.566.64-3.875.887-1.332.25-2.59.883-3.894 1.305-1.133.367-2.281.68-3.422 1.015-.168.051-.379.067-.492.18-1.246 1.203-2.985.844-4.434 1.398-.375.141-.863-.023-1.25.098-1.07.332-2.11.754-3.168 1.117-.629.215-1.262.422-1.906.57-1.473.34-2.95.641-4.422.954-.273.058-.55.093-.824.152-.613.129-1.227.246-1.836.398-1.23.305-2.457.637-3.684.954-2.214.57-4.437 1.117-6.644 1.714-1.754.477-3.48 1.063-5.242 1.508-1.594.403-3.239.606-4.829 1.031-1.519.407-2.988 1.004-4.492 1.48-1.007.321-2.03.587-3.054.853-.942.246-1.91.402-2.832.699-2.008.648-3.996 1.363-5.996 2.043-.333.113-.688.156-1.024.257-2.059.614-4.105 1.266-6.172 1.848-1.453.41-2.93.742-4.398 1.09-1.04.246-.989.234-1.102 1.32-.222 2.133-.539 4.254-.762 6.39-.117 1.15-.074 2.317-.183 3.47-.11 1.187-.375 2.36-.461 3.543-.082 1.12-.024 2.254-.02 3.379.004.316.055.632.04.945-.047 1.074-.114 2.152-.176 3.332.28-.063.472-.086.652-.152 2.352-.887 4.813-1.274 7.285-1.657 1.2-.187 2.371-.632 3.512-1.082 1.336-.523 2.527-.304 3.476.77.153.176.375.3.579.43 1.011.628 2.023 1.257 3.043 1.878 2 1.223 3.726 2.813 5.664 4.125 1.25.848 2.32 1.954 3.515 2.887.887.695 1.883 1.254 2.754 1.965 1.504 1.23 3.235 2.102 4.82 3.195 1.22.84 2.465 1.645 3.633 2.551 1.469 1.145 2.328 2.606 2.055 4.566-.047.336-.066.75.086 1.028.422.75 0 1.262-.465 1.668-1.11.976-2.25 1.875-3.824 2.094-1.102.152-2.238.44-3.223.933-1.281.637-2.676.828-3.976 1.317-2.235.835-4.422 1.8-6.641 2.68-1.047.41-2.125.75-3.191 1.105-.16.05-.352.027-.524.004-1.64-.247-3.148.093-4.55.976-.262.168-.587.242-.887.336-1.45.453-2.887.945-4.356 1.332-.879.23-1.797.363-2.707.418-1.496.082-2.883.488-4.285.988-.793.286-1.723.176-2.59.274-1.097.125-2.183.215-3.207.781-.879.488-1.851.84-2.933.738-1.125-.105-2.22.118-3.336.364-1.864.41-3.579 1.164-5.344 1.812-.43.16-.871.29-1.309.434-1.43.484-2.84 1.043-4.297 1.433-1.172.32-2.406.422-3.605.66-.508.098-.988.31-1.488.442-.641.176-1.282.371-1.934.469-.57.082-1.156.046-1.406-.649-.035-.09-.113-.203-.196-.23-1.3-.45-1.796-1.617-2.425-2.676-.871-1.469-2.23-2.426-3.575-3.406-.847-.621-1.605-1.36-2.421-2.02a15 15 0 0 0-1.43-1.023c-.441-.285-.906-.535-1.367-.785-.274-.145-.563-.262-.844-.395-.246-.113-.543-.18-.734-.36-1.274-1.195-2.524-2.417-3.79-3.624a4.7 4.7 0 0 0-.738-.598c-1.02-.633-2.066-1.219-2.828-2.195-.2-.258-.598-.36-.894-.547-.735-.461-1.641-.711-2.02-1.621a.5.5 0 0 0-.226-.215c-1.38-.555-2.184-1.777-3.133-2.797-.828-.887-1.618-1.883-1.914-3.117-.078-.328-.04-.824.164-1.059.496-.574 1.117-1.043 1.687-1.55.024-.02.074-.016.098-.04 1.793-1.968 4.465-1.832 6.68-2.785a.6.6 0 0 1 .207-.047c2.058.043 3.98-.863 5.968-.976 2.18-.125 4.055-1.074 6.094-1.52 1.473-.32 3-.386 4.496-.613.653-.102 1.3-.277 1.922-.496 2.027-.715 4.04-1.473 6.063-2.192.562-.199.785-.515.91-1.132.472-2.387 1.054-4.75 1.593-7.121q.07-.31.118-.625c.336-2.262.687-4.524.996-6.79.187-1.394.304-2.796.445-4.195.012-.129-.059-.262-.137-.59-1.273.407-2.476.864-3.718 1.164-1.086.266-2.215.348-3.325.524-.414.062-.902.039-1.222.254-1.368.922-2.973.8-4.473 1.129-1.3.289-2.598.578-3.89.879-.825.187-1.645.398-2.47.601-.706.172-1.413.367-2.128.516-1.364.273-2.742.465-4.086.793-.953.234-1.91.554-2.785.996-.813.41-1.637.578-2.516.707-.602.086-1.176.394-1.758.61-.39.144-.762.374-1.164.433-1 .148-2.101.008-3 .375-1.176.48-2.39.469-3.562.758-1.696.421-3.32 1.097-5 1.574-.7.2-1.524.004-2.184.265-1.476.586-3.004.598-4.539.75-.84.086-1.64.575-2.469.848-.394.129-.816.238-1.226.25-2.086.067-4.118.442-6.125.996-.551.153-1.16.07-1.735.14-.582.071-1.203.095-1.718.325-.622.277-1.188.488-1.895.531-.781.047-1.539.446-2.312.664-.739.207-1.489.371-2.23.563-1.08.273-2.188.473-3.231.855-1.258.457-2.41 1.243-3.692 1.575-1.644.425-3.195 1.207-4.976 1.168-2.168-.047-4.73-1.946-5.239-4.043-.105-.446-.316-.864-.433-1.305-.082-.293-.215-.684-.09-.902.445-.79-.031-1.247-.48-1.766-.528-.61-1.083-1.215-1.504-1.895-.329-.527-.454-1.171-.692-1.757-.582-1.426-1.101-2.887-1.793-4.258-.75-1.48-1.144-2.989-1.043-4.645.028-.398-.082-.836-.226-1.219-.422-1.113-.993-2.175-1.32-3.316-.66-2.285-1.196-4.61-1.782-6.922-.05-.203-.066-.414-.129-.613-.672-2.215-1.363-4.43-2.015-6.649-.106-.355-.06-.75-.086-1.128-.012-.207.015-.43-.043-.625-.332-1.106-.715-2.192-1.02-3.305-.195-.695-.285-1.422-.414-2.137-.144-.832-.27-1.664-.422-2.496-.156-.86-.2-1.773-.531-2.562-.617-1.477-.438-3.09-1.117-4.586-.64-1.403-.73-3.059-1.07-4.598-.083-.371-.223-.727-.31-1.094-.144-.61-.265-1.219-.398-1.828-.117-.539-.18-1.098-.367-1.613-.703-1.883-1.277-3.762-1.312-5.82-.02-1.06-.473-2.122-.778-3.172-.304-1.051-.882-2.067-.965-3.13-.132-1.75-.93-3.3-1.203-5-.074-.468-.375-.902-.55-1.359-.137-.359-.395-.757-.329-1.09.207-1.066-.378-1.902-.66-2.824-.152-.5-.261-1.011-.394-1.515-.043-.168-.043-.383-.149-.5-.738-.817-.972-1.778-.902-2.844.012-.172-.012-.387-.11-.516-.902-1.183-.722-2.61-.89-3.953-.008-.035.012-.082-.004-.105-.61-.97-.582-2.16-1.031-3.149-.828-1.828-1.238-3.726-1.524-5.683-.156-1.07-.129-2.172-.925-3.094-.278-.317-.196-.938-.293-1.418-.157-.75-.29-1.504-.493-2.238-.324-1.18-.808-2.325-1.027-3.52-.164-.91-.02-1.871-.016-2.808.004-.856-.187-1.625-.53-2.438-.759-1.781-1.575-3.61-1.876-5.496a50 50 0 0 0-.957-4.59c-.472-1.887-.601-3.863-.86-5.8-.046-.348.005-.704-.01-1.06-.02-.421.015-.863-.11-1.257a60 60 0 0 0-.73-2.14c-.16-.45-.372-2.044-.274-2.903m20.7 66.016c-.009.082-.017.164-.009.097l-.004-.07c-.093-.445-.168-.895-.277-1.336q-.92-3.762-1.848-7.523c-.015-.07-.011-.141-.02-.211-.187-1.805-.362-3.614-.566-5.418-.125-1.098-.441-2.184-.578-3.258-.218-1.742-.511-3.461-1.011-5.13-.426-1.433-.563-2.968-1.403-4.265-.054-.086-.078-.195-.105-.3-.328-1.32-.633-2.649-.989-3.965-.433-1.621-.933-3.227-1.359-4.856-.488-1.863-.926-3.738-1.375-5.61-.062-.269-.133-.581-.058-.831.222-.73.07-1.383-.22-2.055-.148-.348-.171-.75-.245-1.129-.274-1.449-.453-2.922-.844-4.336-.7-2.547-1.527-5.062-2.3-7.586-.145-.472-.329-.93-.458-1.406-.371-1.398-.703-2.805-1.094-4.195-.12-.426-.398-.801-.582-1.164-.582.054-.855.222-.726.757.27 1.125.554 2.25.758 3.387.144.79.164 1.606.234 2.406.05.594.078 1.188.148 1.778.23 1.91 1.067 3.726.86 5.71-.04.395.082.876.289 1.216.922 1.503.996 3.277 1.64 4.863.262.644.54 1.281.774 1.937.27.75.617 1.496.719 2.274.175 1.34.246 2.699.254 4.055.007 1.433.503 2.66 1.195 3.882.441.79.707 1.68.984 2.547.164.531.16 1.113.297 1.656.774 3.024 1.7 6.008 2.23 9.098.243 1.395.817 2.734 1.243 4.098.101.336.133.738.347.976.555.614.489 1.36.637 2.078.348 1.676.758 3.34 1.192 4.997.335 1.285.761 2.546 1.128 3.824.243.844.434 1.707.692 2.547.055.183.293.308.45.46m207.917-97.524c-.062-.414-.117-1.012-.246-1.594-.3-1.37-.723-2.722-.938-4.105-.23-1.477-.496-1.828-1.91-2.262-1.031-.316-2.004-.265-3.015.016-1.532.43-3.153-.328-4.676.34-.285.129-.598.21-.906.254-.793.109-1.61.336-2.375.23-.696-.094-1.313-.144-1.957.133-.657.289-1.313.367-2.059.25-.89-.14-1.832-.11-2.734-.024-.758.075-1.5.344-2.246.52-.887.203-1.79.351-2.657.613-1.203.363-2.566.121-3.644.969-.082.062-.274-.027-.414-.02-.692.032-1.422-.062-2.063.137-2.922.89-5.844 1.75-8.918 1.926-.379.02-.754.164-1.125.27-.605.171-1.199.367-1.804.527-1.418.375-2.817.758-4.313.847-1.484.086-2.902.77-4.441.727-.325-.008-.649.23-.98.332-.36.11-.724.23-1.095.281-2.433.332-4.894.54-7.304 1-1.617.309-3.16.985-4.746 1.461-.805.242-1.633.559-2.45.555-1.175-.004-2.293-.102-3.343.621-.442.305-1.043.438-1.594.516-1.164.156-2.418-.184-3.457.664-.067.054-.203.023-.309.043-2.035.422-4.238-.258-6.156.96-.187.122-.484.075-.73.11-1.86.25-3.723.508-5.586.742-.63.082-1.286.028-1.895.168-1.469.34-2.902.856-4.45.656-.226-.03-.472.125-.71.168q-1.493.271-2.992.512c-.38.063-.809-.012-1.133.14-.95.442-2.129.259-2.93 1.098-.097.106-.37.153-.504.094-1.363-.586-2.664.188-4.007.176-1.754-.016-3.254 1.387-5.114 1.07-.332-.058-.746-.012-1.035.145-1.25.691-2.629.363-3.937.562-.688.102-1.368.258-2.047.41-1.055.235-2.13.762-3.149.672-1.847-.164-3.504.438-5.23.801-.64.137-1.278.3-1.922.39-.621.087-1.266.036-1.879.15-1.414.257-2.852.35-4.2 1-.722.347-1.64.269-2.46.429-.746.148-1.547.12-2.129.789-.211.234-.613.371-.941.414-1.598.21-3.207.351-4.805.566-.36.047-.7.27-1.043.434-.785.375-1.547.82-2.36 1.125-.648.246-1.363.324-2.046.469-.278.058-.551.136-.828.148-1.606.078-3.223.082-4.82.235-.59.058-1.141.46-1.716.699-.254.105-.53.3-.773.27-1.309-.173-2.606-.489-3.879.179-.14.074-.348.027-.523.02-.973-.043-1.95-.122-2.922-.126-.371 0-.746.157-1.117.258-.778.219-1.543.508-2.336.653-1.067.195-2.164.246-3.235.433-.351.063-.71.313-.98.567-.34.32-.645.437-1.133.363-.645-.102-1.32-.074-1.98-.035-1.426.09-2.758.699-4.247.62-1.156-.062-2.261.544-3.464.657-1.168.113-2.32.3-3.508.274-1.016-.024-2.051-.012-3.04.18-1.171.226-2.304.62-3.53.53-.364-.027-.75.157-1.118.278-.773.25-1.515.523-2.379.324a2.16 2.16 0 0 0-1.336.152c-.941.454-1.836.965-2.949.707-.148-.035-.344.055-.504.122-2.043.859-4.082 1.726-6.12 2.59-.513.218-1.005.5-1.532.652-1.996.586-4.004 1.129-6.008 1.687-.555.156-.871.543-.797 1.09.125.977.278 1.961.543 2.906.625 2.235 1.36 4.442 1.973 6.676.316 1.149.441 2.352.707 3.512a433 433 0 0 0 1.805 7.465c.105.421.359.804.543 1.207.203.445.562.886.582 1.34.093 2.343.886 4.5 1.656 6.667.101.286.058.622.101.926.079.508.133 1.02.27 1.512.137.496.394.96.543 1.46.656 2.224 1.293 4.45 1.937 6.68.047.169.168.352.133.5-.242 1.063.324 1.907.68 2.817.254.656.523 1.344.57 2.027.121 1.786.672 3.5.68 5.313 0 1.633.34 3.27.586 4.894.183 1.18.449 2.348.703 3.512.223 1.024.484 2.043.723 3.063.058.238.21.53.125.71-.301.649-.07 1.235.125 1.82.203.63.511 1.227.675 1.868.286 1.106.485 2.238.739 3.352.047.199.183.375.273.566.195.406.406.809.574 1.23.493 1.22.852 2.473 1.137 3.766.356 1.633.953 3.215 1.41 4.824.2.707.305 1.438.457 2.157.106.48.207.96.324 1.437.559 2.203 1.141 4.402 1.676 6.61.29 1.19.469 2.406.766 3.593.336 1.324.746 2.63 1.133 3.942.222.738.476 1.464.703 2.203.55 1.8.57 3.754 1.535 5.441.059.106.023.274.016.41-.055 1.364.402 2.61.855 3.86.258.722.55 1.476.578 2.226.082 2.344.613 4.586 1.418 6.762.438 1.191 1.152 2.281 1.535 3.484.82 2.578 1.508 5.2 2.25 7.805.133.473.38.95.375 1.422-.023 1.96.89 3.66 1.453 5.457.153.48.473.734 1.063.55.867-.269 1.754-.491 2.644-.663.645-.125 1.313-.141 1.97-.192.206-.015.437.086.616.02 1.493-.535 2.961-1.125 4.457-1.649.688-.242 1.422-.351 2.121-.554.5-.145.985-.348 1.473-.524.36-.129.715-.355 1.07-.36 1.125-.01 2.23.02 3.23-.644.25-.164.606-.191.923-.226.62-.07 1.258-.067 1.875-.16.625-.09 1.23-.293 1.855-.391 1.653-.258 3.32-.453 4.969-.742.973-.168 1.918-.485 2.883-.696.582-.125 1.191-.117 1.762-.265 1.464-.371 2.902-.844 4.37-1.18 1.364-.316 2.758-.488 4.13-.762.445-.09.87-.46 1.293-.441 2.496.125 4.667-1.18 7.062-1.531 2.008-.293 3.969-.903 5.953-1.371.067-.02.145-.004.211-.024 1.566-.41 3.137-.812 4.7-1.246.706-.195 1.386-.48 2.097-.672 1.937-.523 4.055-.426 5.781-1.687.137-.098.32-.196.48-.196 1.071.012 2.075-.68 3.184-.277.18.063.43-.008.625-.074.934-.324 1.848-.695 2.79-.996.562-.18 1.179-.438 1.726-.356 1.27.192 2.351-.324 3.504-.632a97 97 0 0 1 3.957-.97c.687-.152 1.402-.187 2.078-.374 2.14-.586 4.262-1.227 6.394-1.836 1.153-.332 2.31-.664 3.473-.957 1.824-.461 3.684-.797 5.38-1.688.265-.144.62-.12.929-.183.761-.149 1.597-.149 2.261-.485 1.97-.992 4.215-1.039 6.204-2.035 1.484-.75 3.214-1.012 4.828-1.515 2.187-.688 4.36-1.434 6.562-2.086 2.125-.633 4.285-1.16 6.422-1.762 1.254-.356 2.496-.758 3.738-1.152 1.25-.395 2.684.007 3.825-.887.168-.13.48-.059.722-.098a94 94 0 0 0 2.371-.433c.614-.122 1.223-.274 1.832-.407.204-.043.422-.03.621-.086a237 237 0 0 0 3.141-.902c2.086-.613 4.164-1.266 6.262-1.84 1.113-.305 2.23-.687 3.336-.91 1.238-.25 2.383-.789 3.633-.96 1.351-.185 2.554-.95 3.988-.907.703.02 1.48-.274 2.11-.63 1.417-.796 2.995-.995 4.519-1.405.57-.157 1.156-.27 1.73-.418.711-.188 1.41-.414 2.125-.586.996-.235 2.02-.375 3-.656 1.91-.551 3.738-1.32 5.711-1.72 2.3-.464 4.54-1.245 6.813-1.843 1.328-.352 2.683-.594 4.015-.934.578-.144 1.117-.441 1.692-.617 2.593-.789 5.199-1.535 7.789-2.344 1.344-.417 2.648-.96 3.992-1.382 1.07-.34 1.098-.297.992-1.407-.031-.308-.176-.601-.238-.91-.145-.722-.309-1.445-.39-2.175-.122-1.07-.18-2.145-.274-3.22-.012-.132-.102-.261-.137-.398-.43-1.59-1.008-3.144-.8-4.851.042-.336-.235-.719-.387-1.07-.125-.286-.348-.544-.414-.84a48 48 0 0 1-.512-2.672c-.2-1.145-.528-2.29-.528-3.434 0-1.414-.3-2.7-.832-3.988-.257-.617-.453-1.39-.312-2.008.16-.703.39-1.309.078-2.031-.144-.332-.043-.762-.078-1.149-.035-.41-.067-.824-.164-1.222-.227-.961-.692-1.914-.684-2.868.008-1.082-.281-2.07-.46-3.097-.2-1.14-.606-2.309-.485-3.418.113-1.024-.207-1.86-.383-2.777-.168-.899-.258-1.813-.355-2.72-.121-1.155-.133-2.327-.344-3.464-.238-1.281-.688-2.516-.965-3.79-.207-.968-.281-1.968-.426-2.948-.086-.59-.21-1.172-.3-1.762-.083-.55-.192-1.11-.2-1.668-.015-.996-.082-1.922-.652-2.832-.316-.504-.473-1.371-.258-1.89.43-1.048.145-1.915-.18-2.852-.156-.457-.226-.95-.293-1.43-.171-1.25-.234-2.523-.492-3.758-.355-1.699-1.168-3.316-.886-5.125.015-.101-.02-.21-.04-.316-.242-1.098-.421-2.211-.738-3.285-.406-1.371-1.043-2.64-.742-4.184.176-.89-.121-1.875-.223-2.812-.03-.274-.132-.54-.195-.809-.226-.988-.476-1.969-.672-2.965-.262-1.308-.469-2.629-.722-3.937-.133-.692-.32-1.371-.47-2.059-.179-.824-.152-1.762-.55-2.453-.746-1.297-1.012-2.688-1.32-4.098-.184-.82-.364-1.664-.703-2.43-.57-1.285-1.286-2.495-1.43-3.945-.047-.472-.36-.914-.52-1.379-.203-.59-.37-1.191-.562-1.785-.164-.504-.2-1.152-.54-1.46-.534-.489-.628-.973-.468-1.786m-107.5 180.524c-2.64.535-5.191 1.043-7.742 1.57-.547.113-1.078.305-1.621.437-1.426.356-2.86.688-4.285 1.055-1.215.316-2.418.668-3.63.996-.44.117-.917.145-1.331.324-1.754.762-3.536 1.282-5.489 1.301-1.199.012-2.37.485-3.593 1.004.273.336.406.606.62.754 1.47.988 2.958 1.957 4.438 2.93.598.39 1.219.75 1.793 1.172.781.574 1.528 1.199 2.29 1.796.163.13.327.27.511.375 1.105.625 2.023 1.461 2.84 2.426.273.32.55.668.89.903 1.348.925 2.762 1.75 3.782 3.078.12.156.328.261.515.343.914.407 1.739.887 2.23 1.829.223.43.552.843.927 1.148 1.23.996 2.5 1.941 3.761 2.906.598-.703 1.34-.941 2.25-.898.543.027 1.125-.113 1.64-.309.794-.308 1.544-.648 2.438-.387.262.075.602-.09.899-.164.742-.18 1.48-.386 2.226-.554.407-.094.836-.094 1.23-.207.813-.23 1.595-.59 2.415-.75.64-.125 1.34.066 1.984-.035 2.946-.48 5.883-1.008 8.82-1.528.274-.05.54-.172.813-.23.754-.157 1.504-.336 2.266-.442.652-.09 1.32-.039 1.969-.132 2.32-.348 4.636-.72 6.953-1.106.617-.105 1.222-.289 1.836-.445 1.328-.336 2.64-.844 3.992-.98 2.527-.259 4.867-1.137 7.219-1.93 1.425-.485 2.82-1.055 4.273-1.473 1.55-.445 3.07-1.024 4.566-1.629 1.371-.55 2.684-1.238 4.043-1.82.903-.387 1.856-.66 2.766-1.035.789-.325.867-.7.266-1.227a38 38 0 0 0-2.227-1.797 342 342 0 0 0-5.621-4.152c-1.574-1.13-3.188-2.203-4.781-3.305-.465-.324-.914-.668-1.375-.992-.895-.625-1.79-1.25-2.692-1.863-.347-.243-.742-.418-1.062-.688-1.434-1.215-2.985-2.223-4.625-3.152-1.133-.637-1.946-.602-3.02-.067-.89.446-1.898.672-2.875.907-1.14.277-2.351.324-3.445.707-1.828.632-3.684.886-5.594.859-.48-.008-.836.055-.933.613-.043.235-.215.45-.258.688-.168.906-.82 1.672-.574 2.707.261 1.086-.055 1.62-1.07 2.07-1.614.711-3.235 1.41-4.884 2.027-.816.305-1.699.418-2.554.61-1.063.234-2.133.45-3.196.687-.75.168-1.492.375-2.242.536-1.406.296-2.863.382-3.957 1.554-.554.602-1.328.797-2.125.285-.172-.113-.422-.289-.57-.238-1.035.332-1.535-.484-2.2-.957-.554-.398-.679-.918-.35-1.484.796-1.368.26-2.914.62-4.34.02-.07-.094-.176-.16-.281m4.273 2.312c.864.36 1.52.152 2.192-.078.7-.238 1.414-.426 2.129-.602 1.437-.347 2.887-.632 4.312-1.02 1.766-.476 3.512-1.042 5.274-1.542.71-.2.754-.3.55-1.035-.156-.563-.292-1.172-.253-1.746a61 61 0 0 1 .496-4.621c.117-.79.5-1.543.605-2.336.336-2.602 1.055-5.172.809-7.836-.016-.141-.043-.286-.024-.422.395-2.68.828-5.356 1.176-8.043.094-.73-.062-1.496-.11-2.363-4.648 1.562-9.34 2.187-13.542 3.82 0 .992.043 1.762-.012 2.527-.043.63-.352 1.274-.27 1.875.215 1.555-.156 3.012-.437 4.504-.191 1.016-.336 2.02.074 3.113.258.68.035 1.707-.308 2.41-.477.973-.696 1.954-.825 2.989-.101.832-.191 1.664-.3 2.492-.207 1.566-.43 3.129-.63 4.695-.132 1.075-.027 2.203-.906 3.22m-104.207-84.3c-.078.003-.16.011-.238.015.238 1.437.395 2.894.75 4.3.285 1.141.82 2.216 1.23 3.325.083.226.06.492.126.726.492 1.676.05 3.477 1.03 5.153.735 1.258.829 2.883 1.212 4.344.195.746.414 1.484.601 2.234.106.422.157.855.258 1.277q.31 1.324.656 2.64c.07.267.22.513.301.782.176.594.332 1.2.504 1.797.086.305.297.613.262.898-.145 1.223.437 2.258.773 3.36.317 1.043.797 2.09.844 3.152.059 1.25.363 2.348.953 3.41.153.278.317.57.375.871.227 1.133.383 2.274.617 3.399.184.86.465 1.695.672 2.547.301 1.23.578 2.46.86 3.695.246 1.063.316 2.215.78 3.168.388.793.575 1.555.68 2.39.06.446.223.876.329 1.313.074.305.113.617.195.918.125.453.207.938.43 1.348.875 1.625 1.515 3.32 1.82 5.148.11.645.352 1.266.574 1.887.211.59.492 1.156.715 1.742.16.422.215.887.414 1.281.805 1.594.973 3.32 1.106 5.051.054.715.23.902 1.23.926-.176-.84-.312-1.664-.527-2.469-.293-1.082-.672-2.14-.957-3.222-.223-.848-.274-1.747-.555-2.567-.688-1.996-1.504-3.941-2.195-5.933-.782-2.25-1.5-4.52-2.211-6.793-.52-1.664-.582-3.442-1.328-5.059-.286-.625-.41-1.332-.563-2.012-.453-2.035-.863-4.078-1.332-6.105-.234-1.024-.633-2.012-.809-3.04-.214-1.238-.289-2.5-.91-3.636-.132-.242-.199-.527-.265-.8-.297-1.15-.547-2.305-.875-3.442-.465-1.621-1.078-3.203-1.453-4.844-.317-1.39-.282-2.867-1.082-4.137-.067-.101-.036-.27-.047-.41-.055-.504-.082-1.015-.164-1.515a60 60 0 0 0-.47-2.364c-.128-.62-.28-1.234-.413-1.851a59 59 0 0 1-.414-2.04c-.059-.308-.012-.64-.102-.933-.61-1.902-1.23-3.805-1.875-5.695-.484-1.418-1.004-2.824-1.512-4.23m0 0"/></g><g clip-path="url(#c)"><path d="M396.176 487.59c-.203.308-.535.543-.844.765-1.5 1.07-3.102 1.91-4.879 2.465-.84.266-1.598.832-2.351 1.32-1.461.938-2.88 1.95-4.352 2.872-.691.43-1.484.695-2.215 1.074-.746.383-1.469.805-2.2 1.21-.124.071-.245.188-.374.196-1.457.09-2.652.914-3.953 1.438-.504.199-.953.57-1.38.918-.788.648-1.483 1.359-2.66 1.332-.843-.024-1.644.297-2.284.96-.704.723-1.512 1.258-2.622 1.153-.324-.027-.73.11-.996.309-1.664 1.218-3.691 1.687-5.449 2.71-.457.266-.93.512-1.355.829-.606.453-1.223.785-2.012.855-.379.035-.867.29-1.07.602-.618.945-1.61.89-2.512 1.113-.356.09-.742.148-1.04.344-.96.625-1.948 1.078-3.136.949-1.293-.14-2.293.34-3.066 1.406-.27.367-.719.703-1.153.84-1.367.426-2.746.848-4.226.426-.442-.125-.961.011-1.445.027-.168.004-.348.04-.504-.004-.59-.176-1.2-.32-1.758-.574-1.688-.766-3.402-1.484-4.684-2.922-.386-.437-.972-.687-1.402-1.094-1.488-1.39-2.984-2.777-4.406-4.238-.754-.773-1.297-1.75-2.043-2.535-1.25-1.316-2.024-3.043-3.657-4.047-.535-.332-.73-1.168-1.18-1.691-1.202-1.403-1.648-3.328-3.261-4.477-.809-.574-1.344-1.527-2.023-2.289-.7-.785-1.426-1.547-2.141-2.32-.29-.309-.613-.598-.852-.942-1.105-1.605-2.402-3.015-3.863-4.316-.719-.64-1.316-1.496-1.762-2.36-.683-1.328-1.441-2.558-2.601-3.527-.293-.242-.524-.578-.735-.902-1.359-2.086-3.035-3.88-4.972-5.434-.246-.199-.438-.46-.664-.683-1.621-1.59-1.418-3.196-.102-4.922 1.016-1.336 2.2-2.594 3.504-3.64 1.074-.864 2.438-1.36 3.676-2.016.156-.082.36-.106.476-.22 1.247-1.23 2.942-1.652 4.399-2.491.758-.438 1.46-.973 2.238-1.372.707-.363 1.488-.582 2.219-.91.414-.183.766-.515 1.183-.675 1.41-.54 2.84-1.028 4.258-1.543.227-.086.438-.215.657-.325.316-.156.617-.355.949-.464 1.664-.547 3.344-1.04 4.996-1.61.992-.344 1.957-.785 2.926-1.207a370 370 0 0 0 5.691-2.527c1.652-.758 3.39-1.305 4.95-2.297.933-.598 2.081-.86 3.14-1.254.492-.187 1-.344 1.504-.492 1.469-.434 2.93-.918 4.422-1.25.773-.176 1.61-.078 2.414-.09.355-.004.715.082 1.058.043 2.336-.262 4.188.742 5.95 2.125.816.64 1.78 1.09 2.68 1.625.062.035.136.05.19.094a993 993 0 0 1 3.977 3.113c.188.148.328.387.54.465 1.94.722 3.581 1.953 5.3 3.062.914.59 1.852 1.149 2.79 1.703.175.102.394.145.597.184 1.484.29 2.668 1.188 3.926 1.93.332.199.691.351 1.02.554.35.22.698.45 1.019.72.746.628 1.406 1.382 2.222 1.894 1.063.668 2.008 1.425 2.805 2.382.137.165.266.372.445.45 1.399.61 1.93 1.992 2.801 3.074.219.273.438.55.68.805.754.793 1.527 1.562 2.277 2.355 1.07 1.129 2.152 2.242 3.176 3.406 1.047 1.188 2.015 2.45 3.055 3.645.777.898 1.32 1.887 1.703 3.015.18.532.707.946 1.082 1.41.285.356.863 2.614.863 3.387 0 3.66-2.633 4.664-3.574 6.106m-1.363-6.453c-.063-.754-.813-1.246-1.149-1.942-1.344-2.777-3.367-5-5.621-7.047-.363-.328-.684-.707-.996-1.082-.453-.539-.86-1.113-1.324-1.64-1.016-1.168-2.067-2.313-3.09-3.477-.504-.578-.93-1.238-1.488-1.758-1.16-1.066-2.38-2.066-3.586-3.082-.293-.242-.606-.507-.957-.632-.997-.352-1.774-.977-2.493-1.73-.457-.477-.976-.927-1.55-1.247-1.375-.77-2.817-1.418-4.192-2.195-1.062-.598-2.055-1.325-3.082-1.98-.941-.602-1.933-1.134-2.824-1.802-1.012-.753-1.93-1.628-2.899-2.441-.617-.52-1.23-1.043-1.875-1.52-.847-.625-1.69-1.265-2.601-1.792-1.445-.848-2.707-2.063-4.473-2.31-1.101-.155-2.175-.476-3.144.509-.344.351-1.004.41-1.531.562-1.786.524-3.625.899-5.34 1.586-.985.399-1.914 1.004-2.899 1.477-.703.34-1.355.832-2.12 1.11-1.352.483-2.724.929-4.028 1.523-1.996.91-4.031 1.66-6.188 2.082-.336.062-.652.257-.96.425-.65.348-1.255.825-1.946 1.059-1.14.383-2.094 1.25-3.394 1.258-.387 0-.774.312-1.16.48-1.184.524-2.376 1.04-3.555 1.567-.512.23-1.024.464-1.508.742-.902.52-1.79 1.078-2.684 1.613-.547.324-1.082.668-1.644.957-1.313.68-2.625 1.363-3.965 1.988-1.09.512-2.176.973-2.91 2.016-.219.313-.66.469-1.012.68-.285.172-.812.293-.828.48-.031.309.191.711.426.969 1.406 1.555 3.183 2.762 4.175 4.719.309.613.946 1.043.754 1.863-.03.137.075.352.184.469.8.836 1.605 1.672 2.437 2.48 1.004.977 2.27 1.66 3.051 2.895.504.789 1.094 1.57 1.805 2.16.797.664 1.621 1.23 1.89 2.312.043.176.25.352.426.446 1.11.597 1.809 1.547 2.407 2.61.168.3.48.515.73.765.82.82 1.637 1.648 2.473 2.453.976.945 1.547 2.23 2.851 2.926.824.437 1.418 1.304 2.114 1.98.023.024.035.063.054.094.336.648.778 1.265.985 1.953.636 2.094 2.734 3.043 3.718 4.86.086.156.34.269.536.316.582.129.87.52 1.125 1.02.457.894 1.105 1.59 2.046 2.054.579.285 1.118.762 1.52 1.273.922 1.176 2.289 1.559 3.543 2.149.172.082.418 0 .621.027.691.098 1.441.067 2.047.348.812.375 1.496.297 2.2-.113 1-.582 1.98-1.196 2.964-1.801 1.289-.793 2.27-2.207 4.05-2.016.087.008.188-.09.274-.148 1.094-.715 2.192-1.426 3.274-2.153 2.343-1.582 4.77-2.988 7.511-3.793.965-.28 1.864-.668 2.739-1.261 1.351-.922 2.914-1.54 4.386-2.285.715-.36 1.434-.715 2.149-1.075.433-.218.851-.59 1.3-.632 1.192-.118 2.063-.848 3.055-1.352.836-.426 1.672-.879 2.551-1.195.64-.23 1.262-.368 1.672-1 .168-.254.578-.36.887-.516 1.898-.965 4.035-1.5 5.601-3.074.164-.168.422-.262.649-.344 1.84-.687 3.68-1.375 5.527-2.035.683-.242 1.32-.496 1.613-1.238.188-.477.758-.797.695-1.547m0 0"/></g><path d="M109.586 519.195c-.137.938-.352 1.875-.383 2.813-.027.785-.332 1.285-1.008 1.582-.547.238-1.101.465-1.672.625-.55.152-.945-.133-1.246-.59-.836-1.273-.738-2.625-.257-3.965a71 71 0 0 1 1.714-4.316c.25-.57.153-.965-.18-1.457-.468-.7-.917-1.438-1.21-2.223-.516-1.394.16-4.41 1.574-5.418 1.469-1.043 2.894-2.148 4.668-2.66.297-.086.543-.356.84-.441a13.6 13.6 0 0 1 1.883-.442c.449-.066.918-.055 1.37-.004 1.173.125 2.22-.183 3.235-.746.328-.18.754-.277 1.125-.25 1.586.106 3.04-.504 4.555-.765.136-.024.293-.122.41-.083 1.781.567 3.383-.476 5.09-.558 1.894-.09 3.789-.192 5.672-.395.863-.093 1.718-.386 2.547-.683 1.222-.438 2.363-.918 3.777-.656.855.156 1.906-.243 2.742-.645.902-.434 1.766-.383 2.684-.336.48.023.976.023 1.445-.059 1.7-.293 3.387-.636 5.086-.941.656-.117 1.328-.176 1.988-.281 1.219-.192 2.426-.461 3.649-.578 1.093-.106 2.132-.301 3.136-.762.348-.16.82-.14 1.22-.09 1.042.137 2.058.078 3.007-.394.851-.426 1.683-.54 2.64-.293.54.136 1.176-.075 1.762-.18 1.215-.219 2.414-.512 3.633-.692.613-.085 1.254.016 1.883.032 1.472.039 2.824-.512 4.222-.852.66-.16 1.391-.015 2.083-.066.835-.063 1.667-.176 2.5-.29 1.48-.206 2.882-.902 4.398-.812.633.035 1.14.024 1.672-.363.32-.234.785-.297 1.2-.367.995-.164 2.026-.192 2.995-.453 1.524-.41 3.016-.871 4.63-.739 1.67.133 3.222-.504 4.827-.797 2.805-.515 5.555-1.343 8.453-1.332.75.004 1.493-.37 2.254-.488 1.95-.3 3.906-.539 5.856-.832 1.18-.18 2.34-.34 3.547-.351 1.359-.008 2.71-.434 4.07-.625 2.047-.286 4.074-.707 6.18-.438.992.129 2.035-.059 3.043-.195 1.64-.227 3.257-.602 4.902-.778 1.918-.203 3.851-.242 5.781-.378.656-.047 1.305-.204 1.957-.27 1.953-.191 3.906-.375 5.86-.54.945-.077 1.898-.073 2.843-.148 1.727-.136 3.446-.293 5.168-.453a8 8 0 0 0 1.352-.226c2.34-.637 4.691-1.242 7.004-1.961 3.55-1.106 7.207-1.617 10.867-2.125 1.012-.14 2.02-.5 3.016-.465.828.027 1.793.29 2.418.793.94.762 1.66 1.809 2.43 2.77.253.32.386.746.554 1.132.203.48.336.996.586 1.446.918 1.652 1.922 3.257 2.805 4.925.824 1.555 1.484 3.196 2.316 4.75.683 1.282 1.027 2.653 1.387 4.04.214.84.593 1.64.96 2.433.172.367.434.86.762.965.926.297 1.012 1.031 1.067 1.754.132 1.77.687 3.41 1.297 5.058.433 1.176 1.207 2.247 1.183 3.579-.004.199.067.44.184.601.945 1.262 1.078 2.805 1.508 4.25.101.332.293.637.418.965.648 1.715 1.367 3.406 1.91 5.152.62 1.989-1.082 3.785-3.078 3.89-.286.017-.582-.167-.875-.257-1.704 1.137-3.68 1.352-5.622 1.692-1.453.253-2.914.414-4.289 1.07-1.039.492-2.207.719-3.316 1.062-.172.051-.344.102-.52.114-1.222.082-2.449.109-3.664.242-1.187.133-2.37.344-3.546.566-1.907.356-3.84.395-5.758.606-1.813.199-3.606.562-5.41.847-.555.086-1.137.297-1.668.207-1.426-.246-2.72.325-4.07.512-1.602.223-3.208.445-4.79.781-2.3.489-4.578 1.102-6.879 1.61a37 37 0 0 1-3.652.597c-1.254.141-2.523.18-3.785.266-.14.012-.305.008-.41.082-1.008.676-2.157.516-3.278.625-.855.082-1.703.367-2.535.633-1.789.574-3.652.629-5.488.87-.867.114-1.758.075-2.613.243-.57.11-1.137.39-1.633.711-.758.488-1.543.36-2.348.3-.414-.027-.933-.124-1.23.071-.649.434-1.344.34-2.032.426-.554.074-1.175.027-1.64.277-1.004.535-2.059.274-3.082.407-1.317.175-2.617.472-3.93.699q-2.175.375-4.355.715c-.38.062-.766.046-1.145.101-.687.102-1.371.246-2.062.344-.934.133-1.868.238-2.805.355-.242.032-.492.043-.727.102-1.363.36-2.703.836-4.16.664-.289-.035-.601.191-.91.254-1.176.242-2.223.965-3.527.805-.547-.067-1.274.109-1.696.449-1.05.847-2.246.625-3.414.758-.992.109-2.027.113-2.914.714-.183.122-.465.133-.703.149-1.035.058-2.074.055-3.101.164-1.227.129-2.438.351-3.66.527-.45.067-.903.106-1.352.172-.586.086-1.164.188-1.75.281-1.035.168-2.07.465-3.11.47-1.195.003-2.246.46-3.347.753-1.016.274-1.977.797-3 .965-2.508.406-5.028.746-7.555.96-.953.083-1.836.134-2.746.513-.691.289-1.523.3-2.332.34-2.164.101-4.379.093-6.453.94-.336.138-.785.153-1.145.067-1.855-.437-3.644-.004-5.449.32-.578.106-1.176.09-1.762.153-.898.101-1.797.203-2.687.344-1.805.277-3.617.543-5.41.894-1 .195-1.961.582-2.95.832-.816.207-1.523-.02-2.085-.68-.696-.808-1.258-1.648-1.563-2.718-.328-1.137-.914-2.207-1.43-3.282-.488-1.015-1.03-2.003-1.55-3.003-.164-.313-.34-.618-.496-.93-.415-.813-.79-1.649-1.239-2.445-.683-1.223-1.449-2.407-2.117-3.637-.512-.95-1.324-1.719-1.52-2.863-.09-.528-.492-1.008-.785-1.485-.62-1.02-1.312-1.996-1.886-3.039-.336-.61-.489-1.312-.754-1.96-.102-.255-.215-.575-.422-.7-1.395-.84-2.164-2.172-2.89-3.55a3.8 3.8 0 0 0-.626-.848c-1.172-1.223-2.324-2.45-2.691-4.192-.028-.12-.13-.226-.195-.34zm7.508 2.563c.21.617.347 1.277.652 1.844 1.082 1.992 2.227 3.957 3.348 5.93.031.058.086.132.144.148.184.05.418.156.547.086.113-.063.207-.383.145-.508a15 15 0 0 0-.97-1.746c-.991-1.48-2.015-2.938-3.022-4.407-.297-.433-.579-.878-.868-1.32-.683-1.293-1.41-2.566-2.047-3.883-.918-1.89-2.359-3.515-2.804-5.644-.063-.285-.29-.574-.512-.785-.57-.54-1.184-1.032-1.789-1.555-.715 1.059-.75 2.121.059 3.184.277.367.527.753.808 1.113a443 443 0 0 0 2.676 3.39 340 340 0 0 0 3.184 3.918c.097.122.296.16.449.235m92.566 7.984c-.465.086-1.074.196-1.683.317-1.274.25-2.543.543-3.825.75-1.593.254-3.257.25-4.797.691-2.632.754-5.355.785-8.02 1.285-2.175.414-4.394.59-6.593.906-.441.063-.851.352-1.293.418-1.39.207-2.793.32-4.183.547-1.34.219-2.735.117-4.032.668-.402.172-.91.074-1.359.145-.512.078-1.082.093-1.508.336-1.105.629-2.304.78-3.52.941-.324.043-.636.156-.964.234.449 1.055.832 1.993 1.246 2.91.547 1.212 1.2 2.383 1.664 3.626.273.738.762.937 1.363.82 2.04-.402 4.063-.875 6.09-1.34 1.54-.355 3.07-.766 4.617-1.09 1.34-.281 2.703-.472 4.055-.71 1.039-.18 2.07-.391 3.105-.56.309-.05.641.044.946-.011 2.203-.422 4.394-.887 6.601-1.297 1.067-.195 2.149-.375 3.23-.437 1.372-.078 2.735-.059 4.005-.735.457-.242 1.011-.324 1.535-.402 1.078-.168 2.168-.25 3.242-.434.953-.164 1.89-.414 2.738-.605-.886-2.324-1.726-4.535-2.66-6.973m51.774-20.465c-1.497.45-2.977 1.008-4.512 1.32-2.414.497-4.856.872-7.3 1.216-1.477.207-2.985.195-4.466.382-1.773.23-3.531.567-5.437.88.297.581.523 1.214.906 1.734.828 1.125 1.34 2.382 1.848 3.668.367.937.93 1.796 1.414 2.687.36.656.898.617 1.543.461 1.086-.27 2.199-.445 3.3-.664.461-.09.918-.18 1.497-.297-.36-.5-.66-.812-.836-1.184-.348-.722-.696-1.46-.895-2.23-.09-.344.047-.969.3-1.145 1.563-1.07 3.274-1.789 5.216-1.812 1.125-.012 2.25-.023 3.37-.098.934-.058 1.606.266 1.923 1.137.168.457.187.965.32 1.441.238.856.516 1.707.754 2.489 2.262-.594 4.32-1.137 6.375-1.676-.418-.766-.762-1.59-1.274-2.29-.914-1.25-1.949-2.413-2.246-4.007-.027-.152-.203-.281-.32-.41-.52-.563-1.043-1.125-1.48-1.602m31.187.961c2.043 4.657 4.004 9.125 5.95 13.555 2.16-.41 4.288-.816 6.429-1.227.156-.879.012-1.597-.344-2.324-.996-2.054-2-4.11-2.91-6.199-.543-1.254-.84-2.613-1.394-3.86-.239-.542-.801-1.222-1.301-1.3-.711-.11-1.5.27-2.25.457-1.051.262-2.09.547-3.14.8-.294.07-.606.06-1.04.098m-127.707 27.387c-.383.105-.726.297-1.055.277-1.695-.101-3.25.47-4.836.91-.332.094-.75.184-1.035.06-1.39-.614-2.57.187-3.785.355.637 1.433 1.227 2.777 1.828 4.113.086.187.235.351.352.527.383.582.816 1.14 1.133 1.762.285.562.644.789 1.261.672.621-.117 1.246-.211 1.875-.297 1.114-.152 2.239-.25 3.34-.461.957-.184 1.895-.477 2.832-.758.285-.086.531-.293.836-.465zm119.785-18.61c-1.254.2-2.441.22-3.5.594-1.449.516-2.922.368-4.379.489-1.718.144-3.433.246-5.093.996.492.824 1.136 1.547 1.375 2.386.3 1.075.87 1.903 1.578 2.692.105.121.277.27.418.265 1.05-.039 2.129.004 3.156-.195 2.555-.5 5.066-1.219 7.707-1.176.55.012.723-.398.531-.933-.508-1.418-.984-2.844-1.476-4.266-.114-.324-.239-.64-.317-.851m-157.465-5.5c-1.12-2.187-2.105-4.109-3.058-5.964-.489 0-.88.074-1.23-.016-.915-.23-1.801-.25-2.696.082-1.523.57-3.074.723-4.633.156-.515-.187-.91-.214-1.316.258-.406.469-.64.864-.317 1.504.246.492.282 1.09.489 1.613a108 108 0 0 0 1.547 3.692c.175.398.457.504.945.375 1.086-.285 2.195-.48 3.305-.656 2.222-.356 4.453-.668 6.964-1.043m118.649 18.215c-.528-1.19-.969-2.289-1.488-3.351-.415-.848-.942-1.64-1.375-2.484-.32-.618-.637-.79-1.247-.516-1.601.723-3.214 1.226-5.011.777-.41-.101-.91.051-1.348.164-.562.14-1.101.364-1.824.61 1.285 1.265.906 3.199 2.094 4.484.168.18.16.531.203.805.136.922.406 1.176 1.32 1.047.512-.075.996-.309 1.496-.461.469-.145.93-.36 1.406-.403 1.582-.144 3.172-.207 4.754-.336.325-.027.633-.207 1.02-.336M145.03 547.63c-.48-1.395-.96-2.809-1.465-4.215-.195-.555-.445-1.094-.695-1.703-1.187.14-2.305.246-3.414.406-1.562.23-2.941 1.16-4.562 1.203-.47.012-.934.157-1.477.254.348.762.879 1.422.906 2.106.059 1.242.766 2.172 1.16 3.246.18.496.504.676.985.52.765-.25 1.55-.477 2.277-.825.766-.371 1.484-.46 2.344-.308 1.265.226 2.594.421 3.941-.684m68.063-18.3c.113.222.18.343.234.468.863 1.953 2.195 3.707 2.48 5.902.067.516.395.715.915.59.617-.148 1.25-.242 1.855-.422 1.824-.547 3.875-.344 5.516-1.71-.137-.259-.34-.555-.442-.88-.312-.976-.953-1.816-.714-2.996.226-1.144-.458-1.715-1.665-1.68-.847.02-1.707.223-2.53.118-1.903-.242-3.716.054-5.65.61m10.972-7.556c.391.743.86 1.434 1.137 2.196.356.972.559 1.234 1.594 1.054 1.594-.277 3.176-.64 4.758-.972 1.312-.278 2.61-.645 3.933-.824 1.532-.204 3.082-.239 4.625-.368.192-.015.371-.14.649-.254-.59-1.601-1.34-3.035-2.356-4.37-.383.144-.719.25-1.035.398-.96.437-1.871 1.047-2.879 1.308-1.699.442-3.457.68-5.195.973-1.73.293-3.465.543-5.2.816-.023 0-.038.051-.03.043m66.11-34.925c-.223-.414-.313-.739-.52-.95-.633-.636-1.12-1.324-1.36-2.214-.093-.352-.558-.598-.839-.903-.273-.297-.66-.566-.773-.922-.247-.785-.696-.886-1.375-.636-.266.097-.536.175-.809.257-.812.243-1.57.184-2.36-.199-.386-.183-.98-.195-1.386-.039-.777.301-1.488.778-2.238 1.192.039.91.562 1.562 1.191 2.148.879.82 1.793 1.606 2.106 2.848.039.152.195.273.16.226 1.043-.156 1.925-.34 2.816-.418 1.719-.156 3.441-.254 5.387-.39m-156.88 35.422c-3.616.78-7.093 1.535-10.675 2.308.453 1.246.883 2.399 1.633 3.442.414.578.785.789 1.484.601q2.485-.657 5.004-1.191c1.262-.274 2.547-.453 3.82-.688.118-.02.215-.144.32-.215zm-3.87 14.16c.094.683 2.281 4.414 3.05 5.164.36-.38.684-.801 1.087-1.121.343-.278.894-.711 1.152-.602 1.043.438 2.035-.012 3.043.016.996.031 2.004-.157 3.117-.258l-1.57-4.492c-1.957.058-3.84.117-5.72.176-.14.003-.288.011-.42.05-1.247.352-2.493.711-3.74 1.067m126.344-6.598c-1.22-1.965-2.829-3.535-3.282-5.832-2.347.172-4.629.336-6.968.508.27.476.503.894.746 1.308.265.45.48.938.816 1.325a8.1 8.1 0 0 1 1.488 2.48c.543 1.453.793 1.563 1.95 1.34 1.687-.32 3.359-.719 5.25-1.129m-129.676 1.152c.469.703.941 1.313 1.304 1.985.36.664.782 1.066 1.586.906.38-.074.778-.059 1.149-.152 1.73-.446 3.562-.442 5.219-1.2.183-.082.418-.043.628-.078 1.485-.258 2.973-.515 4.458-.793.222-.043.43-.183.675-.289l-1.277-2.441c-4.57.687-9.078 1.363-13.742 2.062m23.144 16.668c1.719-.703 3.582-.148 5.36-1.148-1-2.192-1.989-4.352-2.95-6.445l-5.996.964c.711 2.465 2.746 4.122 3.586 6.63m26.532-42.007c1.12.253 3.507-.09 5.523-.797-1.32-2.04-1.082-4.453-1.707-6.79-2.27-.199-4.277.645-6.36 1.7.172.351.258.71.477.945 1.293 1.379 1.758 3.094 2.067 4.942m61.695-9.852-2.278-6.055c-2.199-.199-4.222-.074-6.253.625.968 1.93 1.91 3.844 2.914 5.727.144.277.613.59.886.55 1.567-.222 3.118-.546 4.73-.847m-102.453 16.14c-.223-.535-.395-.956-.578-1.37-.196-.45-.407-.895-.618-1.336-.34-.723-.746-1.418-1.015-2.164-.367-1.012-.953-1.481-1.867-1.239-1.52.399-3.024.848-4.762 1.344.594.871 1.129 1.633 1.637 2.414q.563.868 1.062 1.777c.152.274.203.602.332.891.25.559.582.895 1.305.707 1.457-.379 2.933-.672 4.504-1.023m-.313-6.167c1.223 1.261 1.848 2.656 2.395 4.109.23.621.484 1.438.972 1.691.454.239 1.23-.175 1.871-.27 1.278-.187 2.56-.355 4.02-.554-1.23-2.07-2.414-4.07-3.586-6.047-1.777.594-3.762-.066-5.672 1.07m93.91-6.602c-1.648.926-3.453 1.461-5.336 1.828-.82.16-1.578.649-2.351.985.383.898.793 1.687 1.047 2.523.203.68.52.73 1.09.5.32-.133.707-.285 1.02-.219 1.698.356 3.26-.445 4.91-.5.796-.027 1.585-.234 2.5-.375zm4.305 34.215c-.387-2.145-.75-4.18-1.129-6.305-2.07 1.078-4.262.793-6.418 1.063.063.3.086.468.133.633.488 1.68 1.637 3.12 1.773 4.94.016.185.532.49.782.466 1.492-.16 2.972-.39 4.453-.617.191-.028.37-.164.406-.18m-31.281-38.8c-1.922.386-3.574 1.421-5.64 1.015 1.019 2.183 1.956 4.203 2.987 6.414 1.418-.328 2.973-.688 4.465-1.035.086-2.403-1.222-4.227-1.812-6.395m-76.348 21.538c-2.469.649-5.11.426-7.746 1.238.809 1.043 1.512 1.946 2.207 2.856.125.168.227.355.324.543.711 1.328 1.051 1.426 2.407.789.921-.43 1.828-.856 2.91-.809.582.024 1.18-.273 1.894-.457-.71-1.484-1.332-2.777-1.996-4.16m79.156-21.996c.664 1.363 1.254 2.64 1.903 3.89.34.65.691 1.344 1.219 1.813.242.215.921-.066 1.406-.117.14-.016.285.004.422-.023.875-.145 1.746-.301 2.683-.465-.418-1.164-.789-2.184-1.152-3.207-.367-1.04-.727-2.078-1.016-2.907-1.183.157-2.258.477-3.289.38-.91-.087-1.582.03-2.176.636m58.704 28.508c.046.164.058.273.109.36.863 1.433 1.707 2.874 2.617 4.277.145.214.594.367.879.336 1.516-.172 3.027-.41 4.73-.653-.78-1.922-1.496-3.672-2.21-5.426-2.122.383-4.086.739-6.125 1.106m-101.649-14.645c1.25-.343 2.508-.691 3.899-1.074-.418-.965-.61-1.91-1.16-2.535-.813-.926-1.368-1.844-1.282-3.09.004-.05-.078-.11-.266-.36-1.437.055-3.011.11-4.832.177 1.247 2.359 2.375 4.492 3.641 6.882m3.902-7.597c.625.64 1.266 1.093 1.63 1.71.742 1.274 1.359 2.622 1.984 3.958.199.425.414.605.89.504.41-.086.84-.079 1.254-.141.746-.113 1.485-.254 2.297-.39-.969-2.223-2.734-3.915-2.707-6.516-.586.082-1.07.039-1.434.226-.68.352-1.335.383-2.046.207-.657-.16-1.235.028-1.868.442m-16.8 3.031q-2.415.323-4.86.644c-.004.028-.02.075-.008.098 1.051 1.867 2.086 3.746 3.168 5.59.118.2.54.34.793.305 1.067-.145 2.125-.371 3.22-.57-.786-2.063-1.52-3.993-2.313-6.067m60.414 16.777c1.183-.312 2.328-.656 3.492-.902 1.172-.254 2.367-.41 3.598-.617-.36-.875-.715-1.567-.926-2.301-.227-.797-.75-.934-1.442-.875-1.05.082-2.105.164-3.16.254-1.187.101-2.375.21-3.527.312.648 1.364 1.266 2.657 1.965 4.13m78.46-1.582c.223.582.466 1.051.59 1.551.325 1.293.563 2.61.915 3.89.082.298.5.735.73.72 1.426-.11 2.844-.329 4.637-.555-1.824-1.989-2.262-4.399-3.082-6.54-1.344.333-2.5.618-3.79.934m-133.206-9.574c1.297-.3 2.55-.594 3.738-.871l-2.574-6.516-4.246 1.5a3198 3198 0 0 0 3.082 5.887m86.957-6.254-1.797-3.992c-.211-.465-.61-.418-.996-.332-1.047.23-2.063.547-3.176.273-.578-.14-1.223-.023-2-.023.578 1.281 1.027 2.39 1.57 3.453.727 1.414.762 1.395 2.301 1.14.207-.034.438-.097.625-.038 1.297.425 2.336-.57 3.473-.48m-22.192 9.918c-.46-1.39-.87-2.621-1.293-3.89-2.492-.098-4.812.828-7.418 1.156.61 1.105 1.13 2.05 1.75 3.183 2.203-.144 4.493-.293 6.961-.449m-5.996-6.062c2.184-.329 4.395-.657 6.746-1.008l-1.918-3.54c-2.183.141-4.367.278-6.601.419.629 1.46 1.191 2.77 1.773 4.129m-17.879-4.079c-.554-1.132-1.097-2.05-1.46-3.035-.376-1.011-.575-2.086-.84-3.097-2.208-.09-4 .132-4.645.496.434.918.855 1.824 1.293 2.722.09.184.25.332.363.508.278.426.57.848.813 1.293.215.399.347.848.574 1.238.11.192.375.442.539.422 1.098-.14 2.191-.347 3.363-.546m-8.969 27.708c-.328-.872-.605-1.657-.921-2.426-.364-.89-.543-.946-1.446-.664q-.645.204-1.312.304c-1.84.278-3.688.536-5.762.832.691 1.02 1.254 1.817 1.774 2.641.332.531.707.645 1.324.484.988-.257 2.008-.375 3.011-.554 1.067-.196 2.133-.395 3.333-.617m33.215-32.192c-.386-.914-.867-1.86-1.18-2.851-.308-.985-.449-2.02-.66-3.02-1.523.219-3.062-.629-4.5.434.91 2.054 1.833 4.129 2.75 6.195 1.172-.172 2.438.351 3.59-.758m7.825-1.95c-.09-.273-.106-.378-.153-.464-.601-1.105-1.254-2.187-1.8-3.32-.727-1.492-.692-1.508-2.337-1.395-.14.008-.28-.023-.421-.012-.86.063-1.715.133-2.68.208 1.172 2.132 2.816 3.808 3.531 6.027.043.14.496.293.684.226 1.07-.386 2.113-.84 3.176-1.27m71.644 10.243c-.187-.664-.34-1.348-.574-2.004-.215-.594-.645-.851-1.336-.734-1.27.215-2.555.34-3.832.531-.996.152-1.984.36-3.125.566.418 1.04.805 1.997 1.18 2.934 1.386-.105 2.617-.11 3.816-.312 1.242-.211 2.45-.614 3.871-.98m-83.746 19.59c-.285-1.149-.54-2.188-.797-3.227-2.805-.07-5.426.391-8.09 1.286.614.902 1.215 1.785 1.871 2.746zm-28.582-2.203c-.543-1.227-.984-2.184-1.39-3.156-.188-.45-.458-.532-.915-.457-.828.136-1.668.195-2.504.3-1.093.14-2.191.29-3.472.461.625 1.067 1.203 1.985 1.707 2.942.344.656.789.789 1.48.613.918-.234 1.86-.402 2.801-.54.71-.1 1.434-.109 2.293-.163m-51.719-2.121c.11.336.125.48.196.59.585.953 1.19 1.89 1.77 2.843.585.97.632 1 1.757.762 1.281-.27 2.558-.547 4.05-.867-.706-1.14-1.37-2.238-2.07-3.313-.086-.129-.359-.199-.543-.195-1.668.043-3.336.113-5.16.18m.348-6.512c.402.793.828 1.598 1.226 2.418.407.836 1.024 1.004 1.887.644.73-.308 1.52-.507 2.3-.671.935-.196 1.892-.305 2.95-.47-.597-1.14-1.086-2.07-1.496-2.847l-3.777.156c-.207.008-.43-.011-.625.043-.805.223-1.606.47-2.465.727m50.86-1.96c.863 1.386 1.577 2.538 2.335 3.753 1.684-.32 3.356-.64 5.153-.984-.465-1.301-.875-2.446-1.317-3.696-2.031-.047-3.98.625-6.172.926m40.808-1.22c-.567-1.355-1.094-2.574-1.582-3.812-.149-.375-.348-.684-.758-.547-.98.328-1.988.367-3.004.434-.535.03-1.05.312-1.61.492.622 1.23 1.165 2.379 1.79 3.484.133.238.558.469.828.445 1.465-.125 2.922-.328 4.336-.496m-24.637 2.66c2.219-.418 4.434-.835 6.727-1.27-.618-1.085-1.184-2.085-1.664-2.933-2.188.211-4.243.414-6.395.621.461 1.25.852 2.297 1.332 3.582m-45.305 14.512c-.242-.676-.41-1.172-.601-1.664q-.675-1.73-2.48-1.258c-.446.117-.907.325-1.34.282-1.254-.125-2.227.523-3.368 1.03.434.645.907 1.223 1.239 1.872.394.766.972.957 1.742.789 1.574-.336 3.144-.688 4.808-1.05m-10.218 4.801c-1.82.348-3.45.664-5.067.973l1.887 4.12c1.555-.238 3.18-.484 4.887-.741-.606-1.543-1.14-2.91-1.707-4.352m96.48-36.574c.582 1.539 1.09 2.87 1.594 4.203.027.066.062.129.09.191.203.516.515.551 1.008.332.707-.312 1.46-.511 2.183-.793.438-.172.856-.402 1.285-.605-.617-1.27-1.144-2.418-1.738-3.527-.156-.293-.555-.715-.77-.68-1.167.21-2.316.543-3.652.879m-20.808 24.847c-.516.036-.989.204-1.34.063-1.852-.73-3.461.437-5.317.43.399 1.113.735 2.066 1.121 3.152 2.243-.254 4.457-.5 6.813-.766-.465-1.047-.863-1.941-1.277-2.879m-59.735-4.761c-1.937-.07-3.586.222-5.312.789.754 1.34 1.433 2.55 2.148 3.816 1.516-.25 3.024-.496 4.621-.758-.515-1.359-.996-2.625-1.457-3.847m-13.433 16.785c.203 1.328 1.53 2.066 2.09 3.207 1.8-.281 3.507-.543 5.206-.809-.683-1.277-1.28-2.406-1.886-3.539-.801.04-1.656-.027-2.461.149-.961.207-1.88.62-2.95.992m142.66-43.7c-.086-.023-.219-.105-.348-.097-2.164.168-4.324.34-6.488.527-.371.035-.735.149-1.195.246.394 1.004 1.074 1.692 1.746 2.38.086.085.261.116.394.109.805-.051 1.61-.118 2.414-.192.551-.05 1.102-.11 1.653-.195.878-.14 1.757-.309 2.687-.477zm-97.555 32.118c-.828-1.34-1.355-2.508-1.512-3.934-1.379.235-2.793.473-4.203.719-.168.031-.402.09-.472.21-.192.345-.516.798-.422 1.087.289.887.754 1.722 1.16 2.597 1.836-.23 3.558-.445 5.45-.68m8.977-18.63c.359.743.714 1.243.859 1.802.492 1.937.469 1.972 2.453 1.734 1.137-.137 2.258-.379 3.547-.601l-1.656-3.774c-1.778.285-3.461.559-5.203.84m14.675 14.235c.954.25 6.102-.133 6.97-.543l-.895-2.468h-7.028c.332 1.043.625 1.976.953 3.011m-24.027.2c.61 1.359 1.156 2.57 1.64 3.644 1.68-.137 3.258-.262 4.919-.394-.493-1.442-.938-2.758-1.45-4.266-1.683.332-3.34.664-5.109 1.015m-48.64 6.12c1.484-.242 3.14.2 4.761-.468-.652-1.465-1.246-2.797-1.879-4.207-1.633.308-3.191.601-4.8.902zm94.199-35.406c.941 1.805 1.836 3.528 2.71 5.207.97-.277 1.77-.546 2.59-.738.618-.14.723-.512.559-1.016-.094-.296-.289-.558-.45-.835-.527-.91-1.128-1.793-1.57-2.747-.304-.664-.722-.816-1.335-.644-.805.226-1.594.488-2.504.773m37.761-.492c-1.496-1.23-2.14-2.988-2.625-4.765l-4 .828c.38.957.614 1.77 1.012 2.5.363.668.867 1.273 1.371 1.851.137.153.516.164.766.133 1.097-.148 2.187-.34 3.476-.547m-20.738 11.04c-.289-1.165-.672-2.063-1.496-2.778-.465-.406-.766-1-1.16-1.496-.164-.207-.387-.535-.567-.528-1.035.051-2.062.188-3.152.301.766 1.723 1.445 3.254 2.168 4.887zm-99.64 22.921c-.118-.508-.137-.941-.317-1.297-.379-.754-.824-1.476-1.277-2.191-.09-.145-.356-.285-.512-.262-1.379.207-2.75.453-4.105.684.535 1.425 1.03 2.754 1.542 4.117 1.551-.352 3.055-.688 4.668-1.05m80.085-7.066c-1.504-2.961-2.937-5.785-4.402-8.664-1.18.828-2.547.718-4.074.625.433.562.71.921.988 1.285.379.5.934.949 1.102 1.512.3.996.851 1.375 1.84 1.292.312-.027.636.063.953.047.746-.039 1.21.348 1.492.977.183.414.297.863.433 1.3.18.598.352 1.196.54 1.837.425-.078.722-.137 1.128-.211m-60.312 16.34c-.547-1.028-1.027-1.848-1.426-2.707-.254-.543-.601-.727-1.172-.614-1.41.274-2.824.531-4.344.817l1.454 3.414c1.843-.309 3.593-.598 5.488-.91m98.766-14.399c-.56-1.164-1.004-2.156-1.52-3.11-.145-.261-.54-.6-.773-.57-1.442.176-2.868.446-4.278.68.39.887.707 1.621 1.043 2.356.285.62 1.43 1.37 2.043 1.277 1.11-.172 2.211-.399 3.485-.633m-36.633-6.793c1.914-1.039 3.84-1.617 5.902-1.71-.39-.86-.723-1.59-1.05-2.321-.227-.504-.555-.707-1.09-.414-1.094.601-2.278.703-3.497.683-.707-.011-1.382.149-2.027.672a880 880 0 0 1 1.762 3.09m-43.207-5.062c.398.992.785 1.953 1.199 2.976a2452 2452 0 0 1 5.434-.457c-.446-1.062-.758-1.918-1.153-2.73-.547-1.118-.726-1.188-1.972-.844-1.18.328-2.348.703-3.508 1.055m-22.653 13.59c1.621-.235 3.188-.458 4.832-.692-.5-1.336-.953-2.531-1.351-3.598l-5.406.817c.68 1.222 1.289 2.324 1.925 3.472m-8.707 8.093c-.543-1.054-1.05-2.043-1.578-3.066-1.031.238-1.918.457-2.812.644-.856.18-1.72.325-2.696.504.797 1.168 1.48 2.176 2.211 3.246 1.512-.726 3.344-.05 4.875-1.328m14.29-12.894 1.753 3.593 4.727-.78c-.39-1.063-.77-2.161-1.223-3.227-.082-.196-.531-.426-.707-.364a12.1 12.1 0 0 1-4.55.778M260 505.934c-.453-.961-.926-1.97-1.406-2.973-.211-.445-.559-.438-.98-.313-.81.243-1.63.454-2.45.649-.469.113-.95.172-1.492.27.129.347.281.597.308.859.032.304-.058.62-.07.93-.015.648.742 1.503 1.281 1.433 1.04-.133 2.082-.266 3.114-.437.566-.094 1.117-.274 1.695-.418m-6.05-18.434 1.831 3.05 4.567-.39-.703-3.52c-.754.114-1.47.395-2.114.282-1.265-.223-2.344.207-3.582.578m20.655 4.164c.653 1.574 1.235 2.973 1.832 4.402l4.41-.992c-.761-1.172-1.394-2.183-2.07-3.164-.14-.203-.433-.43-.652-.426-1.14.02-2.281.11-3.52.18m-97.894 29.602c-1.094.172-2.309.175-3.348.597-.699.285-1.258.586-2.047.246.313.672.809 1.207 1.016 1.84.457 1.399 1.332 1.617 2.633 1.285.926-.238 1.906-.285 2.808-.406-.351-1.172-.675-2.265-1.062-3.562m79.332 1.906c.402.621.617 1.117.969 1.48 1.015 1.043 1.925 2.133 2.465 3.512.093.234.554.496.808.461.809-.11 1.602-.352 2.438-.55-.551-.696-1.18-1.29-1.555-2.016-.477-.918-.746-1.946-1.113-2.946-1.328-.367-2.575-.043-4.012.059m-93.137 8.094c.242.785.528 1.636.77 2.5.172.605.492.644 1.039.464.508-.168 1.082-.136 1.601-.285.883-.25 1.887-.058 2.66-.605-.25-.621-.476-1.133-.667-1.656-.625-1.73-1.309-2.016-2.938-1.188-.125.063-.234.168-.367.207-.621.176-1.246.336-2.098.563m24.09-27.477c-.125-.39-.207-.797-.379-1.164-.765-1.637-2-3.082-2.062-5.016-.008-.16-.14-.312-.235-.5l-2.613.688c.461 1.476.813 2.84 1.816 3.906.309.324.582.703.786 1.098.742 1.457.73 1.465 2.289 1.152.097-.02.187-.078.398-.164m8.77 11.887c1.468-.278 2.847-.543 4.191-.797-.305-1.125-.574-2.063-.809-3.012-.093-.379-.242-.773-.668-.605-1.011.402-2.05.402-3.101.437-.36.012-.711.207-1.004.301.473 1.246.902 2.387 1.39 3.676m68.515-17.582c-.46-.676-.972-1.332-1.375-2.047-.426-.758-.75-1.574-1.113-2.344-1.215.121-2.305.23-3.363.34.933 1.828 1.812 3.543 2.636 5.164 1.18-.41 2.164-.75 3.215-1.113m7.809 12.418-2.063-3.34c-1.304.758-3.058-.125-4.101 1.234.617 1.106 1.203 2.149 1.812 3.239 1.422-.368 2.805-.727 4.352-1.133m15.305-11.649c.414 1.242.437 1.29 1.562 1.227 1.39-.078 2.777-.203 4.164-.324.762-.067 1.52-.168 2.274-.254.171-1.125.097-2.051-.586-2.809-2.504.73-4.926 1.434-7.414 2.16m-152.918 19.653c-.579-1.082-1.157-2.153-1.766-3.282l-4.531.7c.648 1.109 1.203 2.004 1.703 2.925.312.578.722.684 1.32.512 1.04-.297 2.094-.55 3.274-.855m142.921-5.153c.336.774.582 1.371.86 1.953.137.282.383.512.496.797.285.727.46.813 1.23.614.883-.23 1.778-.418 2.66-.637.188-.047.364-.149.57-.238-.468-1.063-.913-2.055-1.343-3.059-.258-.586-.625-.672-1.18-.363a6.5 6.5 0 0 1-1.355.558c-.535.153-1.094.219-1.938.375m-71.074 7.063c-.32-1.035-.68-2.13-.992-3.23-.14-.481-.394-.77-.894-.68-1.09.195-2.176.433-3.293.664.578 1.3 1.125 2.48 1.62 3.68.27.656.747.562 1.223.41.793-.258 1.567-.567 2.336-.844m-41.726 3.312c.683 1.157 1.304 2.2 1.914 3.227 1.406-.371 2.675-.707 3.855-1.016-.36-1.187-.687-2.273-1.074-3.543zm28.754 2.254c.226.848.441 1.59.625 2.344.14.586.496.836 1.078.742 1.277-.2 2.55-.41 3.804-.613l-.863-2.996c-1.543-.14-3.11-.192-4.644.523m96.843-11.226c-.691-1.344-1.324-2.575-1.976-3.832-1.207.214-2.348.418-3.582.64l1.652 3.988c1.32-.269 2.5-.511 3.906-.796m-132.437-3.504c.894.976 1.61 1.875 1.418 3.293 1.035-.305 1.816-.63 2.633-.75.836-.121 1.707-.047 2.632-.055l-1.925-3.203zm21.527-3.047q-.049.175-.097.351c.828.622 1.101 1.88 2.242 2.067 1.55.262 3.023-.195 4.492-.824-.352-.793-.66-1.493-.984-2.227-1.926.215-3.79.422-5.653.633m83.438-21.895c.605 1.051 1.191 2.078 1.797 3.09a.6.6 0 0 0 .414.242c1.12.067 2.242.114 3.367-.336-.399-1.078-.746-2.109-1.176-3.109-.094-.21-.492-.445-.723-.418-1.21.129-2.41.34-3.68.531m-36.153 28.668c.27.828.512 1.59.782 2.426 1.816.074 3.421-.824 5.203-.945-.075-.516-.102-.832-.164-1.14-.196-1-.305-1.013-1.364-.966-.675.032-1.363-.152-2.05-.218-.258-.024-.555-.06-.782.035-.55.226-1.066.523-1.625.808m-20.742 12.25c-.367-.91-.66-1.734-1.043-2.52-.101-.21-.5-.445-.715-.402-1.297.25-2.578.579-3.832.871.348.774.762 1.477.985 2.235.238.805.722.867 1.367.695 1.055-.273 2.101-.57 3.238-.879m-41.039-10.453q-.081.167-.156.332c.512 1.035 1 2.078 1.554 3.09.122.215.504.457.723.422 1.028-.176 2.043-.445 3.153-.7-.63-1.132-1.172-2.14-1.754-3.132-.09-.149-.352-.285-.524-.274-1 .063-2 .168-2.996.262m-15.812 13.871c-.622-1.097-1.118-1.976-1.622-2.867-1.609.27-3.199.535-4.796.805.367.773.691 1.36.93 1.976.171.446.425.614.878.555 1.047-.137 2.094-.273 3.14-.39.438-.048.876-.048 1.47-.079m123.511-33.75.106-.36c-.637-.874-1.364-1.698-1.875-2.644-.422-.777-.73-1.343-1.79-1.07-.64.168-1.355.031-2.19.031.19.442.261.715.41.93.706 1.004 1.425 2 2.163 2.977.137.18.403.375.598.367.863-.04 1.719-.149 2.578-.23m-123.52 15.903c-1.523.351-2.995.691-4.495 1.035.55 1.02 1.066 1.972 1.613 2.984 1.223-.363 2.66-.379 3.922-1.14-.344-.95-.653-1.801-1.04-2.88m97.438-24.528c.614 1.059 1.18 2.07 1.785 3.055.16.258.43.629.657.633.824.015 1.648-.106 2.722-.196-.648-1.562-1.234-2.96-1.808-4.336-1.219.305-2.262.57-3.356.844m29.406 22.067c1.262-.239 2.485-.465 3.88-.727-.489-.871-.973-1.594-1.305-2.383-.262-.625-.676-.781-1.239-.695-.953.144-1.894.344-2.968.547.562 1.12 1.074 2.14 1.632 3.258m-87.062-.864c1.621-.007 3.297-.082 4.89-.527-.226-.734-.413-1.332-.59-1.93-.32-1.09-.663-1.207-1.519-.492-.16.137-.3.34-.484.395-.356.105-.875.308-1.078.148-.871-.683-1.574-.015-2.387.082.395.785.746 1.488 1.168 2.324m-31.406 5.352c-.649-1.082-1.156-1.988-1.735-2.844-.097-.148-.547-.203-.742-.11-.547.255-1.066.411-1.691.388-.637-.024-1.278.168-2.012.277.504.789.977 1.476 1.395 2.203.289.5.644.664 1.218.559.688-.13 1.399-.145 2.098-.23.441-.056.879-.145 1.469-.243m5.34 19.777c-.168-.488-.246-.992-.496-1.39-.442-.707-.793-1.641-1.97-1.23-.183.062-.421 0-.632-.028-.848-.117-1.543.27-2.328.613l1.281 2.879c1.375-.277 2.707-.55 4.145-.844m105.601-31.039c-.367-.504-.73-1-1.094-1.496-.398-.535-.87-.723-1.562-.547-.531.14-1.11.094-1.672.114-.465.011-.93 0-1.45 0 .618 1.64 1.247 2.753 1.895 3.347 1.286-.469 2.52-.922 3.883-1.418m-101.55 6.578c.269.868.484 1.633.757 2.38.051.136.313.25.492.277.305.039.63.043.934-.012.91-.16 1.812-.356 2.754-.543-.399-.805-.695-1.484-1.067-2.117-.136-.235-.433-.485-.683-.52-1.063-.144-2.098.016-3.188.535m24.906 19.395c-.348-.922-.672-1.625-.88-2.363-.238-.836-.695-.989-1.488-.766-.492.137-1.046.059-1.57.11-.277.027-.547.117-.86.187.423.91.755 1.68 1.13 2.43.117.226.351.566.535.566.988-.004 1.98-.094 3.133-.164m60.203-22.469c-.344-.855-.692-1.719-1.028-2.558-1.343.199-2.562.378-3.976.59.676 1.183 1.234 2.163 1.765 3.1zm6.086 12.797c-.403-1.02-.746-1.89-1.133-2.863-1.215.164-2.399.328-3.64.496.538 1.008 1.023 1.918 1.577 2.953.996-.184 2.047-.375 3.196-.586m25.132-11.363c1.18-.59 2.461.34 3.563-.575-.383-.738-.723-1.468-1.14-2.156-.141-.226-.5-.496-.715-.465-.926.137-1.832.375-2.84.598zm-11.859-8.074c-.125.886.238 1.523.715 2.085.172.207.527.414.77.383 1.023-.129 2.035-.347 3.187-.558-.527-.774-.922-1.395-1.367-1.973-.121-.156-.422-.258-.625-.242-.899.074-1.79.199-2.68.305M127.234 539.91l.25-.11c-.144-.62-.168-1.308-.457-1.85-1.027-1.923-2.168-3.79-3.218-5.7-.32-.586-.7-.836-1.485-.613.086.351.102.738.266 1.047.23.43.597.785.855 1.203.832 1.34 1.633 2.699 2.465 4.043.418.672.883 1.32 1.324 1.98m45.957-30.668c.317.922.559 1.633.829 2.422 1.132-.187 2.285-.375 3.523-.578-.25-.77-.492-1.524-.758-2.34zm105.028-9.297c.011.145.02.32.047.493.183 1.132.406 1.285 1.515 1.066 1.258-.242 2.524-.477 3.965-.746-.246-.41-.394-.977-.66-1.035-.73-.16-1.516-.164-2.27-.121-.828.046-1.652.214-2.597.343M130.754 546c-.02.184.004.367-.063.516-.421.972-.078 1.703.676 2.328.324.265.656.523.934.832.215.234.379.64.715.312.148-.144.105-.59.015-.855-.418-1.25-.914-2.457-2.277-3.133M327.32 378.188c.711-.07 1.157.246 1.38.898.214.637.05 1.219-.4 1.66-.472.461-.96.844-1.214 1.527-.219.582-.746.887-1.48.594-.645-.262-1.297-.14-1.95.145-.832.363-1.707.625-2.566.925-.227.083-.496.098-.688.231-1.375.934-3.101.887-4.543 1.644-.804.418-1.668.715-2.472 1.137-2.235 1.168-4.703 1.64-7.074 2.395-1.676.535-3.446.793-5.102 1.383-1.379.488-2.781.726-4.2.964-.304.051-.585.243-.878.36-.332.125-.672.363-.996.34-1.696-.106-3.133.675-4.664 1.195-.848.285-1.813.2-2.711.363-1.035.192-2.051.48-3.075.719-.882.207-1.761.422-2.648.605-.82.176-1.64.344-2.469.47-1.093.163-2.203.253-3.297.437-1.003.172-1.992.433-2.988.644-1.543.324-3.09.621-4.625.969-.789.18-1.547.5-2.336.664-1.879.387-3.77.707-5.656 1.07-.617.121-1.238.258-1.832.457-.89.301-1.746.692-2.633.993-.316.105-.7 0-1.023.082-1.024.261-2.035.57-3.051.855-1.383.39-2.77.774-4.152 1.168-.23.066-.473.148-.672.277-1.059.688-2.196 1.098-3.47 1.11-.237.004-.487.074-.718.156-2.008.73-4.05 1.285-6.18 1.586-1.062.152-2.132.562-3.085 1.066-1.399.735-2.907.989-4.403 1.356-2.082.512-4.11 1.273-6.215 1.656-1.742.313-3.195 1.262-4.836 1.758-2.441.734-4.867 1.52-7.406 1.894-.68.102-1.297.61-1.976.723-1.766.29-3.34 1.293-5.18 1.32-.574.012-1.137.329-1.715.47-1.844.437-3.687.855-5.531 1.284-.106.024-.223.04-.3.098-1.524 1.152-3.36 1.066-5.114 1.316-.442.063-.91.203-1.281.442-.907.586-2.149.3-2.946 1.226-.21.246-.789.18-1.203.246-.394.063-.867-.015-1.172.18-1.101.695-2.351.91-3.566 1.203-2.113.512-4.246.922-6.367 1.395-.34.078-.754.172-.957.41-.493.566-1.102.523-1.735.578-.515.043-1.015.246-1.531.313-2.074.273-4.02 1.09-6.09 1.41-.941.144-1.816.715-2.719 1.101-.191.086-.359.293-.55.309-1.258.105-2.391.598-3.579.96-1.695.516-3.574.423-5.359.677-1.14.16-2.258.488-3.387.722-.515.11-1.043.18-1.562.262-.207.031-.445-.016-.625.066-1.543.73-3.219.692-4.86.883-.414.05-.824.176-1.226.305-.73.234-1.453.48-2.168.754-.457.176-.926.363-1.32.636-.774.543-1.594.797-2.536.887-1.113.106-2.21.406-3.312.625-1.645.32-2.836-.195-3.645-1.652-.289-.524-.496-1.098-.675-1.668-.29-.906-.528-1.828-.778-2.746-.613-2.227-1.207-4.457-1.84-6.676-.101-.363-.394-.664-.539-1.02-.421-1.043-.878-2.078-1.187-3.156-.188-.656-.16-1.383-.168-2.078-.008-1.02.082-2.012-.418-3-.277-.547-.113-1.297-.277-1.922-.258-.972-.52-1.976-.977-2.863-.367-.707-.754-1.34-.64-2.172.039-.273.003-.566-.055-.84-.438-1.949-.79-3.926-1.36-5.84-.578-1.933-.586-3.945-1.035-5.886-.43-1.852-.902-3.696-1.207-5.567-.176-1.078-.46-2.101-.781-3.14-.285-.934-.352-1.934-.55-2.899-.18-.86-.427-1.707-.622-2.566-.125-.543-.305-1.098-.297-1.645.02-1.402-.36-2.707-.742-4.039-.453-1.582-.656-3.238-1.059-4.84-.476-1.91-1.05-3.8-1.582-5.699-.05-.168-.125-.336-.152-.508-.473-2.906-1.105-5.785-1.281-8.746-.121-2.058-.637-4.094-.965-6.144-.043-.27-.02-.547-.047-.82-.039-.344-.043-.704-.16-1.02-.813-2.246-1.621-4.496-2.492-6.719-.41-1.039-1.008-2.004-1.418-3.039-.578-1.465-1.074-2.96-1.582-4.453-.371-1.102-.824-2.195-1.02-3.328-.261-1.512-.308-3.059-.457-4.586-.027-.281-.05-.574-.156-.828-.746-1.813-1.602-3.586-2.246-5.434-.781-2.219-1.414-4.496-2.063-6.758-.398-1.386-.707-2.797-1.078-4.191-.05-.188-.254-.336-.344-.524-.273-.554-.406-1.109.016-1.675.211-.282.29-.692.547-.895.352-.281.848-.629 1.223-.57.543.082.925-.102 1.398-.223 2.008-.512 4.04-.926 6.05-1.402 1.196-.285 2.364-.688 3.563-.93 2.477-.5 4.973-.926 7.457-1.387.485-.093.957-.238 1.442-.324.969-.168 1.937-.383 2.918-.441 1.285-.074 2.508-.32 3.699-.817.477-.199 1.031-.402 1.523-.347 1.243.133 2.375-.16 3.516-.563.43-.148.895-.203 1.352-.261 1.875-.243 3.777-.348 5.613-.758.808-.18 1.55-.305 2.355-.196.133.02.297.012.414-.05 1.625-.887 3.524-.536 5.223-1.164.684-.254 1.504-.125 2.258-.204.902-.097 1.832-.125 2.683-.386 1.075-.328 2.149-.285 3.23-.364.83-.058 1.665-.293 2.45-.574.82-.297 1.613-.5 2.485-.308.265.054.558.074.828.039q2.776-.382 5.547-.793c1.78-.262 3.617-.336 5.312-.867 1.461-.457 2.902-.477 4.363-.61.14-.015.297.004.418-.05 2.024-.887 4.258-.868 6.34-1.516.66-.203 1.399-.14 2.098-.239 1.664-.234 3.34-.43 4.988-.757 1.41-.282 2.79-.73 4.184-1.09.547-.14 1.097-.262 1.656-.352 1.559-.242 3.125-.418 4.676-.699 2.554-.457 5.191-.555 7.59-1.723.277-.136.613-.148.925-.21 1.618-.31 3.239-.598 4.852-.934 2.793-.578 5.586-1.16 8.371-1.781a674 674 0 0 0 8.738-2.036c1.918-.457 3.817-1.02 5.75-1.394 1.582-.305 3.207-.39 4.805-.602 1.012-.132 2.02-.3 3.023-.48 2.086-.375 4.168-.719 6.125-1.629.735-.344 1.668-.242 2.485-.441.539-.13 1.027-.45 1.547-.657.355-.144.718-.289 1.09-.363 1.851-.367 3.71-.707 5.566-1.074 1.031-.207 2.055-.457 3.086-.676 1.133-.238 2.32-.258 3.32-.973.238-.168.598-.195.906-.242 1.672-.242 3.344-.5 5.024-.691 1.734-.203 3.414-.723 5.207-.63 1.172.063 2.367-.292 3.547-.5 1.699-.304 3.379-.776 5.093-.94 1.825-.172 3.336-1.063 4.977-1.692 1.606-.617 3.297-1.012 4.953-1.496.2-.059.434-.02.625-.094 1.383-.55 2.805-.566 4.27-.465.5.036 1.07-.289 1.543-.566 1.03-.61 1.703-.512 2.504.398 1.148 1.309 1.437 2.97 1.847 4.555.324 1.242.25 2.567.922 3.746.246.434.223 1.016.34 1.528.148.644.223 1.324.492 1.914.371.804.293 1.609.344 2.445.047.848.324 1.723.683 2.504.442.957.829 1.851.938 2.957.144 1.441.465 2.93 1.402 4.164.157.207.282.512.27.766-.078 1.636.625 3.02 1.457 4.32.777 1.219.953 2.61 1.367 3.933.266.864.54 1.723.809 2.586.062.2.148.391.183.594.242 1.383.473 2.766.711 4.145.059.343.172.683.2 1.03.081 1.079.136 2.157.199 3.235a.3.3 0 0 1-.004.106c-.157.738-.54 1.52-.407 2.199.149.781.254 1.5.098 2.277-.047.215.082.461.129.696.07.34.234.695.195 1.023-.109.957.137 1.79.602 2.621.262.469.332 1.047.457 1.586.16.676.293 1.356.422 2.04.074.41.129.827.164 1.241.047.555.004 1.125.098 1.668.375 2.176 1.039 4.344 1.085 6.524.028 1.312.715 2.308.84 3.523.14 1.352.57 2.668.797 4.016.207 1.23.301 2.48.465 3.719.043.34.176.664.25 1 .148.671.273 1.351.434 2.02.187.788.406 1.565.605 2.35.129.5.227 1.005.363 1.5.211.778.442 1.551.66 2.325.086.3.215.594.25.902.196 1.66.372 3.324.551 4.988.004.036-.007.075.004.106.446 1.25.352 2.543.367 3.84.016 1.11.286 2.215.485 3.316.27 1.485.574 2.965.867 4.446.207 1.066.418 2.132.625 3.199.133.683.242 1.375.394 2.054q.459 1.997.954 3.989c.109.441.261.875.43 1.425m-26.89-112.27c-.102.02-.207.023-.301.055-1.3.433-2.586.918-3.902 1.285-.563.16-1.211-.016-1.782.129-1.73.437-3.437.953-5.156 1.441a.2.2 0 0 0-.09.059c-1.469 1.457-3.508 1.351-5.3 1.746-2.165.476-4.364.773-6.481 1.453a1.9 1.9 0 0 1-.723.066 14.7 14.7 0 0 0-4.734.344c-.578.133-1.164.465-1.723.418-1.5-.117-2.84.414-4.234.77-.64.164-1.313.351-1.957.308-.996-.07-1.875.2-2.79.5-1.003.328-2.027.672-3.066.77-.996.093-1.933.281-2.867.613-.625.223-1.3.305-1.953.441-.828.168-1.66.32-2.484.497-.38.082-.742.242-1.121.304-1.043.168-2.11.235-3.137.465-2.094.469-4.152 1.086-6.254 1.516-2.691.55-5.41.953-8.11 1.46-1.628.305-3.242.672-4.855 1.036-.617.14-1.203.43-1.824.52-1.738.25-3.524.241-5.113 1.183-.375.223-.88.234-1.328.308-1.48.243-2.97.434-4.438.715-1.098.207-2.172.555-3.27.782-2.164.449-4.34.859-6.511 1.285-1.52.293-3.04.593-4.567.875-2.175.402-4.359.77-6.535 1.183-1.488.282-2.972.57-4.445.926-1.332.32-2.625.797-3.961 1.082-1.582.34-3.195.52-4.785.817q-2.896.543-5.774 1.168c-.992.218-1.953.628-2.953.769-1.836.254-3.683.402-5.5.856-1.308.324-2.664.464-4.004.667-.726.11-1.468.282-2.195.235-.957-.063-1.8.191-2.684.484-1.226.406-2.476.895-3.742.996-1.449.114-2.836.5-4.246.664-2.582.305-5.156.657-7.742.954-.137.015-.285-.028-.422-.012-.387.043-.812.012-1.144.172-1.407.675-2.954.59-4.434.843-1.895.329-3.8.59-5.695.903-.446.074-.899.18-1.309.363-1.36.594-2.941.285-4.266 1.078-.316.188-.82.05-1.234.086-1.215.11-2.445.14-3.64.363-1.653.309-3.258.887-4.919 1.13-2.78.406-5.59.628-8.378.956-.516.059-1.11.14-1.497.434-.675.52-1.43.715-2.21.836-1.18.183-2.372.281-3.743.437.254.809.465 1.532.711 2.243.168.5.43.972.57 1.48.489 1.781.91 3.582 1.422 5.36a135 135 0 0 0 1.79 5.73c.859 2.547 1.785 5.074 2.66 7.617.164.488.203 1.016.32 1.52.07.3.164.597.266.89.078.227.214.438.273.668.27 1.012.5 2.031.785 3.035.086.297.383.535.45.832.363 1.543.667 3.102 1.62 4.434a.73.73 0 0 1 .114.394c-.024 1.118.43 2.082.777 3.122.563 1.683.828 3.507.95 5.289.16 2.273.835 4.468.863 6.75.004.132.086.27.152.394.691 1.328.355 2.824.7 4.211.14.567.241 1.149.41 1.707.464 1.547 1.273 3.07 1.363 4.633.129 2.25 1.234 4.203 1.425 6.441.215 2.461 1.079 4.864 1.637 7.297.406 1.774.567 3.637 1.223 5.309.652 1.652.605 3.383 1.07 5.039.445 1.586.711 3.223 1.063 4.836.273 1.273.55 2.543.847 3.812.172.711.344 1.43.594 2.118.379 1.039.938 2.019 1.211 3.078.445 1.722.71 3.492 1.07 5.238.223 1.098.485 2.191.723 3.285.125.574.219 1.152.367 1.719.297 1.156.7 2.289.918 3.453.277 1.48.211 3.043 1.258 4.297.125.148.144.39.2.594.32 1.257.413 2.582 1.25 3.671.16.211.292.547.25.793-.243 1.426.784 2.52.847 3.813 2.414-.75 4.5-2.211 7.066-2.133.168.008.336-.098.508-.144 1.898-.497 3.79-1.016 5.695-1.48a254 254 0 0 1 5.864-1.325c1.336-.293 2.671-.594 4.023-.793.48-.067 1.04.316 1.508.223 1.066-.215 2.16-.47 3.125-.942.91-.45 1.828-.71 2.805-.867a8 8 0 0 0 1.433-.375c1.39-.504 2.766-1.043 4.152-1.55.258-.095.602-.235.805-.141.781.363 1.442.027 2.137-.22.93-.331 1.863-.648 2.808-.937 1.485-.453 2.977-.863 4.54-.996.66-.054 1.308-.304 1.945-.508 1.879-.59 3.734-1.25 5.629-1.785 1.586-.445 3.222-.726 4.824-1.129 2.734-.687 5.469-1.379 8.184-2.144 1.148-.32 2.207-1 3.363-1.215 1.422-.262 2.816-.45 4.215-.957 2.093-.762 4.336-1.11 6.496-1.695 1.078-.293 2.105-.758 3.172-1.09 1.847-.574 3.828-.727 5.55-1.707.176-.098.41-.125.622-.137 2.417-.117 4.527-1.254 6.753-2.016.766-.261 1.543-.492 2.317-.734.457-.14.941-.215 1.36-.43.84-.433 1.609-1.023 2.663-.707.23.067.54-.113.809-.191 1.488-.434 2.969-.887 4.46-1.3 1.868-.52 3.778-.907 5.606-1.532 1.492-.512 2.918-1.133 4.512-1.379 1.48-.23 2.918-.781 4.355-1.254.977-.324 1.915-.742 2.985-.586.191.031.406-.098.605-.156 1.793-.5 3.567-1.086 5.38-1.485 1.8-.394 3.644-.585 5.46-.902.766-.133 1.504-.383 2.266-.543 1.926-.398 3.86-.762 5.785-1.164 1.207-.254 2.402-.754 3.605-.762 1.164-.003 2.137-.293 3.114-.804.242-.13.535-.176.812-.215 1.149-.152 2.301-.297 3.453-.422.735-.082 1.418-.254 2.102-.598.566-.28 1.281-.257 1.926-.39a36 36 0 0 0 2.129-.496c.808-.223 1.601-.504 2.414-.72.425-.112.882-.108 1.312-.218 1.059-.265 2.11-.566 3.164-.848 1.66-.449 3.324-.867 4.973-1.347 1.351-.39 2.687-.848 4.023-1.29.77-.253 1.625-.398 2.258-.847.82-.574 1.707-.805 2.621-1.062 1.047-.297 2.098-.606 3.117-.98.621-.227 1.176-.626 1.79-.88 1.23-.512 2.476-.98 3.722-1.469-.031-.265-.039-.44-.078-.609-.297-1.234-.625-2.46-.902-3.7-.325-1.437-.422-2.952-.95-4.308-.793-2.031-.859-4.195-1.453-6.25-.058-.203-.066-.418-.086-.629-.062-.59-.101-1.183-.187-1.773-.215-1.527-.485-3.047-.672-4.578-.11-.899-.07-1.817-.152-2.719-.059-.656-.211-1.305-.32-1.957-.036-.203.003-.484-.118-.605-.922-.922-.625-2.086-.746-3.192-.144-1.281-.305-2.601-.605-3.82-.57-2.32-1.301-4.582-1.512-6.992-.145-1.672-.606-3.313-.902-4.97-.106-.589-.13-1.187-.208-1.78-.058-.453-.144-.903-.218-1.352-.106-.648-.215-1.3-.317-1.95-.043-.273-.054-.55-.101-.823-.117-.618-.281-1.227-.36-1.848-.21-1.672-.218-3.375-.992-4.934-.078-.152-.097-.336-.125-.507-.18-1.149-.336-2.301-.539-3.442-.18-1.008-.45-2.004-.605-3.012-.102-.683-.043-1.386-.11-2.078-.129-1.382-.293-2.765-.433-4.152-.012-.129.05-.273.101-.406.614-1.672-.511-3.211-.383-4.844.004-.059-.058-.125-.101-.184-.602-.878-.742-1.886-.86-2.914-.085-.726-.109-1.527-.437-2.152-1.16-2.234-2.016-4.57-2.652-6.996-.211-.809-.16-1.695-.438-2.473-.613-1.722-.781-3.594-1.73-5.207-.172-.289-.125-.691-.223-1.031-.34-1.18-.574-2.414-1.082-3.523-.746-1.645-1.09-3.383-1.191-5.122-.122-2.12-.172-4.214-1.254-6.23M343.43 452.836c3.504-.172 7.043.516 10.562 1.293 1.617.36 3.211.824 4.82 1.219.989.242 1.997.402 2.977.668.5.132 1 .355 1.434.64 1.207.797 2.406 1.61 3.558 2.485 1.844 1.402 3.219 3.164 4.254 5.277.672 1.375.988 2.805 1.176 4.246.297 2.281-.035 4.457-1.668 6.32-.832.95-1.48 2.051-2.582 2.758-.606.387-1.09 1.035-1.734 1.278-1.684.625-3.301 1.496-5.133 1.668a16 16 0 0 1-1.79.085c-.628-.015-1.253-.128-1.886-.152a13.5 13.5 0 0 1-4.918-1.137c-.098-.039-.215-.066-.285-.136-.832-.844-1.895-1.145-3.02-1.309-.761-.11-1.523-.219-2.285-.305-2.12-.242-4.16-.73-6.035-1.804-.406-.23-.91-.301-1.375-.426-.477-.125-1.004-.137-1.434-.348-2.203-1.105-4.433-2.172-6.554-3.422-1.63-.96-3.117-2.16-4.645-3.28-1.035-.763-1.094-1.985-1.129-3.083-.035-1.035.313-2.078.453-3.125.164-1.21.997-1.984 1.801-2.742 1.02-.961 2.078-1.89 3.2-2.727.605-.449 1.394-.652 2.078-1.007.855-.45 1.671-.989 2.543-1.399 3.914-1.844 3.12-1.46 7.617-1.535m-14.645 13.36c.637.57 1.485.917 2.281 1.284 1.344.618 2.715 1.188 4.079 1.762.863.363 1.73.715 2.605 1.043.68.254 1.473.328 2.05.727 2.055 1.41 4.49 1.824 6.747 2.687.195.074.406.121.617.137 1.945.18 3.824.613 5.617 1.406.633.278 1.29.559 1.965.684 1.207.226 2.48.18 3.535.965a.63.63 0 0 0 .403.101c1.316-.097 2.703.024 3.93-.363 2.402-.758 4.062-2.52 5.105-4.774.433-.937.828-2.02.789-3.02a9.84 9.84 0 0 0-1.516-4.843c-1.066-1.676-2.633-2.762-4.512-3.453-1.148-.426-2.222-1.047-3.328-1.582-.41-.2-.793-.473-1.222-.605-.934-.293-1.89-.516-2.832-.774-.606-.168-1.196-.398-1.805-.504-1.106-.187-2.246-.203-3.324-.484-.942-.242-1.836-.465-2.805-.242-.23.054-.508.023-.734-.055-1.871-.648-3.758-.031-5.633-.031-1.758.004-3.488.476-5.14 1.133-.743.293-1.5.546-2.153 1.023.387.047.738-.035 1.082-.023a6.3 6.3 0 0 0 3.41-.82c.824-.462 1.875-.645 2.844-.7 1.719-.102 3.45 0 5.172-.008 1.105-.004 1.242-.02 1.539 1.016.203.695.629 1.008 1.195.945 1.356-.148 2.344.664 3.453 1.145.656.28 1.14.8 1.137 1.703-2.149.433-3.871-.88-5.649-1.235-.39.485-.675 1.2-1.12 1.317a10.3 10.3 0 0 1-3.227.344c-1.293-.07-2.582-.352-3.856-.625-.812-.176-1.699-.348-2.355-.801-.61-.418-1.063-.793-2.492-.68-1.434.11-2.328-.031-3.633.707-.703.399-1.918 1.328-2.242 2.035-.09.196-.469 1.418-.473 2.032-.004.617.305 1.25.496 1.425m13.758-6.84q-.258-.935-1.055-.754c.23.398.172 1.113 1.055.753m-2.36-.72-.261.036.105.785.262-.035zm4.899.485-.234-.383a.157.157 0 0 0-.227-.043c-.09.067-.176.133-.16.176.055.168.156.328.258.484a.152.152 0 0 0 .222.043q.053-.034.098-.07a.16.16 0 0 0 .043-.207m0 0"/><path d="M268.93 289.574c.187 1.348-.309 2.274-.75 3.153-.875 1.726-1.88 3.382-2.828 5.07-.036.062-.094.117-.11.183-.297 1.48-1.347 2.594-1.926 3.946-.351.812-1.054 1.46-1.468 2.254-.793 1.511-2.106 2.617-3.028 4.015-.812 1.235-1.554 2.516-2.351 3.758a77 77 0 0 1-2.2 3.313c-1.136 1.605-2.332 3.175-3.484 4.773-.828 1.145-1.672 2.281-2.422 3.473-.48.758-.765 1.64-1.215 2.422-.328.574-.793 1.066-1.168 1.613-.851 1.238-1.664 2.496-2.53 3.719-.36.507-.872.902-1.223 1.414-.75 1.086-1.63 2.078-2.086 3.382-.258.727-.918 1.313-1.399 1.961-.105.141-.265.262-.316.422-.52 1.684-1.664 3.016-2.52 4.508-.511.899-1.054 1.727-1.851 2.418-.43.375-.68.973-.961 1.496-.774 1.43-1.48 2.89-2.29 4.297-.417.723-1.054 1.316-1.492 2.027-.265.434-.328.989-.503 1.48-.09.259-.18.536-.344.747-.77.992-1.574 1.957-2.356 2.937-.89 1.118-1.78 2.23-2.656 3.36-.187.25-.281.57-.465.824-.41.563-.793 1.16-1.293 1.637-.937.894-1.632 1.902-1.945 3.176-.07.289-.285.543-.441.812-.489.856-.946 1.73-1.473 2.559-.73 1.136-1.438 2.3-2.297 3.34-.828.996-1.598 1.992-2.226 3.148-.743 1.371-1.415 2.793-2.704 3.863-.793.66-1.195 1.79-1.761 2.719-.254.414-.403.926-.73 1.266-1.473 1.523-2.708 3.214-3.86 4.988-1.168 1.797-2.446 3.527-3.676 5.281-1.394 1.992-2.766 4.008-4.207 5.969-.969 1.316-2.043 2.558-3.176 3.773.598-1.289 1.18-2.586 1.793-3.87.758-1.59 1.531-3.169 2.313-4.747 1.61-3.238 3.218-6.48 4.855-9.703.508-1 1.113-1.95 1.672-2.922.176-.305.36-.61.496-.933.5-1.145.98-2.297 1.469-3.45a3 3 0 0 1 .203-.37c.586-.993 1.152-2 1.77-2.973.292-.461.68-.864 1.046-1.274.137-.156.395-.219.5-.387.86-1.402 1.98-2.73 2.477-4.257.629-1.938 1.453-3.594 2.965-4.993.797-.738 1.504-1.742 1.86-2.765.675-1.934 1.96-3.473 2.956-5.196a43 43 0 0 1 3.164-4.753c.938-1.215 1.551-2.676 2.364-3.997.828-1.34 1.761-2.62 2.574-3.968.566-.93.972-1.953 1.52-2.895.417-.715.933-1.379 1.437-2.039.297-.39.683-.715.976-1.11.563-.753 1.125-1.515 1.614-2.316.554-.906 1.011-1.87 1.543-2.789.453-.785.918-1.574 1.445-2.312.781-1.086 1.64-2.117 2.434-3.2.199-.273.23-.667.406-.964.367-.617.77-1.215 1.183-1.797.141-.195.403-.3.555-.492 1.094-1.38 2.316-2.684 3.207-4.188.629-1.062.871-2.34 2.14-2.93.134-.062.196-.289.29-.437 1.015-1.64 2.012-3.29 3.054-4.91.258-.406.66-.719.985-1.086.574-.66 1.133-1.332 1.707-1.992.363-.426.762-.825 1.105-1.262.422-.543.805-1.117 1.207-1.676.41-.562.836-1.117 1.243-1.683.757-1.059 1.46-2.157 2.27-3.176.913-1.149 1.921-2.227 2.874-3.348a8 8 0 0 0 .672-.926c.187-.293.27-.691.52-.894.855-.695 1.464-1.578 2.156-2.414 1.094-1.313 2.465-2.403 3.734-3.563.211-.195.516-.293.977-.539M136.285 395.184c.125-.891.121-1.715.363-2.461.489-1.496.872-3.02 1.848-4.356.774-1.062 1.149-2.41 1.754-3.601.516-1.024 1.09-2.016 1.672-3 .21-.36.465-.746.797-.973 1.066-.73 1.726-1.734 2.144-2.926.532-1.523 1.453-2.777 2.637-3.855.156-.14.297-.313.395-.5 1.203-2.305 2.378-4.625 3.601-6.922.262-.488.586-1.05 1.035-1.309.758-.43 1-1.14 1.38-1.808.468-.82 1.019-1.594 1.495-2.41.336-.575.559-1.215.926-1.766.54-.809 1.176-1.555 1.742-2.348.18-.254.328-.57.36-.87.093-.833.554-1.446 1.093-2.013.723-.761 1.543-1.441 2.207-2.246.645-.78 1.243-1.632 1.68-2.539.43-.894.781-1.8 1.559-2.472.172-.149.238-.414.359-.63.152-.277.242-.636.473-.816 1.382-1.082 1.98-2.73 3.039-4.035.48-.598.933-1.125 1.172-1.898.156-.5.785-.844 1.18-1.282.25-.28.55-.574.663-.918.512-1.543 1.336-2.918 2.516-3.98 1.023-.922 1.648-2.059 2.367-3.176.434-.672 1.153-1.156 1.582-1.832 1.426-2.234 3.215-4.156 4.985-6.11.843-.929 1.539-1.991 2.343-2.956.922-1.102 1.91-2.153 2.84-3.254.59-.695 1.117-1.445 1.684-2.16.652-.825 1.304-1.64 1.972-2.45.54-.648 1.024-1.378 1.672-1.898 1.325-1.059 2.176-2.535 3.422-3.652.18-.164.328-.371.496-.547.723-.766 1.477-1.504 2.168-2.293.809-.922 1.528-1.926 2.364-2.82.886-.954 1.851-1.832 2.812-2.711.402-.368.91-.387 1.383-.106.492.293.41.738.32 1.219-.285 1.55-1.074 2.855-2.097 3.976-1.645 1.805-3.083 3.754-4.47 5.754-.57.825-1.292 1.54-1.948 2.305-.528.617-1.09 1.2-1.223 2.063-.035.222-.227.43-.371.625-.645.882-1.274 1.773-1.95 2.628-.394.497-.859.938-1.304 1.387-.902.899-1.645 1.895-2.11 3.094-.085.219-.269.41-.43.59-.745.847-1.515 1.668-2.23 2.535-.21.258-.257.644-.386.969-.16.39-.235.87-.508 1.144-1.043 1.028-1.496 2.508-2.75 3.383-.422.297-.598.926-.914 1.379-.649.918-1.29 1.844-1.98 2.726-1.216 1.551-2.481 3.067-3.696 4.622-.27.347-.531.773-.602 1.195-.18 1.078-.773 1.863-1.546 2.562-.211.188-.516.352-.598.586-.617 1.727-2.121 2.836-2.98 4.387-.032.063-.106.121-.102.18.043 1-.668 1.531-1.262 2.168-.387.418-.562 1.023-.91 1.484-.438.582-.957 1.102-1.45 1.64-.163.18-.386.317-.519.516-.5.758-.933 1.567-1.472 2.297-.504.676-1.047 1.29-1.188 2.188-.055.347-.492.656-.793.941-.992.945-1.156 2.32-1.836 3.422-.222.363-.574.652-.875.965-.144.152-.375.258-.437.433-.395 1.059-1.18 1.782-2.043 2.442a.7.7 0 0 0-.184.258c-1.117 2.386-2.902 4.32-4.406 6.441-.235.332-.461.766-.453 1.149.011.718-.364 1.16-.778 1.664-.914 1.113-1.754 2.285-2.64 3.421-.367.473-.739.95-1.176 1.352-1.535 1.402-2.578 3.152-3.578 4.938-.192.335-.434.64-.653.96-.828 1.215-1.613 2.465-2.503 3.633-.567.746-1.301 1.364-1.942 2.055a95 95 0 0 0-2.039 2.289c-.8.93-1.723 1.66-3.168 1.934M244.484 380.445c.184-.523.301-1.078.563-1.558 1.473-2.735 2.976-5.45 4.473-8.172.05-.094.132-.176.156-.277.566-2.375 2.586-3.915 3.515-6.075 1.149-2.672 3.145-4.82 4.496-7.363.497-.934.922-1.906 1.477-2.797.649-1.039 1.41-2.004 2.121-3.004.223-.312.54-.601.637-.953.441-1.562 1.316-2.867 2.312-4.113.082-.106.168-.242.176-.375.074-1.02.797-1.625 1.461-2.254.547-.52.871-1.125 1.176-1.824.445-1.016 1.152-1.926 1.805-2.84.632-.88 1.351-1.7 2.011-2.563 1.004-1.304 2.012-2.605 2.98-3.941.7-.965 1.27-2.031 2.009-2.969a107 107 0 0 1 4.14-4.953c.649-.73 1.45-1.336 2.238-1.922.258-.191.696-.14 1.051-.203.047.36.223.762.121 1.07-.168.528-.52.996-.78 1.5-.227.434-.427.883-.645 1.325-.11.214-.184.484-.356.625-1.469 1.226-2.266 2.918-3.2 4.52-.444.757-.972 1.468-1.429 2.222-.308.504-.543 1.054-.847 1.558-1.075 1.774-2.168 3.536-3.25 5.305-.055.09-.133.18-.145.281-.246 1.868-1.867 2.942-2.633 4.528-.633 1.308-1.672 2.418-2.449 3.664-.535.86-.926 1.808-1.395 2.71-.109.22-.261.41-.402.614-.437.633-.883 1.262-1.316 1.898-.614.903-1.235 1.797-1.817 2.72-.351.558-.558 1.214-.953 1.733-.848 1.118-1.77 2.176-2.66 3.258-.09.11-.195.22-.246.344-.992 2.637-2.86 4.734-4.367 7.047-1.203 1.844-2.676 3.504-4.024 5.25-.695.906-1.308 1.89-2.09 2.715-1.156 1.219-2.425 2.328-3.648 3.484q-.136-.107-.266-.215M136.93 352.152c.593-1.011 1.152-2.05 1.8-3.03.778-1.177 1.633-2.302 2.446-3.454.832-1.176 1.617-2.387 2.492-3.531 1.039-1.364 2.16-2.664 3.227-4.008.59-.742 1.117-1.535 1.707-2.274.75-.933 1.546-1.828 2.308-2.757.797-.977 1.567-1.973 2.363-2.953.883-1.094 1.747-2.207 2.688-3.254 1.832-2.047 3.715-4.055 5.574-6.079.121-.128.258-.253.344-.402 1.289-2.176 3.258-3.672 5.203-5.183.344-.266.773-.418 1.262-.508-9.403 13.379-19.934 25.785-31.164 37.61zM276.719 365.426c.394-1.145.71-2.328 1.21-3.426.477-1.055 1.344-1.957 1.696-3.04.563-1.75 2.129-2.784 2.828-4.429.328-.777 1.168-1.32 1.633-2.058 1.297-2.063 2.855-3.899 4.539-5.645.855-.887 1.633-1.844 2.504-2.71.414-.411.953-.72 1.469-1.009.453-.254.89-.168 1.207.278-.258 2.925-1.817 5.215-3.563 7.418-.996 1.25-1.933 2.543-2.941 3.78-.442.544-1.04.954-1.485 1.49-1.238 1.48-2.359 3.07-3.668 4.488-1.632 1.765-3.406 3.398-5.12 5.09zm0 0"/></svg>